<?xml version="1.0" standalone="no"?>
<!DOCTYPE svg PUBLIC "-//W3C//DTD SVG 1.1//EN" "http://www.w3.org/Graphics/SVG/1.1/DTD/svg11.dtd" >
<svg xmlns="http://www.w3.org/2000/svg" xmlns:xlink="http://www.w3.org/1999/xlink" version="1.1">
<metadata>
Created by FontForge 20161003 at Mon Nov 21 19:01:51 2016
 By www-data
Copyright (c) 2015-2016 by Marc Lohner. All rights reserved.
</metadata>
<defs>
<font id="QuendaMedium" horiz-adv-x="0" >
  <font-face 
    font-family="QuendaMedium"
    font-weight="500"
    font-stretch="normal"
    units-per-em="1000"
    panose-1="0 0 6 0 0 0 0 0 0 0"
    ascent="800"
    descent="-200"
    x-height="464"
    cap-height="639"
    bbox="-472.769 -289 1360.29 909"
    underline-thickness="50"
    underline-position="-150"
    unicode-range="U+0020-25CA"
  />
<missing-glyph horiz-adv-x="543" 
d="M58 0v630h427v-630h-427zM109 51h325v528h-325v-528zM327 393q0 26 -19.5 40.5t-58 10t-86.5 -29.5q-14 -7 -16 15q-3 30 12 44q2 2 4 3q52 27 106.5 28.5t91.5 -25t37 -76.5q0 -37 -20.5 -59t-44.5 -29.5t-44.5 -24.5t-20.5 -44q0 -12 -18 -17t-35.5 0t-17.5 16
q0 40 20.5 63t44.5 30t44.5 20t20.5 35zM233 118q-17 0 -28 10.5t-11 26.5t11 26.5t28 10.5t27.5 -10.5t10.5 -26.5t-10.5 -26.5t-27.5 -10.5z" />
    <glyph glyph-name="f_f.liga" unicode="ff" horiz-adv-x="833" 
d="M798 647q25 -16 26 -62q1 -39 -17 -40l-9 2q-60 35 -101 35q-64 0 -64 -95v-39h124q27 0 16 -36q-11 -38 -41 -58q-13 -9 -25 -9h-74v-322q0 -19 -29.5 -26.5t-59 0t-29.5 26.5v322h-286v-322q0 -19 -29.5 -26.5t-59 0t-29.5 26.5v322h-61q-19 0 -26.5 25.5t0 51.5
t26.5 26h61v42q0 92 46.5 140.5t118.5 48.5q62 0 118 -34q26 -15 26 -61q1 -38 -17 -39q-4 -1 -9 2q-60 35 -101 35q-64 0 -64 -95v-39h286v42q0 92 46 140.5t118 48.5q58 0 119 -32z" />
    <glyph glyph-name="f_f_i.liga" unicode="ffi" horiz-adv-x="1071" 
d="M925 546q-32 0 -50.5 19.5t-18.5 53.5q0 32 19 51.5t50 19.5q30 0 49 -20t19 -51q0 -33 -19 -53t-49 -20zM1007 103q24 10 30 -20q7 -34 -14 -61q-7 -9 -16 -13q-31 -15 -62 -15q-36 0 -58 24t-22 75v252h-232v-322q0 -19 -29.5 -26.5t-59.5 0t-30 26.5v322h-285v-322
q0 -19 -29.5 -26.5t-59 0t-29.5 26.5v322h-61q-19 0 -26.5 25.5t0 51.5t26.5 26h61v42q0 92 46.5 140.5t118.5 48.5q57 0 118 -32q25 -16 26 -62q1 -39 -17 -40q-4 -1 -9 2q-60 35 -101 35q-64 0 -64 -95v-39h285v42q0 93 37 141t99 48q53 0 114 -32q25 -13 26 -60
q1 -40 -17 -42q-4 -1 -9 2q-54 30 -82 30q-49 0 -49 -90v-39h293q57 0 57 -34v-292q0 -21 15 -21q3 0 9 2z" />
    <glyph glyph-name="f_f_dotlessi.liga" unicode="ff&#x131;" horiz-adv-x="1071" 
d="M1007 103q24 10 30 -20q7 -34 -14 -61q-7 -9 -16 -13q-31 -15 -62 -15q-36 0 -58 24t-22 75v252h-232v-322q0 -19 -29.5 -26.5t-59.5 0t-30 26.5v322h-285v-322q0 -19 -29.5 -26.5t-59 0t-29.5 26.5v322h-61q-19 0 -26.5 25.5t0 51.5t26.5 26h61v42q0 92 46.5 140.5
t118.5 48.5q57 0 118 -32q25 -16 26 -62q1 -39 -17 -40q-4 -1 -9 2q-60 35 -101 35q-64 0 -64 -95v-39h285v42q0 93 37 141t99 48q53 0 114 -32q25 -13 26 -60q1 -40 -17 -42q-4 -1 -9 2q-54 30 -82 30q-49 0 -49 -90v-39h293q57 0 57 -34v-292q0 -21 15 -21q3 0 9 2z" />
    <glyph glyph-name="f_f_iacute.liga" unicode="ff&#xed;" horiz-adv-x="1075" 
d="M949 684q13 25 75 28q53 2 59 -16q2 -5 -3 -12l-103 -132q-16 -21 -59 -22q-36 0 -34 17l1 5zM1007 103q24 10 30 -20q7 -34 -14 -61q-7 -9 -16 -13q-31 -15 -62 -15q-36 0 -58 24t-22 75v252h-232v-322q0 -19 -29.5 -26.5t-59.5 0t-30 26.5v322h-285v-322
q0 -19 -29.5 -26.5t-59 0t-29.5 26.5v322h-61q-19 0 -26.5 25.5t0 51.5t26.5 26h61v42q0 92 46.5 140.5t118.5 48.5q57 0 118 -32q25 -16 26 -62q1 -39 -17 -40q-4 -1 -9 2q-60 35 -101 35q-64 0 -64 -95v-39h285v42q0 93 37 141t99 48q53 0 114 -32q25 -13 26 -60
q1 -40 -17 -42q-4 -1 -9 2q-54 30 -82 30q-49 0 -49 -90v-39h293q57 0 57 -34v-292q0 -21 15 -21q3 0 9 2z" />
    <glyph glyph-name="f_f_ibreve.liga" unicode="ff&#x12d;" horiz-adv-x="1076" 
d="M930 530q-63 0 -98 38.5t-35 105.5q0 18 18.5 25.5t37 0t18.5 -25.5q0 -33 16 -51t43 -18t42.5 19t15.5 50q0 18 18.5 25.5t37 0t18.5 -25.5q0 -68 -35 -106t-97 -38zM1007 103q24 10 30 -20q7 -34 -14 -61q-7 -9 -16 -13q-31 -15 -62 -15q-36 0 -58 24t-22 75v252h-232
v-322q0 -19 -29.5 -26.5t-59.5 0t-30 26.5v322h-285v-322q0 -19 -29.5 -26.5t-59 0t-29.5 26.5v322h-61q-19 0 -26.5 25.5t0 51.5t26.5 26h61v42q0 92 46.5 140.5t118.5 48.5q57 0 118 -32q25 -16 26 -62q1 -39 -17 -40q-4 -1 -9 2q-60 35 -101 35q-64 0 -64 -95v-39h285v42
q0 92 37 140.5t95 48.5q50 0 103 -32q25 -16 25 -62q1 -39 -16 -40q-4 -1 -9 2q-52 29 -76 29q-22 0 -31 -20.5t-9 -68.5v-39h293q57 0 57 -34v-292q0 -21 15 -21q3 0 9 2z" />
    <glyph glyph-name="f_f_icircumflex.liga" unicode="ff&#xee;" horiz-adv-x="1076" 
d="M1066 545q9 -18 -21 -22q-39 -6 -64 13l-9 9q-20 34 -41 61q-21 -27 -41 -61q-15 -23 -59 -24q-37 -1 -38 16q0 4 2 8q18 30 58 86.5t51 67.5q8 7 26.5 7t26.5 -7q11 -11 52 -67.5t57 -86.5zM1007 103q24 10 30 -20q7 -34 -14 -61q-7 -9 -16 -13q-31 -15 -62 -15
q-36 0 -58 24t-22 75v252h-232v-322q0 -19 -29.5 -26.5t-59.5 0t-30 26.5v322h-285v-322q0 -19 -29.5 -26.5t-59 0t-29.5 26.5v322h-61q-19 0 -26.5 25.5t0 51.5t26.5 26h61v42q0 92 46.5 140.5t118.5 48.5q57 0 118 -32q25 -16 26 -62q1 -39 -17 -40q-4 -1 -9 2
q-60 35 -101 35q-64 0 -64 -95v-39h285v42q0 93 37 141t99 48q46 0 95 -21q25 -13 26 -60q1 -40 -17 -42q-4 -1 -9 2q-41 19 -63 19q-49 0 -49 -90v-39h293q57 0 57 -34v-292q0 -21 15 -21q3 0 9 2z" />
    <glyph glyph-name="f_f_idieresis.liga" unicode="ff&#xef;" horiz-adv-x="1068" 
d="M1007 103q24 10 30 -20q7 -34 -14 -61q-7 -9 -16 -13q-31 -15 -62 -15q-36 0 -58 24t-22 75v252h-232v-322q0 -19 -29.5 -26.5t-59.5 0t-30 26.5v322h-285v-322q0 -19 -29.5 -26.5t-59 0t-29.5 26.5v322h-61q-19 0 -26.5 25.5t0 51.5t26.5 26h61v42q0 92 46.5 140.5
t118.5 48.5q57 0 118 -32q25 -16 26 -62q1 -39 -17 -40q-4 -1 -9 2q-60 35 -101 35q-64 0 -64 -95v-39h285v42q0 93 37 141t99 48q36 0 77 -22q25 -13 26 -58q0 -37 -17 -38l-9 2q-28 14 -45 14q-49 0 -49 -90v-39h293q57 0 57 -34v-292q0 -21 15 -21q3 0 9 2zM850 529
q-29 0 -46.5 18.5t-17.5 49.5q0 30 17.5 48.5t46.5 18.5q28 0 45.5 -18.5t17.5 -48.5q0 -31 -17.5 -49.5t-45.5 -18.5zM1006 664q28 0 45 -18.5t17 -48.5q0 -31 -17 -49.5t-45 -18.5q-29 0 -46.5 18.5t-17.5 49.5q0 30 17.5 48.5t46.5 18.5z" />
    <glyph glyph-name="f_f_igrave.liga" unicode="ff&#xec;" horiz-adv-x="1070" 
d="M880 552l-103 132q-14 19 24 26q49 8 87 -10q15 -6 20 -16l64 -132q9 -17 -20 -21q-38 -5 -64 13zM1007 103q24 10 30 -20q7 -34 -14 -61q-7 -9 -16 -13q-31 -15 -62 -15q-36 0 -58 24t-22 75v252h-232v-322q0 -19 -29.5 -26.5t-59.5 0t-30 26.5v322h-285v-322
q0 -19 -29.5 -26.5t-59 0t-29.5 26.5v322h-61q-19 0 -26.5 25.5t0 51.5t26.5 26h61v42q0 92 46.5 140.5t118.5 48.5q57 0 118 -32q25 -16 26 -62q1 -39 -17 -40q-4 -1 -9 2q-60 35 -101 35q-64 0 -64 -95v-39h285v42q0 93 36.5 141t95.5 48q49 0 101 -32q25 -16 25 -62
q1 -39 -16 -40q-4 -1 -9 2q-49 28 -75 28q-21 0 -30 -20.5t-9 -67.5v-39h293q57 0 57 -34v-292q0 -21 15 -21q3 0 9 2z" />
    <glyph glyph-name="f_f_imacron.liga" unicode="ff&#x12b;" horiz-adv-x="1070" 
d="M1007 103q24 10 30 -20q7 -34 -14 -61q-7 -9 -16 -13q-31 -15 -62 -15q-36 0 -58 24t-22 75v252h-232v-322q0 -19 -29.5 -26.5t-59.5 0t-30 26.5v322h-285v-322q0 -19 -29.5 -26.5t-59 0t-29.5 26.5v322h-61q-19 0 -26.5 25.5t0 51.5t26.5 26h61v42q0 92 46.5 140.5
t118.5 48.5q57 0 118 -32q25 -16 26 -62q1 -39 -17 -40q-4 -1 -9 2q-60 35 -101 35q-64 0 -64 -95v-39h285v42q0 93 37 141t99 48q41 0 98 -21q24 -14 25 -61q1 -40 -16 -42q-4 -1 -9 2q-43 20 -66 20q-49 0 -49 -90v-39h293q57 0 57 -34v-292q0 -21 15 -21q3 0 9 2z
M881 541q-30 0 -55 40q-25 38 -9 53q5 5 14 5h171q18 0 26 -24.5t0 -49t-26 -24.5h-121z" />
    <glyph glyph-name="f_f_iogonek.liga" unicode="ff&#x12f;" horiz-adv-x="1048" 
d="M925 546q-32 0 -50.5 19.5t-18.5 53.5q0 32 19 51.5t50 19.5q30 0 49 -20t19 -51q0 -33 -19 -53t-49 -20zM988 -98q18 8 21 -19q4 -31 -14 -48l-4 -4q-47 -26 -92 -26q-42 0 -68 25.5t-26 61.5q0 41 36 91l24 33v236v93h-232v-322q0 -19 -29.5 -26.5t-59 0t-29.5 26.5
v322h-286v-322q0 -19 -29.5 -26.5t-59 0t-29.5 26.5v322h-61q-19 0 -26.5 25.5t0 51.5t26.5 26h61v42q0 92 46.5 140.5t118.5 48.5q57 0 118 -32q25 -16 26 -62q1 -39 -17 -40q-4 -1 -9 2q-60 35 -101 35q-64 0 -64 -95v-39h286v42q0 92 46 140.5t118 48.5q52 0 103 -27
q26 -14 27 -60q0 -39 -17 -41q-5 -1 -10 2q-49 29 -85 29q-64 0 -64 -95v-39h293q57 0 57 -34v-276v-99q0 -10 -7 -22l-47 -67q-12 -17 -12 -36q0 -24 26 -24q14 0 45 12z" />
    <glyph glyph-name="f_f_itilde.liga" unicode="ff&#x129;" horiz-adv-x="1070" 
d="M1007 103q24 10 30 -20q7 -34 -14 -61q-7 -9 -16 -13q-31 -15 -62 -15q-36 0 -58 24t-22 75v252h-232v-322q0 -19 -29.5 -26.5t-59.5 0t-30 26.5v322h-285v-322q0 -19 -29.5 -26.5t-59 0t-29.5 26.5v322h-61q-19 0 -26.5 25.5t0 51.5t26.5 26h61v42q0 92 46.5 140.5
t118.5 48.5q57 0 118 -32q25 -16 26 -62q1 -39 -17 -40q-4 -1 -9 2q-60 35 -101 35q-64 0 -64 -95v-39h285v42q0 94 37 141.5t100 47.5q36 0 74 -20q25 -14 26 -60q0 -37 -17 -38q-4 -1 -9 2q-28 14 -43 14q-49 0 -49 -90v-39h293q57 0 57 -34v-292q0 -21 15 -21q3 0 9 2z
M860 547q0 -18 -21 -25.5t-42 0t-21 25.5q0 54 23.5 82t56.5 28q24 0 59.5 -16t45.5 -16q19 0 19 18t21.5 26t43 0t21.5 -26q0 -54 -24 -81.5t-57 -27.5q-23 0 -58.5 16t-48.5 16q-18 0 -18 -19z" />
    <glyph glyph-name="f_f_l.liga" unicode="ffl" horiz-adv-x="1150" 
d="M1090 105q25 9 31 -21q6 -35 -15 -60q-7 -8 -16 -12q-54 -19 -91 -19q-111 0 -111 136v426q-42 21 -85.5 30t-82 4t-63 -33t-24.5 -77v-31h129q27 0 16 -36q-11 -38 -42 -58q-13 -9 -25 -9h-78v-322q0 -19 -29.5 -26.5t-59.5 0t-30 26.5v322h-60h-225v-322
q0 -19 -29.5 -26.5t-59 0t-29.5 26.5v322h-61q-19 0 -26.5 25.5t0 51.5t26.5 26h61v42q0 92 46.5 140.5t118.5 48.5q62 0 118 -34q26 -15 26 -61q1 -38 -17 -39q-4 -1 -9 2q-60 35 -101 35q-64 0 -64 -95v-39h285v25q0 164 140 206q103 31 231 -10q92 -30 115 -70
q5 -9 5 -16v-426q0 -62 38 -62q15 0 47 10z" />
    <glyph glyph-name="f_f_lacute.liga" unicode="ff&#x13a;" horiz-adv-x="1150" 
d="M993 748q-18 -20 -61 -21q-34 0 -33 16q1 2 2 5l46 99q12 24 73 27q55 2 61 -15q1 -6 -4 -12zM1090 105q25 9 31 -21q6 -35 -15 -60q-7 -8 -16 -12q-54 -19 -91 -19q-111 0 -111 136v426q-42 21 -85.5 30t-82 4t-63 -33t-24.5 -77v-31h129q27 0 16 -36q-11 -38 -42 -58
q-13 -9 -25 -9h-78v-322q0 -19 -29.5 -26.5t-59.5 0t-30 26.5v322h-60h-225v-322q0 -19 -29.5 -26.5t-59 0t-29.5 26.5v322h-61q-19 0 -26.5 25.5t0 51.5t26.5 26h61v42q0 92 46.5 140.5t118.5 48.5q62 0 118 -34q26 -15 26 -61q1 -38 -17 -39q-4 -1 -9 2q-60 35 -101 35
q-64 0 -64 -95v-39h285v25q0 164 140 206q103 31 231 -10q92 -30 115 -70q5 -9 5 -16v-426q0 -62 38 -62q15 0 47 10z" />
    <glyph glyph-name="f_f_lcaron.liga" unicode="ff&#x13e;" horiz-adv-x="1182" 
d="M1101 686q9 23 64 25q48 2 54 -15q2 -5 -1 -10l-76 -131q-13 -23 -54 -24q-34 -1 -36 16q-1 4 1 8zM1090 105q25 9 31 -21q6 -35 -15 -60q-7 -8 -16 -12q-54 -19 -91 -19q-111 0 -111 136v426q-42 21 -85.5 30t-82 4t-63 -33t-24.5 -77v-31h129q27 0 16 -36
q-11 -38 -42 -58q-13 -9 -25 -9h-78v-322q0 -19 -29.5 -26.5t-59.5 0t-30 26.5v322h-60h-225v-322q0 -19 -29.5 -26.5t-59 0t-29.5 26.5v322h-61q-19 0 -26.5 25.5t0 51.5t26.5 26h61v42q0 92 46.5 140.5t118.5 48.5q62 0 118 -34q26 -15 26 -61q1 -38 -17 -39q-4 -1 -9 2
q-60 35 -101 35q-64 0 -64 -95v-39h285v25q0 164 140 206q103 31 231 -10q92 -30 115 -70q5 -9 5 -16v-426q0 -62 38 -62q15 0 47 10z" />
    <glyph glyph-name="f_f_lcommaaccent.liga" unicode="ff&#x13c;" horiz-adv-x="1150" 
d="M1090 105q25 9 31 -21q6 -35 -15 -60q-7 -8 -16 -12q-54 -19 -91 -19q-111 0 -111 136v426q-42 21 -85.5 30t-82 4t-63 -33t-24.5 -77v-31h129q27 0 16 -36q-11 -38 -42 -58q-13 -9 -25 -9h-78v-322q0 -19 -29.5 -26.5t-59.5 0t-30 26.5v322h-60h-225v-322
q0 -19 -29.5 -26.5t-59 0t-29.5 26.5v322h-61q-19 0 -26.5 25.5t0 51.5t26.5 26h61v42q0 92 46.5 140.5t118.5 48.5q62 0 118 -34q26 -15 26 -61q1 -38 -17 -39q-4 -1 -9 2q-60 35 -101 35q-64 0 -64 -95v-39h285v25q0 164 140 206q103 31 231 -10q92 -30 115 -70
q5 -9 5 -16v-426q0 -62 38 -62q15 0 47 10zM940 -61q8 23 62 26q49 2 55 -16q2 -5 -1 -10l-76 -130q-13 -23 -54 -25q-34 -1 -36 17q-1 4 1 8z" />
    <glyph glyph-name="f_f_ldot.liga" unicode="ff&#x140;" horiz-adv-x="1205" 
d="M1090 105q25 9 31 -21q6 -35 -15 -60q-7 -8 -16 -12q-54 -19 -91 -19q-111 0 -111 136v426q-42 21 -85.5 30t-82 4t-63 -33t-24.5 -77v-31h129q27 0 16 -36q-11 -38 -42 -58q-13 -9 -25 -9h-78v-322q0 -19 -29.5 -26.5t-59.5 0t-30 26.5v322h-60h-225v-322
q0 -19 -29.5 -26.5t-59 0t-29.5 26.5v322h-61q-19 0 -26.5 25.5t0 51.5t26.5 26h61v42q0 92 46.5 140.5t118.5 48.5q62 0 118 -34q26 -15 26 -61q1 -38 -17 -39q-4 -1 -9 2q-60 35 -101 35q-64 0 -64 -95v-39h285v25q0 164 140 206q103 31 231 -10q92 -30 115 -70
q5 -9 5 -16v-426q0 -62 38 -62q15 0 47 10zM1113 413q28 0 45.5 -17.5t17.5 -44.5q0 -28 -17.5 -45t-45.5 -17q-30 0 -48 17t-18 45q0 27 18.5 44.5t47.5 17.5z" />
    <glyph glyph-name="f_i.liga" unicode="fi" horiz-adv-x="667" 
d="M521 546q-32 0 -50.5 19.5t-18.5 53.5q0 32 19 51.5t50 19.5t50 -19.5t19 -51.5q0 -33 -19 -53t-50 -20zM603 103q24 10 30 -20q7 -34 -14 -61q-7 -9 -16 -13q-31 -15 -62 -15q-36 0 -58 24t-22 75v252h-232v-322q0 -19 -29.5 -26.5t-59 0t-29.5 26.5v322h-61
q-19 0 -26.5 25.5t0 51.5t26.5 26h61v42q0 94 37 141.5t101 47.5q50 0 111 -32q25 -13 26 -60q1 -40 -17 -42q-4 -1 -9 2q-54 30 -82 30q-49 0 -49 -90v-39h294q56 0 56 -34v-292q0 -21 15 -21q3 0 9 2z" />
    <glyph glyph-name="f_dotlessi.liga" unicode="f&#x131;" horiz-adv-x="667" 
d="M603 103q24 10 30 -20q7 -34 -14 -61q-7 -9 -16 -13q-31 -15 -62 -15q-36 0 -58 24t-22 75v252h-232v-322q0 -19 -29.5 -26.5t-59 0t-29.5 26.5v322h-61q-19 0 -26.5 25.5t0 51.5t26.5 26h61v42q0 94 37 141.5t101 47.5q52 0 111 -34q25 -14 26 -61q0 -38 -17 -39
q-4 -1 -9 2q-54 30 -82 30q-49 0 -49 -90v-39h294q56 0 56 -34v-292q0 -21 15 -21q3 0 9 2z" />
    <glyph glyph-name="f_iacute.liga" unicode="f&#xed;" horiz-adv-x="667" 
d="M546 684q13 25 73 28q54 2 60 -16q2 -6 -3 -12l-103 -132q-15 -22 -59 -22q-36 0 -34 17q1 2 2 5zM603 103q24 10 30 -20q7 -34 -14 -61q-7 -9 -16 -13q-31 -15 -62 -15q-36 0 -58 24t-22 75v252h-232v-322q0 -19 -29.5 -26.5t-59 0t-29.5 26.5v322h-61q-19 0 -26.5 25.5
t0 51.5t26.5 26h61v42q0 94 37 141.5t101 47.5q52 0 111 -34q25 -14 26 -61q0 -38 -17 -39q-4 -1 -9 2q-54 30 -82 30q-49 0 -49 -90v-39h294q56 0 56 -34v-292q0 -21 15 -21q3 0 9 2z" />
    <glyph glyph-name="f_ibreve.liga" unicode="f&#x12d;" horiz-adv-x="672" 
d="M526 530q-63 0 -97.5 38.5t-34.5 105.5q0 18 18 25.5t36.5 0t18.5 -25.5q0 -33 16 -51t43 -18t42.5 19t15.5 50q0 18 18.5 25.5t37 0t18.5 -25.5q0 -68 -35 -106t-97 -38zM603 103q24 10 30 -20q7 -34 -14 -61q-7 -9 -16 -13q-31 -15 -62 -15q-36 0 -58 24t-22 75v252
h-232v-322q0 -19 -29.5 -26.5t-59 0t-29.5 26.5v322h-61q-19 0 -26.5 25.5t0 51.5t26.5 26h61v42q0 94 37 141.5t101 47.5q42 0 96 -27q25 -13 26 -60q1 -38 -17 -40q-4 0 -9 2q-43 23 -67 23q-49 0 -49 -90v-39h294q56 0 56 -34v-292q0 -21 15 -21q3 0 9 2z" />
    <glyph glyph-name="f_icircumflex.liga" unicode="f&#xee;" horiz-adv-x="678" 
d="M663 545q9 -18 -21 -22q-39 -6 -64 13l-9 9q-20 34 -41 61q-21 -27 -41 -61q-15 -23 -59 -24q-37 -1 -38 16q0 4 2 8q18 30 58 86.5t51 67.5q8 7 26.5 7t26.5 -7q11 -11 52 -67.5t57 -86.5zM603 103q24 10 30 -20q7 -34 -14 -61q-7 -9 -16 -13q-31 -15 -62 -15
q-36 0 -58 24t-22 75v252h-232v-322q0 -19 -29.5 -26.5t-59 0t-29.5 26.5v322h-61q-19 0 -26.5 25.5t0 51.5t26.5 26h61v42q0 94 37 141.5t101 47.5q42 0 96 -27q25 -13 26 -60q1 -38 -17 -40q-4 0 -9 2q-43 23 -67 23q-49 0 -49 -90v-39h294q56 0 56 -34v-292q0 -21 15 -21
q3 0 9 2z" />
    <glyph glyph-name="f_idieresis.liga" unicode="f&#xef;" horiz-adv-x="664" 
d="M603 103q24 10 30 -20q7 -34 -14 -61q-7 -9 -16 -13q-31 -15 -62 -15q-36 0 -58 24t-22 75v252h-232v-322q0 -19 -29.5 -26.5t-59 0t-29.5 26.5v322h-61q-19 0 -26.5 25.5t0 51.5t26.5 26h61v42q0 94 37 141.5t101 47.5q37 0 77 -21q24 -12 25 -57q2 -40 -16 -43
q-4 -1 -9 2q-31 17 -48 17q-49 0 -49 -90v-39h294q56 0 56 -34v-292q0 -21 15 -21q3 0 9 2zM446 529q-29 0 -46.5 18.5t-17.5 49.5q0 30 17.5 48.5t46.5 18.5q28 0 45.5 -18.5t17.5 -48.5q0 -31 -17.5 -49.5t-45.5 -18.5zM602 664q28 0 45.5 -18.5t17.5 -48.5
q0 -31 -17.5 -49.5t-45.5 -18.5q-29 0 -46.5 18.5t-17.5 49.5q0 30 17.5 48.5t46.5 18.5z" />
    <glyph glyph-name="f_igrave.liga" unicode="f&#xec;" horiz-adv-x="666" 
d="M476 552l-102 132q-15 19 23 26q47 8 86 -9q16 -7 21 -17l64 -132q9 -17 -20 -21q-38 -5 -64 13q-5 4 -8 8zM603 103q24 10 30 -20q7 -34 -14 -61q-7 -9 -16 -13q-31 -15 -62 -15q-36 0 -58 24t-22 75v252h-232v-322q0 -19 -29.5 -26.5t-59 0t-29.5 26.5v322h-61
q-19 0 -26.5 25.5t0 51.5t26.5 26h61v42q0 94 37 141.5t101 47.5q37 0 77 -21q24 -12 25 -57q2 -40 -16 -43q-4 -1 -9 2q-31 17 -48 17q-49 0 -49 -90v-39h294q56 0 56 -34v-292q0 -21 15 -21q3 0 9 2z" />
    <glyph glyph-name="f_imacron.liga" unicode="f&#x12b;" horiz-adv-x="666" 
d="M603 103q24 10 30 -20q7 -34 -14 -61q-7 -9 -16 -13q-31 -15 -62 -15q-36 0 -58 24t-22 75v252h-232v-322q0 -19 -29.5 -26.5t-59 0t-29.5 26.5v322h-61q-19 0 -26.5 25.5t0 51.5t26.5 26h61v42q0 94 37 141.5t101 47.5q37 0 77 -21q24 -12 25 -57q2 -40 -16 -43
q-4 -1 -9 2q-31 17 -48 17q-49 0 -49 -90v-39h294q56 0 56 -34v-292q0 -21 15 -21q3 0 9 2zM477 541q-30 0 -55 40q-24 38 -9 53q5 5 14 5h171q18 0 26 -24.5t0 -49t-26 -24.5h-121z" />
    <glyph glyph-name="f_iogonek.liga" unicode="f&#x12f;" horiz-adv-x="645" 
d="M521 546q-32 0 -50.5 19.5t-18.5 53.5q0 32 19 51.5t50 19.5t50 -19.5t19 -51.5q0 -33 -19 -53t-50 -20zM584 -98q18 8 21 -19q4 -31 -14 -48l-4 -4q-47 -26 -91 -26q-43 0 -69 25t-26 62q0 41 36 91l24 33v235v94h-232v-322q0 -19 -29.5 -26.5t-59 0t-29.5 26.5v322h-61
q-19 0 -26.5 25.5t0 51.5t26.5 26h61v42q0 94 37 141.5t101 47.5q50 0 111 -32q25 -13 26 -60q1 -40 -17 -42q-4 -1 -9 2q-54 30 -82 30q-49 0 -49 -90v-39h294q56 0 56 -34v-285v-90q0 -10 -7 -22l-46 -67q-13 -17 -13 -36q0 -24 26 -24q14 0 45 12z" />
    <glyph glyph-name="f_itilde.liga" unicode="f&#x129;" horiz-adv-x="666" 
d="M603 103q24 10 30 -20q7 -34 -14 -61q-7 -9 -16 -13q-31 -15 -62 -15q-36 0 -58 24t-22 75v252h-232v-322q0 -19 -29.5 -26.5t-59.5 0t-30 26.5v322h-60q-19 0 -26.5 25.5t0 51.5t26.5 26h60v42q0 94 37 141.5t100 47.5q38 0 74 -20q25 -14 26 -60q0 -37 -17 -38
q-4 -1 -9 2q-28 14 -43 14q-49 0 -49 -90v-39h294q56 0 56 -34v-292q0 -21 15 -21q3 0 9 2zM456 547q0 -18 -21 -25.5t-42 0t-21 25.5q0 54 24 82t56 28q24 0 59.5 -16t45.5 -16q19 0 19 18t21.5 26t43 0t21.5 -26q0 -54 -24 -81.5t-57 -27.5q-23 0 -58.5 16t-47.5 16
q-19 0 -19 -19z" />
    <glyph glyph-name="f_l.liga" unicode="fl" horiz-adv-x="746" 
d="M687 105q25 9 31 -21q6 -35 -15 -60q-7 -8 -16 -12q-54 -19 -91 -19q-111 0 -111 136v426q-42 21 -85.5 30t-82.5 4t-63.5 -33t-24.5 -77v-31h129q27 0 16 -36q-11 -38 -42 -58q-13 -9 -25 -9h-78v-322q0 -19 -29.5 -26.5t-59 0t-29.5 26.5v322h-61q-19 0 -26.5 25.5
t0 51.5t26.5 26h61v25q0 164 140 206q103 31 231 -10q92 -30 115 -70q5 -9 5 -16v-426q0 -62 38 -62q15 0 47 10z" />
    <glyph glyph-name="f_lacute.liga" unicode="f&#x13a;" horiz-adv-x="746" 
d="M598 748q-18 -21 -62 -21q-35 0 -32 17q0 2 1 4l46 99q12 25 74 27q55 2 60 -15q2 -6 -3 -12zM687 105q25 9 31 -21q6 -35 -15 -60q-7 -8 -16 -12q-54 -19 -91 -19q-111 0 -111 136v426q-42 21 -85.5 30t-82.5 4t-63.5 -33t-24.5 -77v-31h129q27 0 16 -36
q-11 -38 -42 -58q-13 -9 -25 -9h-78v-322q0 -19 -29.5 -26.5t-59 0t-29.5 26.5v322h-61q-19 0 -26.5 25.5t0 51.5t26.5 26h61v25q0 164 140 206q103 31 231 -10q92 -30 115 -70q5 -9 5 -16v-426q0 -62 38 -62q15 0 47 10z" />
    <glyph glyph-name="f_lcaron.liga" unicode="f&#x13e;" horiz-adv-x="778" 
d="M698 686q8 23 62 25q50 2 56 -15q1 -5 -2 -10l-75 -131q-14 -23 -55 -24q-35 -1 -36 17l1 7zM687 105q25 9 31 -21q6 -35 -15 -60q-7 -8 -16 -12q-54 -19 -91 -19q-111 0 -111 136v426q-42 21 -85.5 30t-82.5 4t-63.5 -33t-24.5 -77v-31h129q27 0 16 -36q-11 -38 -42 -58
q-13 -9 -25 -9h-78v-322q0 -19 -29.5 -26.5t-59 0t-29.5 26.5v322h-61q-19 0 -26.5 25.5t0 51.5t26.5 26h61v25q0 164 140 206q103 31 231 -10q92 -30 115 -70q5 -9 5 -16v-426q0 -62 38 -62q15 0 47 10z" />
    <glyph glyph-name="f_lcommaaccent.liga" unicode="f&#x13c;" horiz-adv-x="746" 
d="M687 105q25 9 31 -21q6 -35 -15 -60q-7 -8 -16 -12q-54 -19 -91 -19q-111 0 -111 136v426q-42 21 -85.5 30t-82.5 4t-63.5 -33t-24.5 -77v-31h129q27 0 16 -36q-11 -38 -42 -58q-13 -9 -25 -9h-78v-322q0 -19 -29.5 -26.5t-59 0t-29.5 26.5v322h-61q-19 0 -26.5 25.5
t0 51.5t26.5 26h61v25q0 164 140 206q103 31 231 -10q92 -30 115 -70q5 -9 5 -16v-426q0 -62 38 -62q15 0 47 10zM536 -61q8 23 62 26q49 2 55 -16q2 -5 -1 -10l-75 -130q-14 -24 -55 -25q-35 -1 -36 18l1 7z" />
    <glyph glyph-name="f_ldot.liga" unicode="f&#x140;" horiz-adv-x="801" 
d="M687 105q25 9 31 -21q6 -35 -15 -60q-7 -8 -16 -12q-54 -19 -91 -19q-111 0 -111 136v426q-42 21 -85.5 30t-82.5 4t-63.5 -33t-24.5 -77v-31h129q27 0 16 -36q-11 -38 -42 -58q-13 -9 -25 -9h-78v-322q0 -19 -29.5 -26.5t-59 0t-29.5 26.5v322h-61q-19 0 -26.5 25.5
t0 51.5t26.5 26h61v25q0 164 140 206q103 31 231 -10q92 -30 115 -70q5 -9 5 -16v-426q0 -62 38 -62q15 0 47 10zM709 413q28 0 45.5 -17.5t17.5 -44.5q0 -28 -17.5 -45t-45.5 -17q-29 0 -47.5 17t-18.5 45q0 27 18.5 44.5t47.5 17.5z" />
    <glyph glyph-name=".notdef" horiz-adv-x="543" 
d="M58 0v630h427v-630h-427zM109 51h325v528h-325v-528zM327 393q0 26 -19.5 40.5t-58 10t-86.5 -29.5q-14 -7 -16 15q-3 30 12 44q2 2 4 3q52 27 106.5 28.5t91.5 -25t37 -76.5q0 -37 -20.5 -59t-44.5 -29.5t-44.5 -24.5t-20.5 -44q0 -12 -18 -17t-35.5 0t-17.5 16
q0 40 20.5 63t44.5 30t44.5 20t20.5 35zM233 118q-17 0 -28 10.5t-11 26.5t11 26.5t28 10.5t27.5 -10.5t10.5 -26.5t-10.5 -26.5t-27.5 -10.5z" />
    <glyph glyph-name=".null" 
 />
    <glyph glyph-name="nonmarkingreturn" horiz-adv-x="333" 
 />
    <glyph glyph-name="space" unicode=" " horiz-adv-x="239" 
 />
    <glyph glyph-name="exclam" unicode="!" horiz-adv-x="247" 
d="M69 220l-9 355q-1 28 47 53t72 13q9 -5 9 -16l-9 -405q0 -19 -27.5 -26.5t-55 0t-27.5 26.5zM125 -6q-29 0 -47 17t-18 45q0 27 18 44.5t47 17.5q28 0 45.5 -17.5t17.5 -44.5q0 -28 -17.5 -45t-45.5 -17z" />
    <glyph glyph-name="quotedbl" unicode="&#x22;" horiz-adv-x="398" 
d="M113 667q14 13 35.5 12t38 -14t8.5 -28q-41 -73 -41 -151q0 -20 -28.5 -28t-57 0t-28.5 28q0 87 73 181zM288 667q14 13 35.5 12t38.5 -14t8 -28q-41 -73 -41 -151q0 -20 -28.5 -28t-56.5 0t-28 28q0 88 72 181z" />
    <glyph glyph-name="numbersign" unicode="#" horiz-adv-x="665" 
d="M629 493q27 0 18 -32q-10 -33 -39 -51q-13 -7 -24 -7h-60l-49 -161h75q27 0 18 -32q-10 -33 -39 -50q-13 -8 -25 -8h-56l-40 -132q-7 -23 -53 -26q-42 -3 -50 16q-2 4 0 10l40 132h-134l-40 -132q-7 -23 -51 -26q-43 -3 -51 16q-2 4 0 10l40 132h-60q-18 0 -26 22.5t0 45
t26 22.5h87l49 161h-57q-19 0 -26.5 22.5t0 45t26.5 22.5h84l36 118q7 23 52 25q44 3 51 -16q1 -4 0 -9l-36 -118h133l36 118q7 23 53 25q44 3 50 -16v-9l-36 -118h78zM372 242l49 161h-133l-49 -161h133z" />
    <glyph glyph-name="dollar" unicode="$" horiz-adv-x="518" 
d="M489 182q0 -80 -50 -127.5t-131 -58.5v-53q0 -18 -26 -26t-51.5 0t-25.5 26v54q-72 11 -140 44q-25 11 -30 59q-4 44 15 50q5 2 13 -2q107 -54 192 -54q54 0 85 22.5t31 63.5q0 19 -8.5 34t-19 23.5t-32.5 16.5t-37.5 11.5t-44.5 9.5q-38 8 -57.5 13t-51.5 18.5t-48 30
t-29 45t-13 66.5q0 80 48.5 127.5t126.5 59.5v11q0 30 42 55q39 25 56 10q5 -5 5 -14v-63q74 -11 135 -44q24 -12 28 -59q4 -43 -14 -48q-5 -1 -12 2q-111 57 -194 57q-49 0 -77 -22t-28 -63q0 -23 10 -39t33.5 -26t41 -14.5t54.5 -11.5q38 -7 59 -12t53 -19t49 -31.5
t30 -49t13 -72.5z" />
    <glyph glyph-name="percent" unicode="%" horiz-adv-x="760" 
d="M246 22q-16 -26 -73 -28q-49 -2 -54 17q-2 5 2 11q176 291 432 590q22 25 81 27q50 1 50 -17q-1 -5 -5 -10q-271 -321 -433 -590zM182 327q-72 0 -115.5 42.5t-43.5 112.5t43.5 112.5t115.5 42.5t115.5 -42.5t43.5 -112.5t-43.5 -112.5t-115.5 -42.5zM182 399q26 0 41 22
t15 61t-15 61t-41 22q-27 0 -41.5 -22t-14.5 -61t14.5 -61t41.5 -22zM577 -7q-72 0 -115 42.5t-43 112.5t43 112.5t115 42.5t115.5 -42.5t43.5 -112.5t-43.5 -112.5t-115.5 -42.5zM577 65q26 0 41 22t15 61t-15 61t-41 22t-41 -22t-15 -61t15 -61t41 -22z" />
    <glyph glyph-name="ampersand" unicode="&#x26;" horiz-adv-x="606" 
d="M566 372q18 0 26 -25t0 -50.5t-26 -25.5h-58v-75q0 -96 -72 -149.5t-170 -53.5q-96 0 -166 48.5t-70 134.5q0 120 134 146q-126 23 -126 146q0 82 59.5 126t150.5 44q96 0 183 -45q22 -10 27 -56q4 -43 -15 -47q-5 -1 -11 2q-100 50 -176 50q-48 0 -74.5 -20.5
t-26.5 -56.5q0 -53 48 -73t137 -20h226zM390 196v75h-50q-93 0 -143 -21t-50 -74q0 -41 34.5 -65t81.5 -24q52 0 89.5 28.5t37.5 80.5z" />
    <glyph glyph-name="quotesingle" unicode="'" horiz-adv-x="222" 
d="M113 667q14 13 35.5 12t38 -14t8.5 -28q-41 -73 -41 -151q0 -20 -28.5 -28t-57 0t-28.5 28q0 87 73 181z" />
    <glyph glyph-name="parenleft" unicode="(" horiz-adv-x="272" 
d="M149 -41q-113 166 -112.5 323t112.5 323q19 28 59 24q28 -2 29 -17l-2 -7q-82 -165 -82 -323t82 -323q9 -17 -17 -23q-35 -9 -60 13q-5 5 -9 10z" />
    <glyph glyph-name="parenright" unicode=")" horiz-adv-x="272" 
d="M123 -41q-20 -28 -60 -25q-27 3 -28 18q0 3 2 7q82 165 82 323t-82 323q-9 16 17 23q35 8 60 -13q5 -5 9 -10q112 -166 112.5 -323t-112.5 -323z" />
    <glyph glyph-name="asterisk" unicode="*" horiz-adv-x="433" 
d="M365 572q17 6 30.5 -11.5t12.5 -39.5t-19 -28l-105 -35l65 -90q11 -15 -2 -34t-32.5 -24t-32.5 9l-66 90l-66 -90q-13 -14 -32.5 -9t-32.5 24t-2 34l65 90l-105 35q-18 6 -19 28t12.5 39.5t30.5 11.5l107 -35v112q0 19 21 26.5t42 0t21 -26.5v-112z" />
    <glyph glyph-name="plus" unicode="+" horiz-adv-x="480" 
d="M442 343q27 0 16 -36q-11 -38 -42 -58q-13 -9 -25 -9h-94v-131q0 -19 -29.5 -26.5t-59 0t-29.5 26.5v131h-129q-19 0 -26.5 26t0 51.5t26.5 25.5h129v128q0 19 29.5 26.5t59 0t29.5 -26.5v-128h145z" />
    <glyph glyph-name="comma" unicode="," horiz-adv-x="264" 
d="M110 -119q-12 -14 -29.5 -14t-30.5 13.5t-7 29.5q35 90 35 197q0 20 26.5 28.5t53.5 0t27 -28.5q0 -115 -75 -226z" />
    <glyph glyph-name="hyphen" unicode="-" horiz-adv-x="360" 
d="M57 240q-19 0 -26.5 26t0 51.5t26.5 25.5h265q27 0 16 -36q-11 -38 -42 -58q-13 -9 -25 -9h-214z" />
    <glyph glyph-name="period" unicode="." horiz-adv-x="248" 
d="M125 -7q-29 0 -47.5 17t-18.5 45t18.5 45.5t47.5 17.5q28 0 46 -17.5t18 -45.5t-18 -45t-46 -17z" />
    <glyph glyph-name="slash" unicode="/" horiz-adv-x="430" 
d="M29 -44q107 379 254 696q10 23 64 25q49 1 54 -17q1 -4 -1 -8q-147 -317 -254 -696q-6 -23 -57 -26q-50 -3 -59 17q-2 4 -1 9z" />
    <glyph glyph-name="zero" unicode="0" horiz-adv-x="589" 
d="M294 -7q-121 0 -188.5 85t-67.5 237t67.5 237.5t188.5 85.5t189 -85.5t68 -237.5t-68 -237t-189 -85zM294 79q62 0 97.5 62.5t35.5 173.5q0 112 -35.5 174.5t-97.5 62.5t-97 -62.5t-35 -174.5t35 -174t97 -62z" />
    <glyph glyph-name="one" unicode="1" horiz-adv-x="436" 
d="M271 620q17 12 36.5 17.5t33 1t13.5 -19.5v-596q0 -18 -29.5 -26t-59 0t-29.5 26v448l-167 -115q-19 -14 -36 21q-20 40 -7 68q3 8 9 12z" />
    <glyph glyph-name="two" unicode="2" horiz-adv-x="514" 
d="M409 103q30 0 55 -42q24 -39 9 -56q-5 -5 -14 -5h-407q-22 0 -22 51q0 45 13.5 83.5t30.5 63.5t49.5 51t53 39t58.5 34q33 18 49.5 29t37.5 28t30 36t9 41q0 39 -26 60.5t-73 21.5q-75 0 -188 -57q-24 -13 -30 21q-7 40 14 72q7 11 17 16q94 48 187 48q94 0 155 -49
t61 -141q0 -41 -12 -72.5t-38.5 -55t-47.5 -37t-59 -32.5q-29 -15 -42.5 -22t-37.5 -22t-36.5 -28t-25.5 -33t-19 -43h249z" />
    <glyph glyph-name="three" unicode="3" horiz-adv-x="523" 
d="M345 322q61 -10 97.5 -46.5t36.5 -100.5q0 -89 -64 -135.5t-161 -46.5q-102 0 -196 47q-24 12 -29 61q-4 45 15 49q5 1 12 -2q114 -54 197 -54q50 0 79 21t29 58q0 56 -51.5 77.5t-148.5 21.5q-17 0 -24.5 25t0 50.5t24.5 25.5q93 0 142.5 18t49.5 66q0 39 -29.5 61
t-81.5 22q-80 0 -186 -53q-23 -11 -27 22q-4 40 16 69q6 8 13 12q92 47 194 47q94 0 156.5 -44.5t62.5 -128.5q0 -117 -126 -142z" />
    <glyph glyph-name="four" unicode="4" horiz-adv-x="569" 
d="M532 259q27 0 16 -34q-11 -36 -42 -56q-13 -8 -25 -8h-34v-138q0 -19 -28 -26.5t-56 0t-28 26.5v138h-290q-21 0 -31 10.5t-8.5 25.5t6.5 29t12 24l242 345q30 41 101 41q80 0 80 -38v-339h85zM143 259h192v271z" />
    <glyph glyph-name="five" unicode="5" horiz-adv-x="530" 
d="M267 394q106 0 168.5 -46.5t62.5 -149.5q0 -96 -68 -150.5t-168 -54.5q-102 0 -189 48q-25 13 -29 63q-3 45 16 48q5 0 11 -3q94 -52 181 -52q58 0 93 27.5t35 73.5q0 104 -154 104q-57 0 -138 -13q-34 -5 -34 31v260q0 19 6.5 34.5t15.5 15.5h379q27 0 16 -36
q-11 -38 -41 -58q-13 -9 -25 -9h-232v-140q56 7 94 7z" />
    <glyph glyph-name="six" unicode="6" horiz-adv-x="584" 
d="M311 -7q-134 0 -203.5 70t-69.5 206q0 182 71 275t210 93q105 0 170 -46q20 -14 20 -54q1 -35 -18 -34q-5 0 -10 3q-69 38 -147 38q-153 0 -173 -195q53 46 150 46q113 0 173.5 -52t60.5 -150q0 -96 -60.5 -148t-173.5 -52zM298 81q64 0 98.5 29t34.5 83t-32 83.5
t-92 29.5q-52 0 -94 -18t-55 -43q4 -86 37.5 -125t102.5 -39z" />
    <glyph glyph-name="seven" unicode="7" horiz-adv-x="543" 
d="M512 630q15 0 19.5 -21t0 -44.5t-12.5 -33.5q-155 -202 -301 -512q-11 -22 -68 -24q-56 -2 -64 18q-2 5 1 11q138 301 295 503h-300q-30 0 -55 42q-24 39 -9 56q5 5 14 5h480z" />
    <glyph glyph-name="eight" unicode="8" horiz-adv-x="590" 
d="M442 337q108 -44 108 -160q0 -86 -66.5 -135t-188.5 -49q-121 0 -188 49t-67 135q0 115 108 160q-89 41 -89 137q0 77 62.5 120t173.5 43q112 0 174 -43t62 -120q0 -96 -89 -137zM295 550q-55 0 -86.5 -22.5t-31.5 -62.5q0 -42 31.5 -65t86.5 -23q56 0 87.5 23t31.5 65
q0 40 -31.5 62.5t-87.5 22.5zM295 88q64 0 101 26t37 72q0 47 -36.5 73t-101.5 26t-101 -26t-36 -73q0 -46 36.5 -72t100.5 -26z" />
    <glyph glyph-name="nine" unicode="9" horiz-adv-x="584" 
d="M273 637q134 0 203 -71t69 -208q0 -365 -285 -365q-55 0 -103.5 14t-72.5 32q-20 14 -21 54q0 35 19 34q4 0 10 -3q25 -14 68.5 -26t83.5 -12q85 0 128 50t52 152q-55 -53 -151 -53q-113 0 -174 52.5t-61 149.5q0 95 61.5 147.5t173.5 52.5zM278 324q50 0 92 21t57 50
q-7 80 -41 117t-100 37q-64 0 -98.5 -29t-34.5 -83t32 -83.5t93 -29.5z" />
    <glyph glyph-name="colon" unicode=":" horiz-adv-x="248" 
d="M125 337q-29 0 -47.5 17.5t-18.5 45.5q0 27 18.5 44t47.5 17q28 0 46 -17t18 -44q0 -28 -18 -45.5t-46 -17.5zM125 -7q-29 0 -47.5 17.5t-18.5 45.5q0 27 18.5 44.5t47.5 17.5q28 0 46 -17.5t18 -44.5q0 -28 -18 -45.5t-46 -17.5z" />
    <glyph glyph-name="semicolon" unicode=";" horiz-adv-x="252" 
d="M128 461q29 0 46.5 -17t17.5 -45q0 -27 -18 -44.5t-46 -17.5t-46 17.5t-18 44.5q0 28 17.5 45t46.5 17zM107 -119q-12 -14 -29 -14t-30 13.5t-7 29.5q35 90 35 197q0 20 26.5 28.5t53 0t26.5 -28.5q0 -113 -75 -226z" />
    <glyph glyph-name="less" unicode="&#x3c;" horiz-adv-x="441" 
d="M382 492q18 5 26 -25q10 -41 -7 -74q-8 -15 -19 -18q-124 -36 -228 -88q112 -55 228 -88q25 -6 29 -57q3 -48 -16 -60q-6 -3 -13 -1q-101 30 -207.5 79.5t-152.5 87.5q-9 10 -9 38t9 39q45 38 151.5 87t208.5 80z" />
    <glyph glyph-name="equal" unicode="=" horiz-adv-x="489" 
d="M57 342q-19 0 -26.5 25.5t0 51t26.5 25.5h392q27 0 16 -36q-12 -38 -43 -58q-13 -8 -24 -8h-341zM57 140q-19 0 -26.5 26t0 51.5t26.5 25.5h392q27 0 16 -36q-11 -38 -42 -58q-13 -9 -25 -9h-341z" />
    <glyph glyph-name="greater" unicode="&#x3e;" horiz-adv-x="442" 
d="M59 492q102 -31 208.5 -80t151.5 -87q9 -11 9 -39t-9 -38q-46 -38 -152.5 -87.5t-207.5 -79.5q-19 -6 -26 25q-10 42 7 75q9 15 19 18q114 32 228 88q-107 53 -228 88q-25 6 -28 56q-4 49 16 60q5 3 12 1z" />
    <glyph glyph-name="question" unicode="?" horiz-adv-x="466" 
d="M325 454q0 39 -27.5 61t-77.5 22q-74 0 -170 -50q-22 -12 -26 22q-5 40 15 69q6 8 13 12q89 47 184 47q89 0 147.5 -43.5t58.5 -124.5q0 -34 -9.5 -59.5t-28.5 -43t-35.5 -27t-43.5 -21.5t-39 -19t-29.5 -20t-24.5 -30.5t-7 -41.5q0 -19 -29.5 -27t-59 -0.5t-29.5 26.5
q0 39 10.5 67.5t34 47.5t40 27.5t47.5 21.5q28 11 43.5 19.5t29 25t13.5 39.5zM166 -7q-29 0 -47 17t-18 45t18 45.5t47 17.5q28 0 46 -17.5t18 -45.5t-18 -45t-46 -17z" />
    <glyph glyph-name="at" unicode="@" horiz-adv-x="832" 
d="M424 595q163 0 263.5 -95t100.5 -236q0 -113 -55.5 -177t-122.5 -64q-35 0 -60 20t-32 56q-53 -42 -134 -42q-59 0 -93.5 30t-34.5 82q0 51 37 82t99 31q83 0 124 -22v5q0 43 -23 61t-77 18q-74 0 -128 -33q-18 -11 -21 15q-4 33 15 55q53 43 159 43q80 0 123 -34
t43 -112v-146q0 -22 19 -22q22 0 43 35.5t21 103.5q0 109 -66.5 182.5t-199.5 73.5q-91 0 -156 -39.5t-94 -98.5t-29 -127q0 -101 66 -175t180 -74q53 0 113 19q16 5 26 -12.5t7.5 -39t-17.5 -26.5q-86 -26 -153 -26q-77 0 -139.5 28.5t-102 76.5t-61 107.5t-21.5 124.5
q0 67 23.5 129t69 112.5t120 80.5t168.5 30zM414 127q69 0 102 40v28q-22 19 -98 19q-71 0 -71 -44q0 -43 67 -43z" />
    <glyph glyph-name="A" unicode="A" horiz-adv-x="627" 
d="M606 23q7 -20 -27 -28q-46 -10 -85 8q-17 8 -21 20q-15 50 -45 144h-229q-30 -94 -45 -144q-8 -26 -63 -30q-53 -4 -68 15q-5 7 -2 15q58 175 145.5 368t133.5 242q5 5 13.5 5t13.5 -5q46 -49 133.5 -242t145.5 -368zM233 266h161q-36 99 -80 195q-44 -92 -81 -195z" />
    <glyph glyph-name="B" unicode="B" horiz-adv-x="555" 
d="M385 328q66 -8 103 -47t37 -104q0 -86 -72.5 -135t-199.5 -49q-88 0 -141.5 15t-53.5 38v538q0 24 49 38.5t133 14.5q124 0 195 -45.5t71 -123.5q0 -57 -32.5 -94t-88.5 -46zM251 539q-48 0 -75 -6v-159h77q135 0 135 84q0 81 -137 81zM268 92q139 0 139 92q0 93 -152 93
h-80v-177q32 -8 93 -8z" />
    <glyph glyph-name="C" unicode="C" horiz-adv-x="541" 
d="M33 314q0 160 78.5 241.5t211.5 81.5q55 0 103.5 -14t72.5 -32q22 -15 21 -61q-1 -39 -20 -38l-9 3q-25 15 -68.5 27t-84.5 12q-79 0 -130.5 -55t-51.5 -165q0 -109 51.5 -163.5t130.5 -54.5q40 0 84 12t69 26q21 12 27 -21q8 -39 -10 -66q-4 -6 -9 -9
q-24 -18 -72.5 -31.5t-103.5 -13.5q-133 0 -211.5 81.5t-78.5 239.5z" />
    <glyph glyph-name="D" unicode="D" horiz-adv-x="595" 
d="M260 637q148 0 228 -84t80 -238t-77 -238t-218 -84q-155 0 -201 32q-14 11 -14 21v538q0 15 19 25q47 28 183 28zM266 96q183 0 183 219q0 220 -188 220q-58 0 -85 -8l-1 -423q27 -8 91 -8z" />
    <glyph glyph-name="E" unicode="E" horiz-adv-x="513" 
d="M457 103q19 0 26.5 -25.5t0 -51.5t-26.5 -26h-377q-22 0 -22 44v544q0 17 6 29.5t16 12.5h386q27 0 16 -36q-11 -38 -42 -58q-13 -9 -25 -9h-240v-157h212q18 0 26 -26t0 -51.5t-26 -25.5h-213v-164h283z" />
    <glyph glyph-name="F" unicode="F" horiz-adv-x="505" 
d="M464 630q27 0 16 -36q-11 -38 -41 -58q-13 -9 -25 -9h-239v-157h209q19 0 26.5 -26t0 -51.5t-26.5 -25.5h-210v-244q0 -19 -29 -26.5t-58 0t-29 26.5v565q0 17 6 29.5t16 12.5h384z" />
    <glyph glyph-name="G" unicode="G" horiz-adv-x="590" 
d="M499 348q21 0 37 -6t16 -16v-222q0 -49 -19 -66q-22 -19 -75 -32t-118 -13q-140 0 -223.5 81t-83.5 240q0 160 82 241.5t220 81.5q61 0 112.5 -13t73.5 -33q20 -19 19 -63q-1 -37 -19 -34q-4 0 -8 3q-24 16 -71 28t-89 12q-92 0 -147.5 -55.5t-55.5 -167.5
q0 -111 57 -166t148 -55q39 0 81 8v145h-132q-25 0 -12 38q14 39 43 57q10 7 19 7h145z" />
    <glyph glyph-name="H" unicode="H" horiz-adv-x="662" 
d="M618 105q23 11 30 -19q7 -34 -13 -61q-7 -9 -17 -13q-34 -13 -62.5 -16t-54 6.5t-40 40.5t-14.5 82v73v72h-272v-247q0 -19 -29.5 -26.5t-58.5 0t-29 26.5v552q0 29 46 54q45 25 64 11q7 -5 7 -15v-252h272v235q0 19 29.5 26.5t59.5 0t30 -26.5v-428v-38q0 -56 52 -37z
" />
    <glyph glyph-name="I" unicode="I" horiz-adv-x="303" 
d="M93 23v551q0 29 46 54q44 24 65 11q7 -5 7 -15v-601q0 -19 -29.5 -26.5t-59 0t-29.5 26.5z" />
    <glyph glyph-name="J" unicode="J" horiz-adv-x="444" 
d="M45 29q-25 12 -28 55q-3 36 15 40q6 1 13 -3q61 -34 111 -34q53 0 82 43t29 122v323q0 28 47 53q46 25 65 11q7 -4 7 -14v-404q0 -113 -54.5 -170.5t-141.5 -57.5q-72 0 -145 36z" />
    <glyph glyph-name="K" unicode="K" horiz-adv-x="595" 
d="M451 604q20 27 79 31q49 2 53 -16q2 -6 -4 -14q-141 -200 -252 -313q33 -24 69 -86q10 -16 16 -25.5t16 -23t17.5 -21t17.5 -15t19.5 -10.5t21 -2.5t23.5 5.5q17 7 24 -23q9 -42 -8 -73q-6 -12 -15 -15q-26 -9 -49 -10.5t-42 6.5t-34 17.5t-30 29t-25 34t-24 38.5
q-45 76 -74 100q-36 -32 -75 -63v-132q0 -19 -29.5 -26.5t-58.5 0t-29 26.5v551q0 29 46 54q45 25 64 11q7 -5 7 -15v-334q136 123 276 314z" />
    <glyph glyph-name="L" unicode="L" horiz-adv-x="505" 
d="M455 102q18 0 26 -25.5t0 -51t-26 -25.5h-375q-22 0 -22 43v532q0 29 46 54q44 24 63 11q7 -5 7 -15v-523h281z" />
    <glyph glyph-name="M" unicode="M" horiz-adv-x="783" 
d="M738 99q23 11 30 -18q8 -35 -13 -62q-8 -9 -17 -13q-43 -17 -75 -17q-94 0 -94 130v73v196q-49 -88 -97.5 -156.5t-76.5 -87.5q-23 -14 -47 0q-28 19 -76 87.5t-97 155.5v-364q0 -19 -29.5 -26.5t-58.5 0t-29 26.5v585q0 28 54.5 30t61.5 -17q90 -200 198 -336
q116 148 198 336q7 19 61.5 17t54.5 -30v-433v-39q0 -42 29 -42q12 0 23 5z" />
    <glyph glyph-name="N" unicode="N" horiz-adv-x="657" 
d="M481 574q0 29 46 54q44 24 65 11q7 -5 7 -15v-601q0 -19 -26.5 -26t-55.5 -2.5t-35 16.5q-74 152 -142 250t-165 200v-438q0 -19 -29.5 -26.5t-58.5 0t-29 26.5v584q0 27 49 31t62 -12q187 -177 312 -386v334z" />
    <glyph glyph-name="O" unicode="O" horiz-adv-x="658" 
d="M329 -7q-139 0 -217.5 85t-78.5 237t78 237.5t218 85.5t218 -85.5t78 -237.5t-78.5 -237t-217.5 -85zM329 96q82 0 127.5 58t45.5 161q0 104 -45.5 162t-127.5 58t-127.5 -58t-45.5 -162t45.5 -161.5t127.5 -57.5z" />
    <glyph glyph-name="P" unicode="P" horiz-adv-x="551" 
d="M265 637q124 0 192.5 -60t68.5 -171q0 -95 -56 -158t-172 -63q-55 0 -123 16v-178q0 -18 -29.5 -26t-58.5 -0.5t-29 26.5v561q0 13 22 25t70.5 20t114.5 8zM277 279q130 0 130 128q0 129 -140 129q-50 0 -92 -13v-229q60 -15 102 -15z" />
    <glyph glyph-name="Q" unicode="Q" horiz-adv-x="660" 
d="M594 -84q25 -17 -14 -35q-43 -19 -82 -11q-12 2 -18 8q-51 44 -81 121q-33 -6 -71 -6q-139 0 -217 85.5t-78 236.5q0 152 78 237.5t217 85.5q140 0 218.5 -85.5t78.5 -237.5q0 -203 -135 -282q33 -64 104 -117zM156 315q0 -104 45 -161.5t127 -57.5t128 57.5t46 161.5
t-46 162t-128 58t-127 -58t-45 -162z" />
    <glyph glyph-name="R" unicode="R" horiz-adv-x="555" 
d="M473 108q22 8 28 -26q7 -41 -12 -69q-6 -10 -15 -13q-36 -13 -58 -13q-23 0 -41.5 9t-36.5 29.5t-28 35.5t-28 45q-20 32 -31 48t-32.5 39t-43.5 35v-205q0 -19 -29.5 -26.5t-58.5 0t-29 26.5v561q0 13 21 25t68 20t111 8q127 0 197.5 -52.5t70.5 -149.5
q0 -100 -50.5 -151.5t-151.5 -56.5q7 -10 38 -56q16 -23 25.5 -35t25.5 -23t32 -11q13 0 28 6zM269 536q-49 0 -94 -14v-199q60 -12 102 -12q130 0 130 115q0 110 -138 110z" />
    <glyph glyph-name="S" unicode="S" horiz-adv-x="518" 
d="M146 457q0 -23 10 -39t33.5 -26t41 -14.5t54.5 -11.5q38 -7 59 -12t53 -19t49 -31.5t30 -49t13 -72.5q0 -92 -65 -140.5t-164 -48.5t-195 48q-25 11 -30 59q-4 44 15 50q5 2 13 -2q107 -54 192 -54q54 0 85 22.5t31 63.5q0 19 -8.5 34t-19 23.5t-32.5 16.5t-37.5 11.5
t-44.5 9.5q-38 8 -57.5 13t-51.5 18.5t-48 30t-29 45t-13 66.5q0 92 63 141t159 49q100 0 191 -48q24 -12 28 -59q4 -43 -14 -48q-5 -1 -12 2q-111 57 -194 57q-49 0 -77 -22t-28 -63z" />
    <glyph glyph-name="T" unicode="T" horiz-adv-x="588" 
d="M535 630q18 0 26 -26t0 -51.5t-26 -25.5h-182v-504q0 -19 -31.5 -26.5t-63 0t-31.5 26.5v504h-141q-30 0 -55 42q-24 39 -9 56q5 5 14 5h499z" />
    <glyph glyph-name="U" unicode="U" horiz-adv-x="633" 
d="M58 266v309q0 29 46 54q45 25 64 11q7 -5 7 -15v-355q0 -75 35.5 -122.5t105.5 -47.5t105.5 47.5t35.5 122.5v338q0 19 29.5 26.5t58.5 0t29 -26.5v-342q0 -81 -23 -139.5t-82.5 -96t-152.5 -37.5t-152.5 37.5t-82.5 96t-23 139.5z" />
    <glyph glyph-name="V" unicode="V" horiz-adv-x="629" 
d="M22 604q-9 24 30 31q46 8 80 -12q14 -8 17 -19q59 -183 165 -431q105 241 166 431q8 26 61 32q51 4 64 -16q5 -7 2 -16q-67 -193 -143 -375.5t-111 -220.5q-17 -15 -39 -15t-38 15q-36 38 -111 219t-143 377z" />
    <glyph glyph-name="W" unicode="W" horiz-adv-x="859" 
d="M711 604q8 28 60 32q49 4 64 -16q5 -7 3 -16q-51 -180 -119.5 -368t-101.5 -228q-14 -16 -38 -16t-39 16q-36 44 -110 249q-74 -200 -111 -249q-14 -16 -38 -16t-39 16q-34 40 -101 225t-120 371q-6 23 30 31q44 9 78 -10q15 -8 18 -21q74 -277 133 -434q53 117 97 243
q-31 99 -58 191q-6 23 30 30q44 10 79 -9q15 -9 18 -21q64 -256 132 -434q68 174 133 434z" />
    <glyph glyph-name="X" unicode="X" horiz-adv-x="604" 
d="M371 343q108 -148 213 -321q11 -20 -27 -27q-48 -8 -87 11q-14 7 -19 16q-64 106 -149 226q-78 -111 -148 -226q-16 -26 -76 -29q-53 -2 -60 18q-1 5 2 11q100 165 214 321q-102 138 -213 269q-16 18 22 24q50 8 93 -10q15 -6 22 -14q76 -88 144 -177q63 83 143 177
q22 25 88 26q54 1 54 -16q0 -5 -4 -10q-115 -136 -212 -269z" />
    <glyph glyph-name="Y" unicode="Y" horiz-adv-x="624" 
d="M479 604q12 27 65 30q49 4 59 -16q3 -6 -1 -14q-111 -233 -232 -384v-197q0 -19 -29 -26.5t-58.5 0t-29.5 26.5v198q-120 151 -231 383q-11 22 26 29q44 8 80 -12q13 -8 18 -17q67 -147 166 -288q98 140 167 288z" />
    <glyph glyph-name="Z" unicode="Z" horiz-adv-x="577" 
d="M511 103q19 0 27 -25.5t0 -51.5t-27 -26h-452q-28 0 -33 38.5t9 56.5q155 256 345 432h-279q-30 0 -55 42q-24 39 -9 56q4 5 14 5h470q26 0 31 -40t-21 -59q-201 -185 -354 -428h334z" />
    <glyph glyph-name="bracketleft" unicode="[" horiz-adv-x="351" 
d="M287 27q18 0 26 -26t0 -51.5t-26 -25.5h-207q-22 0 -22 45v619q0 42 22 42h217q27 0 16 -36q-11 -38 -42 -58q-13 -9 -25 -9h-71l-1 -500h113z" />
    <glyph glyph-name="backslash" unicode="\" horiz-adv-x="430" 
d="M401 -44q4 -16 -22 -23q-40 -11 -75 5q-17 7 -20 18q-107 379 -254 696q-7 16 22 22q41 9 77 -7q14 -6 18 -15q147 -317 254 -696z" />
    <glyph glyph-name="bracketright" unicode="]" horiz-adv-x="351" 
d="M272 630q10 0 16 -12.5t6 -29.5v-619q0 -18 -6 -31.5t-16 -13.5h-207q-19 0 -26.5 26t0 51.5t26.5 25.5h111v500h-122q-27 0 -16 36q11 38 42 58q13 9 25 9h167z" />
    <glyph glyph-name="asciicircum" unicode="^" horiz-adv-x="546" 
d="M50 304q35 101 85.5 194.5t98.5 132.5q12 8 39 8t38 -8q48 -39 97.5 -131.5t86.5 -195.5q5 -15 -20 -21q-40 -10 -78 5q-16 6 -20 16q-43 115 -104 221q-61 -104 -105 -221q-8 -22 -61 -24q-51 -2 -57 16q-1 4 0 8z" />
    <glyph glyph-name="underscore" unicode="_" horiz-adv-x="537" 
d="M57 -202q-19 0 -26.5 24t0 47.5t26.5 23.5h442q27 0 16 -33q-11 -36 -42 -55q-12 -7 -24 -7h-392z" />
    <glyph glyph-name="grave" unicode="`" horiz-adv-x="316" 
d="M248 552q9 -17 -20 -21q-38 -5 -64 14l-7 7l-103 132q-15 19 24 26q48 8 87 -10q15 -7 20 -16z" />
    <glyph glyph-name="a" unicode="a" horiz-adv-x="572" 
d="M519 105q25 9 31 -22q7 -34 -15 -60q-7 -7 -16 -11q-42 -17 -75 -17q-59 0 -81 56q-64 -58 -164 -58q-75 0 -120 39.5t-45 106.5t48 107t128 40q91 0 141 -26v5q0 61 -27.5 86t-91.5 25q-88 0 -158 -41q-21 -13 -28 14q-8 32 12 58q4 5 8 8q66 55 202 55q97 0 148.5 -44
t51.5 -146v-123q0 -56 29 -56q11 0 22 4zM231 86q78 0 120 51v40q-32 23 -114 23q-43 0 -64 -16.5t-21 -41.5q0 -24 19 -40t60 -16z" />
    <glyph glyph-name="b" unicode="b" horiz-adv-x="550" 
d="M333 470q80 0 129 -65t49 -172q0 -109 -49 -174t-129 -65q-97 0 -163 60l-15 -40q-8 -22 -52.5 -21t-44.5 28v600q0 28 44 51q45 22 66 7q7 -5 7 -15v-247q64 53 158 53zM282 96q55 -1 83.5 34t28.5 103q0 66 -28.5 100.5t-83.5 33.5q-58 0 -107 -46v-176q47 -49 107 -49
z" />
    <glyph glyph-name="c" unicode="c" horiz-adv-x="472" 
d="M34 231q0 119 66 179.5t179 60.5q87 0 143 -45q20 -17 19 -64q-1 -39 -19 -37l-9 4q-57 39 -119 39q-143 0 -143 -137q0 -135 143 -135q64 0 119 38q22 14 27 -21q6 -40 -11 -67q-3 -5 -7 -8q-59 -45 -143 -45q-113 0 -179 60.5t-66 177.5z" />
    <glyph glyph-name="d" unicode="d" horiz-adv-x="597" 
d="M544 105q23 11 30 -19q8 -34 -13 -61q-7 -9 -17 -13q-44 -17 -76 -17q-65 0 -84 63q-66 -64 -168 -64q-80 0 -129 65.5t-49 173.5q0 106 49 171.5t129 65.5q95 0 159 -53v200q0 29 46 54q45 25 64 11q7 -5 7 -15v-469v-56q0 -42 29 -42q8 0 23 5zM267 96q60 0 108 50v175
q-49 46 -108 46q-54 1 -82 -33.5t-28 -100.5q0 -68 27.5 -103t82.5 -34z" />
    <glyph glyph-name="e" unicode="e" horiz-adv-x="514" 
d="M485 266q0 -34 -75 -57.5t-173 -23.5q-43 0 -84 6q1 -51 41 -78t96 -27q57 0 137 36q23 10 28 -22q6 -35 -13 -56q-3 -4 -6 -6q-70 -44 -155 -44q-102 0 -174 61t-72 180q0 109 59.5 172t171.5 63q109 0 164 -52t55 -152zM155 275q35 -4 75 -4q62 0 105 8.5t43 19.5
q0 38 -28 60t-79 22q-52 0 -83.5 -25.5t-32.5 -80.5z" />
    <glyph glyph-name="f" unicode="f" horiz-adv-x="429" 
d="M394 644q24 -14 25 -59q1 -39 -16 -40l-9 2q-60 35 -101 35q-64 0 -64 -95v-39h125q27 0 16 -36q-11 -38 -42 -58q-13 -9 -25 -9h-74v-322q0 -19 -29.5 -26.5t-59 0t-29.5 26.5v322h-61q-19 0 -26.5 25.5t0 51.5t26.5 26h61v42q0 92 46.5 140.5t118.5 48.5q60 0 118 -35z
" />
    <glyph glyph-name="g" unicode="g" horiz-adv-x="572" 
d="M545 512q17 0 19.5 -26t-9 -52t-28.5 -26q-35 -2 -59 -15q22 -32 22 -78q0 -73 -57 -113.5t-161 -40.5q-38 0 -69 6q-30 -13 -30 -36q0 -21 21.5 -29t61.5 -9q31 -1 46.5 -2t46 -4.5t48 -8.5t40.5 -14.5t35.5 -22.5t21.5 -32.5t9 -44.5q0 -79 -57 -125.5t-162 -46.5
q-115 0 -172 42.5t-57 109.5q0 53 38 88q-38 23 -38 68q0 66 68 94q-69 41 -69 121q0 74 57.5 115t160.5 41q87 0 144 -30q50 70 129 71zM272 246q48 0 74.5 18t26.5 51q0 34 -26.5 52.5t-74.5 18.5t-74 -18.5t-26 -52.5q0 -33 26.5 -51t73.5 -18zM198 7q-25 -17 -25 -55
q0 -34 30 -54.5t81 -20.5q47 0 74.5 20t27.5 54q0 24 -20.5 36t-44 14.5t-67.5 3.5h-3.5h-3.5q-34 2 -49 2z" />
    <glyph glyph-name="h" unicode="h" horiz-adv-x="606" 
d="M554 99q23 11 30 -19q8 -34 -13 -61q-8 -9 -17 -13q-46 -17 -77 -17q-93 0 -93 130v78v64q0 106 -92 106q-68 0 -125 -67v-277q0 -19 -29.5 -26.5t-59 0t-29.5 26.5v594q0 29 46 53q44 25 65 11q7 -5 7 -15v-264q69 68 173 68q75 0 118.5 -44.5t43.5 -123.5v-127v-39
q0 -42 28 -42q13 0 24 5z" />
    <glyph glyph-name="i" unicode="i" horiz-adv-x="270" 
d="M124 546q-32 0 -50.5 19.5t-18.5 53.5q0 32 19 51.5t50 19.5q30 0 49 -20t19 -51q0 -33 -19 -53t-49 -20zM206 103q24 10 30 -20q7 -34 -14 -61q-7 -9 -16 -13q-32 -15 -63 -15q-36 0 -57.5 24.5t-21.5 74.5v314q0 29 46 54q44 25 65 11q7 -5 7 -15v-335q0 -21 15 -21
q3 0 9 2z" />
    <glyph glyph-name="j" unicode="j" horiz-adv-x="305" 
d="M181 546q-31 0 -50 20t-19 53q0 32 19 51.5t50 19.5t49.5 -19.5t18.5 -51.5q0 -34 -18.5 -53.5t-49.5 -19.5zM-32 -159q-24 14 -25 59q0 36 17 36l8 -2q43 -23 79 -23q76 0 76 116v380q0 29 46 54q45 25 64 11q7 -5 7 -15v-462q0 -90 -44.5 -137.5t-112.5 -47.5
q-59 0 -115 31z" />
    <glyph glyph-name="k" unicode="k" horiz-adv-x="520" 
d="M465 104q23 9 30 -24q9 -38 -11 -64q-7 -9 -16 -12q-25 -8 -46 -10t-39 5t-31.5 15t-27.5 24.5t-22.5 29t-21.5 33.5q-38 56 -51 71q-30 -23 -54 -41v-108q0 -19 -29.5 -26.5t-58.5 0t-29 26.5v593q0 29 46 54q45 25 64 11q7 -5 7 -15v-414q56 45 97 85.5t91 101.5
q22 27 83 29q49 1 52 -17q1 -5 -4 -12q-93 -117 -189 -203q15 -17 41 -61q9 -15 15 -23.5t15 -20t18 -17.5t20 -11t23.5 -4.5t27.5 5.5z" />
    <glyph glyph-name="l" unicode="l" horiz-adv-x="334" 
d="M274 105q25 9 31 -21q6 -35 -15 -60q-7 -8 -16 -12q-54 -19 -91 -19q-111 0 -111 136v481q0 30 46 55q44 24 64 11q7 -5 7 -16v-503q0 -62 38 -62q15 0 47 10z" />
    <glyph glyph-name="m" unicode="m" horiz-adv-x="880" 
d="M828 99q23 11 29 -19q8 -34 -13 -61q-7 -9 -16 -13q-46 -17 -77 -17q-93 0 -93 130v78v64q0 106 -85 106q-54 0 -102 -63v-2v-279q0 -19 -29 -26.5t-58.5 0t-29.5 26.5v238q0 106 -84 106q-54 0 -104 -65v-279q0 -19 -29 -26.5t-58.5 0t-29.5 26.5v419q0 27 45.5 28
t52.5 -21l16 -48q65 69 156 69q98 0 136 -82q66 82 167 82q71 0 112 -44.5t41 -123.5v-136v-29q0 -43 30 -43q12 0 23 5z" />
    <glyph glyph-name="n" unicode="n" horiz-adv-x="607" 
d="M555 99q23 11 29 -19q8 -34 -13 -61q-7 -9 -16 -13q-46 -17 -78 -17q-92 0 -92 130v78v64q0 106 -93 106q-66 0 -126 -68v-276q0 -19 -29 -26.5t-58.5 0t-29.5 26.5v418q0 18 22.5 25t46.5 1.5t29 -18.5l16 -51q73 72 178 72q75 0 118 -44.5t43 -123.5v-128v-37
q0 -43 30 -43q12 0 23 5z" />
    <glyph glyph-name="o" unicode="o" horiz-adv-x="540" 
d="M270 -7q-112 0 -174 62.5t-62 175.5t62 176.5t174 63.5t174 -63.5t62 -176.5t-62 -175.5t-174 -62.5zM270 81q56 0 87.5 39t31.5 111q0 73 -31 112.5t-88 39.5t-88 -39.5t-31 -112.5q0 -72 31.5 -111t87.5 -39z" />
    <glyph glyph-name="p" unicode="p" horiz-adv-x="541" 
d="M325 470q80 0 129 -66t49 -174q0 -107 -49 -171.5t-129 -64.5q-95 0 -159 53v-226q0 -18 -29.5 -26t-59 0t-29.5 26v620q0 27 45.5 28.5t52.5 -20.5l15 -40q66 61 164 61zM274 96q111 0 111 135q0 137 -111 137q-61 -2 -108 -50v-175q49 -45 108 -47z" />
    <glyph glyph-name="q" unicode="q" horiz-adv-x="541" 
d="M395 449q6 13 30 18.5t46 -1.5t22 -25v-620q0 -18 -29 -26t-58.5 0t-29.5 26v226q-66 -53 -160 -53q-80 0 -129 64.5t-49 171.5q0 108 49 174t129 66q101 0 165 -62zM267 96q61 2 109 48v173q-46 49 -109 51q-110 0 -110 -137q0 -135 110 -135z" />
    <glyph glyph-name="r" unicode="r" horiz-adv-x="374" 
d="M339 466q17 0 18.5 -27.5t-11 -56t-29.5 -28.5q-93 -5 -151 -67v-264q0 -19 -29.5 -26.5t-59 0t-29.5 26.5v416q0 18 24 25.5t49.5 2.5t28.5 -19l15 -61q62 76 174 79z" />
    <glyph glyph-name="s" unicode="s" horiz-adv-x="497" 
d="M155 333q0 -22 25.5 -32t78.5 -17q30 -4 39.5 -6t37.5 -7.5t39.5 -11t31 -16.5t28 -24t16 -32.5t7.5 -43.5q0 -74 -64 -112t-157 -38q-98 0 -175 36q-20 10 -23 57q-2 42 15 43q3 0 7 -2q76 -41 164 -41q51 0 83.5 15.5t32.5 43.5q0 13 -7.5 21.5t-25 14.5t-31.5 9t-42 7
q-102 16 -139 36q-58 32 -58 97q0 69 63.5 104.5t155.5 35.5q97 0 170 -36q21 -10 23 -55q2 -38 -14 -38q-3 0 -7 2q-78 41 -164 41q-48 0 -79 -14t-31 -37z" />
    <glyph glyph-name="t" unicode="t" horiz-adv-x="446" 
d="M379 121q19 10 24 -20q6 -38 -13 -65q-5 -6 -11 -10q-48 -27 -96 -31t-86 14t-62 63t-24 111v162h-61q-19 0 -26.5 25.5t0 51.5t26.5 26h61l20 127q2 14 26.5 19t48 -2.5t23.5 -25.5v-118h157q19 0 26.5 -26t0 -51.5t-26.5 -25.5h-157v-166q0 -70 39.5 -84.5t110.5 26.5z
" />
    <glyph glyph-name="u" unicode="u" horiz-adv-x="608" 
d="M555 105q23 11 29 -20q8 -35 -14 -62q-6 -8 -15 -12q-46 -17 -78 -17q-68 0 -86 74q-73 -74 -180 -74q-75 0 -118 44.5t-43 122.5v247q0 29 46 54q44 24 63 11q7 -5 7 -15v-256q0 -106 93 -106q67 0 126 69v276q0 19 29 26.5t58.5 0t29.5 -26.5v-299q0 -43 30 -43
q10 0 23 6z" />
    <glyph glyph-name="v" unicode="v" horiz-adv-x="543" 
d="M22 441q-6 17 24 24q42 10 80 -6q17 -7 20 -18q53 -167 126 -303q76 147 124 303q7 23 62 27q52 3 62 -16q3 -5 1 -11q-42 -123 -112 -266t-100 -169q-15 -12 -38 -12t-37 12q-30 26 -100 169t-112 266z" />
    <glyph glyph-name="w" unicode="w" horiz-adv-x="755" 
d="M608 441q5 24 59 27q53 4 65 -16q4 -5 2 -11q-35 -123 -92.5 -263.5t-86.5 -171.5q-14 -13 -39 -13t-39 13q-36 41 -105 218q-54 -171 -94 -218q-13 -14 -38 -14t-38 14q-30 33 -88.5 173.5t-91.5 261.5q-4 16 23 24q42 11 80 -4q20 -8 22 -20q34 -154 92 -302
q47 110 79 235l-20 67q-4 16 23 24q42 11 80 -4q20 -8 22 -20q38 -166 92 -302q56 133 93 302z" />
    <glyph glyph-name="x" unicode="x" horiz-adv-x="531" 
d="M507 27q16 -23 -21 -31q-44 -9 -85 12q-15 8 -23 19q-58 82 -112 150q-53 -64 -113 -150q-21 -30 -79 -33q-48 -2 -54 17q-2 7 4 16q92 130 175 229q-75 86 -171 181q-22 22 12 30q44 10 94 -10q20 -8 32 -20q67 -69 100 -105q39 44 100 105q31 31 94 32q50 2 51 -17
q-1 -8 -8 -15q-96 -95 -171 -181q87 -102 175 -229z" />
    <glyph glyph-name="y" unicode="y" horiz-adv-x="560" 
d="M416 438q9 27 61 31q49 4 61 -16q4 -7 1 -15q-91 -260 -253 -536q-62 -106 -148 -106q-38 0 -78 20q-23 13 -22 54q2 36 21 41q7 2 16 -3q22 -13 42 -13q42 0 81 69q22 40 33 61q-139 210 -211 412q-9 24 29 31q44 9 77 -11q14 -9 18 -20q47 -147 142 -305
q73 148 130 306z" />
    <glyph glyph-name="z" unicode="z" horiz-adv-x="498" 
d="M430 98q18 0 26 -24.5t0 -49t-26 -24.5h-371q-23 0 -25.5 38t11.5 54q120 173 261 273h-198q-30 0 -56 41q-23 38 -8 53q5 5 14 5h379q24 0 28 -41t-16 -54q-169 -121 -268 -271h249z" />
    <glyph glyph-name="braceleft" unicode="{" horiz-adv-x="384" 
d="M336 15q18 0 26 -22.5t0.5 -45.5t-26.5 -23h-33q-41 0 -68.5 8t-49.5 30.5t-32.5 65.5t-10.5 109q0 53 -19.5 72t-69.5 19q-14 0 -22 14.5t-8 34.5q0 21 8 35t22 14q50 0 69.5 19t19.5 72q0 66 10.5 109t32.5 65.5t49.5 30.5t68.5 8h33q19 0 26.5 -23t-0.5 -45.5
t-26 -22.5q-48 0 -67.5 -29t-19.5 -111q0 -60 -22.5 -89t-79.5 -33q57 -4 79.5 -33t22.5 -89q0 -82 19.5 -111t67.5 -29z" />
    <glyph glyph-name="bar" unicode="|" horiz-adv-x="261" 
d="M72 -179v796q0 29 46 54q45 25 64 11q7 -5 7 -15v-846q0 -18 -29.5 -26t-58.5 0t-29 26z" />
    <glyph glyph-name="braceright" unicode="}" horiz-adv-x="385" 
d="M332 326q14 0 22 -14t8 -35q0 -20 -8 -34.5t-22 -14.5q-50 0 -69.5 -19t-19.5 -72q0 -66 -10.5 -109t-32.5 -65.5t-49.5 -30.5t-68.5 -8h-33q-19 0 -26.5 22.5t0.5 45.5t26 23q48 0 67 29t19 111q0 60 22.5 89t80.5 33q-58 4 -80.5 33t-22.5 89q0 82 -19 111t-67 29
q-18 0 -26 22.5t-0.5 45.5t26.5 23h33q41 0 68.5 -8t49.5 -30.5t32.5 -65.5t10.5 -109q0 -53 19.5 -72t69.5 -19z" />
    <glyph glyph-name="asciitilde" unicode="~" horiz-adv-x="511" 
d="M33 300q0 70 34.5 105.5t81.5 35.5q40 0 108 -22.5t88 -22.5q26 0 26 27q0 24 26.5 34t53.5 0t27 -34q0 -71 -34 -106.5t-82 -35.5q-39 0 -107.5 23t-88.5 23q-25 0 -25 -27q0 -24 -27 -34t-54 0t-27 34z" />
    <glyph glyph-name="exclamdown" unicode="&#xa1;" horiz-adv-x="245" 
d="M123 317q-29 0 -47 17.5t-18 45.5q0 27 18 44t47 17q28 0 46 -17t18 -44q0 -28 -18 -45.5t-46 -17.5zM177 215l9 -354q0 -28 -48 -54q-48 -25 -70 -12q-8 4 -8 15l9 405q0 19 27 26.5t54 0t27 -26.5z" />
    <glyph glyph-name="cent" unicode="&#xa2;" horiz-adv-x="486" 
d="M423 124q22 14 27 -19q5 -36 -13 -62l-5 -5q-44 -35 -112 -43v-51q0 -19 -26 -26.5t-51.5 0t-25.5 26.5v55q-85 16 -134 75t-49 157q0 100 48.5 159t134.5 75v18q0 30 42 55q39 25 56 10q5 -5 5 -14v-65q71 -9 112 -43q20 -18 18 -60q-1 -33 -18 -30q-4 0 -9 3
q-57 39 -121 39q-66 0 -108.5 -36.5t-42.5 -110.5q0 -73 42.5 -109t108.5 -36t121 38z" />
    <glyph glyph-name="sterling" unicode="&#xa3;" horiz-adv-x="525" 
d="M468 590q23 -13 28 -60q4 -43 -15 -44q-5 0 -11 3q-83 49 -143 49q-78 0 -89 -90l-9 -64h181q27 0 16 -35q-10 -37 -41 -57q-13 -9 -25 -9h-144l-25 -186h112q90 0 138 38q20 16 24 -14q5 -37 -14 -69l-10 -12q-48 -40 -138 -40h-260q-27 0 -16 35q11 36 43 55l4 2
l25 191h-30q-18 0 -26 25t0 50.5t26 25.5h43l8 64q11 91 62.5 140t127.5 49q77 0 158 -47z" />
    <glyph glyph-name="currency" unicode="&#xa4;" horiz-adv-x="491" 
d="M413 230l59 -58q9 -9 -5 -31t-36 -36t-32 -5l-58 59q-42 -22 -95 -22t-95 22l-59 -59q-10 -9 -32 5t-35.5 36t-4.5 31l59 59q-22 42 -22 95q0 50 21 94l-58 59q-7 7 0 22.5t20.5 29t28.5 21t23 -0.5l59 -59q42 22 95 22q54 0 94 -21l59 58q10 10 32 -4t36 -36.5t5 -31.5
l-59 -59q22 -42 22 -94q0 -54 -22 -96zM245 217q49 0 79 30.5t30 78.5t-30 78t-79 30q-48 0 -77.5 -30t-29.5 -78t29.5 -78.5t77.5 -30.5z" />
    <glyph glyph-name="yen" unicode="&#xa5;" horiz-adv-x="590" 
d="M455 611q11 23 66 25q49 2 54 -16q1 -4 -1 -8q-89 -188 -190 -319h115q26 0 17 -25q-11 -27 -42 -42q-13 -7 -25 -7h-95v-46h145q27 0 16 -26t-42 -40q-12 -6 -24 -6h-95v-78q0 -19 -29 -26.5t-58.5 0t-29.5 26.5v78h-145q-27 0 -16 26t41 40q12 6 24 6h96v46h-145
q-26 0 -17 25q10 27 40 42q14 7 26 7h66q-101 131 -190 319q-7 15 21 21q42 9 79 -6q15 -7 19 -16q74 -154 159 -273q83 116 160 273z" />
    <glyph glyph-name="brokenbar" unicode="&#xa6;" horiz-adv-x="261" 
d="M72 313v304q0 29 46 54q45 25 64 11q7 -5 7 -15v-354q0 -19 -29.5 -26.5t-58.5 0t-29 26.5zM72 -179v303q0 29 46 54q45 25 64 12q7 -5 7 -15v-354q0 -18 -29.5 -26t-58.5 0t-29 26z" />
    <glyph glyph-name="section" unicode="&#xa7;" horiz-adv-x="504" 
d="M413 187q59 -37 59 -104q0 -74 -64 -113t-158 -39q-100 0 -182 41q-21 11 -24 58q-3 42 15 43q4 0 8 -2q84 -44 171 -44q55 0 89.5 18t34.5 48q0 14 -8.5 23.5t-29.5 16t-36 9.5t-48 8q-34 6 -48.5 8.5t-45.5 10t-45.5 16t-33 22.5t-26.5 34t-8 45q0 56 59 96
q-59 37 -59 103q0 75 64 114t158 39q100 0 182 -41q21 -11 24 -58q3 -42 -15 -43q-4 0 -8 2q-84 44 -171 44q-55 0 -89.5 -18t-34.5 -48q0 -26 30 -37.5t92 -19.5q34 -6 48.5 -8.5t45.5 -10t45.5 -16t33 -22.5t26.5 -34t8 -45q0 -58 -59 -96zM129 296q0 -14 9 -23.5t30 -17
t38 -11t50 -9.5q47 -9 68 -14q52 23 52 52q0 14 -9 24t-29.5 17t-38 10.5t-50.5 9.5q-47 9 -68 14q-52 -23 -52 -52z" />
    <glyph glyph-name="dieresis" unicode="&#xa8;" horiz-adv-x="484" 
d="M124 545q-29 0 -47.5 19t-18.5 50t18.5 50t47.5 19t47 -19t18 -50t-18 -50t-47 -19zM361 545q-30 0 -48 19t-18 50t18 50t48 19q29 0 47 -19t18 -50t-18 -50t-47 -19z" />
    <glyph glyph-name="copyright" unicode="&#xa9;" horiz-adv-x="691" 
d="M345 -7q-139 0 -217.5 85t-78.5 237t78 237.5t218 85.5t218 -85.5t78 -237.5t-78.5 -237t-217.5 -85zM345 70q103 0 160.5 64.5t57.5 180.5t-57.5 181t-160.5 65t-160.5 -65t-57.5 -181q0 -115 57.5 -180t160.5 -65zM350 132q-75 0 -119.5 46t-44.5 136q0 92 44.5 138
t119.5 46q74 0 100 -24q18 -18 13 -56q-4 -23 -14 -21q-2 0 -4 1q-35 22 -87 22q-38 0 -63 -26.5t-25 -79.5q0 -51 25 -77.5t63 -26.5q52 0 86 23q12 8 18 -18q8 -36 -9 -56l-3 -3q-35 -24 -100 -24z" />
    <glyph glyph-name="ordfeminine" unicode="&#xaa;" horiz-adv-x="375" 
d="M343 416q16 7 21 -17q6 -28 -12 -42l-7 -4q-33 -13 -57 -13q-42 0 -59 35q-44 -36 -109 -36q-45 0 -73.5 25t-28.5 67t30 67t80 25q58 0 91 -14q0 33 -18 46t-59 13q-56 0 -97 -25q-18 -11 -23 11q-5 27 16 48q40 34 126 34q145 0 145 -118v-74v-4q0 -29 17 -29q5 0 17 5
zM157 403q37 0 62 19v9v25q-25 9 -62 9q-44 0 -44 -29q0 -33 44 -33z" />
    <glyph glyph-name="guillemotleft" unicode="&#xab;" horiz-adv-x="452" 
d="M328 106q-34 41 -72 100.5t-38 70.5t38 70t72 101q19 22 59 22q31 0 28 -16q0 -3 -2 -6q-26 -38 -58 -100.5t-32 -70.5t32 -70.5t58 -100.5q11 -19 -18 -22q-36 -4 -61 17zM149 106q-34 41 -72.5 100.5t-38.5 70.5t38 70t73 101q19 22 60 21q29 0 27 -15q0 -3 -2 -6
q-27 -38 -59 -100.5t-32 -70.5t32.5 -71t58.5 -100q10 -18 -18 -21q-36 -4 -61 16q-4 2 -6 5z" />
    <glyph glyph-name="logicalnot" unicode="&#xac;" horiz-adv-x="529" 
d="M458 404q9 0 15 -12.5t6 -29.5v-204q0 -18 -29 -26t-58 0t-29 26l-1 142h-271q-29 0 -55 42q-23 39 -10 56q5 6 15 6h417z" />
    <glyph glyph-name="registered" unicode="&#xae;" horiz-adv-x="410" 
d="M205 638q76 0 123.5 -50t47.5 -130q0 -81 -47 -130.5t-124 -49.5t-124 49.5t-47 130.5t47 130.5t124 49.5zM205 340q52 0 80.5 31t28.5 87t-28.5 87t-80.5 31q-51 0 -79.5 -31t-28.5 -87t28.5 -87t79.5 -31zM277 491q0 -32 -27 -46q21 -15 24 -60q0 -7 -14 -9.5t-28 0
t-14 9.5q0 41 -24 48v-48q0 -11 -27 -11t-27 11v145q0 17 62 17q35 0 55 -15.5t20 -40.5zM207 505h-13v-37q29 -4 29 18q0 19 -16 19z" />
    <glyph glyph-name="macron" unicode="&#xaf;" horiz-adv-x="533" 
d="M128 548q-30 0 -56 40q-24 38 -9 53q5 5 14 5h368q19 0 26.5 -24.5t0 -49t-26.5 -24.5h-317z" />
    <glyph glyph-name="degree" unicode="&#xb0;" horiz-adv-x="295" 
d="M148 375q-56 1 -90.5 37t-34.5 95t34.5 95t90.5 36t90.5 -36.5t34.5 -94.5q0 -59 -34.5 -95t-90.5 -37zM147 453q21 0 34.5 15t13.5 39q0 25 -13.5 39.5t-34.5 14.5q-46 0 -46 -54q0 -25 12 -39.5t34 -14.5z" />
    <glyph glyph-name="plusminus" unicode="&#xb1;" horiz-adv-x="490" 
d="M56 342q-18 0 -26 25.5t0 51t26 25.5h127v126q0 18 29 26t58.5 0t29.5 -26v-126h151q27 0 16 -36q-12 -38 -43 -58q-13 -8 -24 -8h-100v-130q0 -18 -29 -26t-58.5 0t-29.5 26v130h-127zM451 141q27 0 16 -36q-11 -38 -42 -58q-13 -9 -25 -9h-344q-18 0 -26 26t0 51.5
t26 25.5h395z" />
    <glyph glyph-name="uni00B2" unicode="&#xb2;" horiz-adv-x="312" 
d="M248 454q18 0 31 -37q13 -39 -1 -47l-5 -1h-232q-15 0 -15 37q0 34 9.5 61.5t29.5 47.5t33.5 30t37.5 24q2 1 6 4q34 21 38 35l1 7q0 24 -34 24q-33 0 -95 -28q-17 -8 -20 20q-5 36 12 58q4 5 8 7q46 25 100 25q56 0 94 -28.5t38 -78.5q0 -28 -12 -47.5t-24.5 -28
t-36.5 -20.5q-54 -31 -70 -64h107z" />
    <glyph glyph-name="uni00B3" unicode="&#xb3;" horiz-adv-x="320" 
d="M216 546q34 -4 55 -25t21 -53q0 -50 -38.5 -77.5t-96.5 -27.5t-112 26q-19 9 -19 51q-1 36 14 35q3 0 5 -1q59 -30 104 -30q22 0 35.5 8.5t13.5 20.5q0 19 -22 26t-71 7q-17 0 -17.5 38.5t17.5 38.5q89 0 89 30q0 27 -49 27q-45 0 -99 -29q-15 -8 -19 18q-5 35 10 58
q4 5 8 7q52 27 112 27q56 0 93 -26t37 -74q0 -65 -71 -75z" />
    <glyph glyph-name="acute" unicode="&#xb4;" horiz-adv-x="319" 
d="M62 552l64 132q13 25 73 28q54 2 60 -16q2 -6 -3 -12l-103 -132q-15 -22 -59 -22q-36 0 -34 17q1 2 2 5z" />
    <glyph glyph-name="paragraph" unicode="&#xb6;" horiz-adv-x="548" 
d="M305 637q90 0 138 -15t48 -40v-563q0 -16 -20.5 -23t-41.5 0t-21 23v511h-63v-511q0 -16 -20.5 -23t-41.5 0t-21 23v197q-114 4 -171 61t-57 138q0 102 71.5 162t199.5 60z" />
    <glyph glyph-name="periodcentered" unicode="&#xb7;" horiz-adv-x="248" 
d="M125 227q-29 0 -47.5 17.5t-18.5 45.5q0 27 18.5 44.5t47.5 17.5q28 0 46 -17.5t18 -44.5q0 -28 -18 -45.5t-46 -17.5z" />
    <glyph glyph-name="cedilla" unicode="&#xb8;" horiz-adv-x="303" 
d="M80 -179q-21 10 -23 46q-2 30 13 30q3 0 6 -1q17 -7 32 -7q31 0 31 31q0 11 -4 22l-26 70q-5 15 19 26t52.5 9t33.5 -17l36 -103q7 -18 7 -38q0 -36 -27.5 -60t-73.5 -24q-34 0 -76 16z" />
    <glyph glyph-name="uni00B9" unicode="&#xb9;" horiz-adv-x="269" 
d="M153 707q14 10 30.5 14t28.5 -0.5t12 -18.5v-325q0 -15 -49 -15t-49 15v202l-75 -52q-19 -13 -32 25q-14 39 -3 59l3 4l133 91z" />
    <glyph glyph-name="ordmasculine" unicode="&#xba;" horiz-adv-x="365" 
d="M182 339q-74 0 -115 39t-41 110q0 70 41 109t115 39q75 0 116 -39t41 -109q0 -71 -41 -110t-116 -39zM182 406q61 0 61 82q0 81 -61 81q-60 0 -60 -81q0 -82 60 -82z" />
    <glyph glyph-name="guillemotright" unicode="&#xbb;" horiz-adv-x="452" 
d="M122 106q-18 -22 -58 -22q-30 0 -28 15l2 7q26 38 58.5 100.5t32.5 70.5t-32.5 70t-58.5 101q-10 18 17 21q36 5 61 -15l6 -6q35 -42 73.5 -101t38.5 -70t-39 -70.5t-73 -100.5zM303 106q-18 -21 -59 -21q-30 0 -29 13l3 8q26 38 58 100.5t32 70.5t-32 70.5t-58 100.5
q-10 18 19 21q36 4 60 -16q4 -2 6 -5q34 -43 72 -101.5t38 -69.5t-38 -70.5t-72 -100.5z" />
    <glyph glyph-name="onequarter" unicode="&#xbc;" horiz-adv-x="728" 
d="M536 652q16 21 65 21q39 0 39 -15l-3 -6q-241 -329 -445 -696q-13 -22 -61 -24q-41 -1 -42 16q-1 4 2 8q204 367 445 696zM126 293v202l-75 -52q-19 -13 -32 25q-14 39 -3 59l3 4l133 91l1 1q14 10 30.5 14t28.5 -0.5t12 -18.5v-325q0 -15 -49 -15t-49 15zM693 161
q18 0 9 -35q-10 -36 -28 -41l-4 -1h-21v-75q0 -16 -47.5 -16t-47.5 16v75h-139q-18 0 -18 28.5t11 44.5l113 169q17 27 75 27q32 0 42.5 -4.5t10.5 -18.5v-169h44zM491 161h63v96z" />
    <glyph glyph-name="onehalf" unicode="&#xbd;" horiz-adv-x="728" 
d="M536 652q16 21 65 21q39 0 39 -15l-3 -6q-241 -329 -445 -696q-13 -22 -61 -24q-41 -1 -42 16q-1 4 2 8q204 367 445 696zM126 293v202l-75 -52q-19 -13 -32 25q-14 39 -3 59l3 4l133 91l1 1q14 10 30.5 14t28.5 -0.5t12 -18.5v-325q0 -15 -49 -15t-49 15zM664 85
q18 0 31 -37q13 -39 -1 -47q-2 -1 -5 -1h-232q-15 0 -15 37q0 34 9.5 61.5t29.5 47.5t33.5 30t37.5 24q37 24 42 35q3 5 3 11q0 24 -34 24q-33 0 -95 -28q-17 -8 -20 20q-5 36 12 58l8 7q46 25 100 25q56 0 94 -28.5t38 -79.5q0 -27 -12 -47t-24.5 -28.5t-36.5 -20.5
q-53 -30 -69 -63h106z" />
    <glyph glyph-name="threequarters" unicode="&#xbe;" horiz-adv-x="748" 
d="M557 652q16 21 65 21q39 0 39 -15l-3 -6q-241 -329 -445 -696q-13 -22 -61 -24q-41 -1 -42 16q-1 4 2 8q204 367 445 696zM292 384q0 -50 -38.5 -77.5t-96.5 -27.5t-112 26q-19 9 -19 51q-1 36 14 35q3 0 5 -1q59 -30 104 -30q22 0 35.5 8.5t13.5 20.5q0 19 -22 26t-71 7
q-17 0 -17.5 38.5t17.5 38.5q89 0 89 30q0 27 -49 27q-45 0 -99 -29q-15 -8 -19 18q-5 35 10 58q4 5 8 7q52 27 112 27q56 0 93 -26t37 -74q0 -65 -71 -75q34 -4 55 -25t21 -53zM713 161q18 0 9 -35q-10 -36 -28 -41l-4 -1h-21v-75q0 -16 -47.5 -16t-47.5 16v75h-139
q-18 0 -18 28.5t11 44.5l113 169q17 27 75 27q32 0 42.5 -4.5t10.5 -18.5v-169h44zM511 161h63v96z" />
    <glyph glyph-name="questiondown" unicode="&#xbf;" horiz-adv-x="466" 
d="M299 436q29 0 47.5 -17t18.5 -45t-18.5 -45.5t-47.5 -17.5q-28 0 -45.5 17.5t-17.5 45.5t17.5 45t45.5 17zM141 -26q0 -39 27.5 -61t77.5 -22q74 0 170 50q22 12 26 -22q5 -40 -15 -69q-6 -8 -13 -12q-89 -47 -184 -47q-90 0 -148.5 43.5t-58.5 124.5q0 34 9.5 59.5
t28.5 43t35.5 27t43.5 21.5q27 13 39 19t30 20t25 31t7 41q0 19 29.5 27t59 0.5t29.5 -26.5q0 -39 -10.5 -67.5t-34 -47.5t-40 -27.5t-47.5 -21.5q-21 -8 -33.5 -14t-26 -16t-20 -23.5t-6.5 -30.5z" />
    <glyph glyph-name="Agrave" unicode="&#xc0;" horiz-adv-x="627" 
d="M265 715l-103 132q-15 19 24 26q48 8 87 -10q15 -7 20 -16l63 -132q9 -17 -20 -21q-38 -5 -64 14q-4 3 -7 7zM606 23q7 -20 -27 -28q-46 -10 -85 8q-17 8 -21 20q-15 50 -45 144h-229q-30 -94 -45 -144q-8 -26 -63 -30q-53 -4 -68 15q-5 7 -2 15q58 175 145.5 368
t133.5 242q5 5 13.5 5t13.5 -5q46 -49 133.5 -242t145.5 -368zM233 266h161q-36 99 -80 195q-44 -92 -81 -195z" />
    <glyph glyph-name="Aacute" unicode="&#xc1;" horiz-adv-x="627" 
d="M363 715q-15 -22 -59 -22q-36 0 -34 17q1 2 2 5l64 132q13 25 73 28q54 2 60 -16q2 -6 -3 -12zM606 23q7 -20 -27 -28q-46 -10 -85 8q-17 8 -21 20q-15 50 -45 144h-229q-30 -94 -45 -144q-8 -26 -63 -30q-53 -4 -68 15q-5 7 -2 15q58 175 145.5 368t133.5 242
q5 5 13.5 5t13.5 -5q46 -49 133.5 -242t145.5 -368zM233 266h161q-36 99 -80 195q-44 -92 -81 -195z" />
    <glyph glyph-name="Acircumflex" unicode="&#xc2;" horiz-adv-x="627" 
d="M263 708q-17 -22 -69 -23q-43 -1 -43 15q0 4 3 8q22 31 71 87.5t62 66.5q9 6 26.5 6.5t26.5 -6.5q13 -10 62.5 -66.5t71.5 -87.5q11 -17 -21 -22q-44 -6 -76 12q-8 5 -12 10q-27 39 -51 64q-24 -25 -51 -64zM606 23q7 -20 -27 -28q-46 -10 -85 8q-17 8 -21 20
q-15 50 -45 144h-229q-30 -94 -45 -144q-8 -26 -63 -30q-53 -4 -68 15q-5 7 -2 15q58 175 145.5 368t133.5 242q5 5 13.5 5t13.5 -5q46 -49 133.5 -242t145.5 -368zM233 266h161q-36 99 -80 195q-44 -92 -81 -195z" />
    <glyph glyph-name="Atilde" unicode="&#xc3;" horiz-adv-x="627" 
d="M237 710q0 -18 -23.5 -25.5t-47 0t-23.5 25.5q0 57 26.5 86t62.5 29q30 0 75 -18t59 -18q23 0 23 23q0 18 23.5 25.5t47 0t23.5 -25.5q0 -57 -26 -86t-63 -29q-29 0 -74.5 18.5t-60.5 18.5q-22 0 -22 -24zM606 23q7 -20 -27 -28q-46 -10 -85 8q-17 8 -21 20
q-15 50 -45 144h-229q-30 -94 -45 -144q-8 -26 -63 -30q-53 -4 -68 15q-5 7 -2 15q58 175 145.5 368t133.5 242q5 5 13.5 5t13.5 -5q46 -49 133.5 -242t145.5 -368zM233 266h161q-36 99 -80 195q-44 -92 -81 -195z" />
    <glyph glyph-name="Adieresis" unicode="&#xc4;" horiz-adv-x="627" 
d="M195 693q-29 0 -47.5 19t-18.5 50t18.5 50t47.5 19t47 -19t18 -50t-18 -50t-47 -19zM432 693q-30 0 -48 19t-18 50t18 50t48 19q29 0 47 -19t18 -50t-18 -50t-47 -19zM606 23q7 -20 -27 -28q-46 -10 -85 8q-17 8 -21 20q-15 50 -45 144h-229q-30 -94 -45 -144
q-8 -26 -63 -30q-53 -4 -68 15q-5 7 -2 15q58 175 145.5 368t133.5 242q5 5 13.5 5t13.5 -5q46 -49 133.5 -242t145.5 -368zM233 266h161q-36 99 -80 195q-44 -92 -81 -195z" />
    <glyph glyph-name="Aring" unicode="&#xc5;" horiz-adv-x="627" 
d="M313 693q-53 0 -84.5 30t-31.5 79q0 48 31 77.5t85 29.5t85.5 -29.5t31.5 -77.5q0 -49 -31.5 -79t-85.5 -30zM313 861q-23 0 -37.5 -16.5t-14.5 -42.5q0 -27 14.5 -44t37.5 -17q24 0 38 17t14 44q0 26 -14 42.5t-38 16.5zM606 23q7 -20 -27 -28q-46 -10 -85 8
q-17 8 -21 20q-15 50 -45 144h-229q-30 -94 -45 -144q-8 -26 -63 -30q-53 -4 -68 15q-5 7 -2 15q58 175 145.5 368t133.5 242q5 5 13.5 5t13.5 -5q46 -49 133.5 -242t145.5 -368zM233 266h161q-36 99 -80 195q-44 -92 -81 -195z" />
    <glyph glyph-name="AE" unicode="&#xc6;" horiz-adv-x="881" 
d="M825 103q19 0 26.5 -25.5t0 -51.5t-26.5 -26h-365q-22 0 -22 44v126h-203q-46 -78 -81 -147q-13 -27 -72 -30q-53 -3 -61 18q-2 5 1 12q34 66 90 161t123 198.5t130 175.5t95 72h375q27 0 16 -36q-11 -38 -42 -58q-13 -9 -25 -9h-233v-157h204q19 0 26.5 -26t0 -51.5
t-26.5 -25.5h-204v-164h274zM292 264h146v208q-65 -78 -146 -208z" />
    <glyph glyph-name="Ccedilla" unicode="&#xc7;" horiz-adv-x="541" 
d="M491 134q21 12 27 -21q8 -39 -10 -66q-4 -6 -9 -9q-42 -31 -122 -41l24 -70q7 -18 7 -38q0 -36 -27.5 -60t-73.5 -24q-34 0 -76 16q-21 10 -23 46q-2 30 13 30q3 0 6 -1q17 -7 32 -7q31 0 31 31q0 11 -4 22l-21 55q-108 17 -170 97.5t-62 219.5q0 160 78.5 241.5
t211.5 81.5q55 0 103.5 -14t72.5 -32q22 -15 21 -61q-1 -39 -20 -38l-9 3q-25 15 -68.5 27t-84.5 12q-79 0 -130.5 -55t-51.5 -165q0 -109 51.5 -163.5t130.5 -54.5q40 0 84 12t69 26z" />
    <glyph glyph-name="Egrave" unicode="&#xc8;" horiz-adv-x="513" 
d="M217 715l-103 132q-15 19 24 26q48 8 87 -10q15 -7 20 -16l63 -132q9 -17 -20 -21q-38 -5 -64 14zM457 103q19 0 26.5 -25.5t0 -51.5t-26.5 -26h-377q-22 0 -22 44v544q0 17 6 29.5t16 12.5h386q27 0 16 -36q-11 -38 -42 -58q-13 -9 -25 -9h-240v-157h212q18 0 26 -26
t0 -51.5t-26 -25.5h-213v-164h283z" />
    <glyph glyph-name="Eacute" unicode="&#xc9;" horiz-adv-x="513" 
d="M315 715q-15 -22 -59 -22q-36 0 -34 17q1 2 2 5l64 132q13 25 73 28q54 2 60 -16q2 -6 -3 -12zM457 103q19 0 26.5 -25.5t0 -51.5t-26.5 -26h-377q-22 0 -22 44v544q0 17 6 29.5t16 12.5h386q27 0 16 -36q-11 -38 -42 -58q-13 -9 -25 -9h-240v-157h212q18 0 26 -26
t0 -51.5t-26 -25.5h-213v-164h283z" />
    <glyph glyph-name="Ecircumflex" unicode="&#xca;" horiz-adv-x="513" 
d="M215 708q-17 -22 -69 -23q-43 -1 -43 15q0 4 3 8q22 31 71 87.5t62 66.5q9 6 26.5 6.5t26.5 -6.5q13 -10 62.5 -66.5t71.5 -87.5q11 -17 -21 -22q-44 -6 -76 12q-8 5 -12 10q-27 39 -51 64q-24 -25 -51 -64zM457 103q19 0 26.5 -25.5t0 -51.5t-26.5 -26h-377
q-22 0 -22 44v544q0 17 6 29.5t16 12.5h386q27 0 16 -36q-11 -38 -42 -58q-13 -9 -25 -9h-240v-157h212q18 0 26 -26t0 -51.5t-26 -25.5h-213v-164h283z" />
    <glyph glyph-name="Edieresis" unicode="&#xcb;" horiz-adv-x="513" 
d="M147 693q-29 0 -47.5 19t-18.5 50t18.5 50t47.5 19t47 -19t18 -50t-18 -50t-47 -19zM384 693q-30 0 -48 19t-18 50t18 50t48 19q29 0 47 -19t18 -50t-18 -50t-47 -19zM457 103q19 0 26.5 -25.5t0 -51.5t-26.5 -26h-377q-22 0 -22 44v544q0 17 6 29.5t16 12.5h386
q27 0 16 -36q-11 -38 -42 -58q-13 -9 -25 -9h-240v-157h212q18 0 26 -26t0 -51.5t-26 -25.5h-213v-164h283z" />
    <glyph glyph-name="Igrave" unicode="&#xcc;" horiz-adv-x="303" 
d="M208 715q9 -17 -20 -21q-38 -5 -64 14q-4 3 -7 7l-103 132q-15 19 24 26q48 8 87 -10q15 -7 20 -16zM93 23v551q0 29 46 54q44 24 65 11q7 -5 7 -15v-601q0 -19 -29.5 -26.5t-59 0t-29.5 26.5z" />
    <glyph glyph-name="Iacute" unicode="&#xcd;" horiz-adv-x="303" 
d="M124 715l64 132q13 25 73 28q54 2 60 -16q2 -6 -3 -12l-103 -132q-15 -22 -59 -22q-36 0 -34 17q1 2 2 5zM93 23v551q0 29 46 54q44 24 65 11q7 -5 7 -15v-601q0 -19 -29.5 -26.5t-59 0t-29.5 26.5z" />
    <glyph glyph-name="Icircumflex" unicode="&#xce;" horiz-adv-x="303" 
d="M30 708q18 30 58 86.5t51 67.5q8 8 26.5 8t26.5 -8q11 -11 52 -67.5t57 -86.5q9 -18 -21 -22q-39 -6 -64 13l-9 9q-20 34 -41 61q-21 -27 -41 -61q-15 -23 -59 -24q-37 -1 -38 16q0 4 2 8zM93 23v551q0 29 46 54q44 24 65 11q7 -5 7 -15v-601q0 -19 -29.5 -26.5t-59 0
t-29.5 26.5z" />
    <glyph glyph-name="Idieresis" unicode="&#xcf;" horiz-adv-x="303" 
d="M82 693q-29 0 -46.5 18.5t-17.5 49.5t17.5 49.5t46.5 18.5q28 0 45.5 -18.5t17.5 -49.5t-17.5 -49.5t-45.5 -18.5zM249 693q-29 0 -46.5 18.5t-17.5 49.5t17.5 49.5t46.5 18.5q28 0 45.5 -18.5t17.5 -49.5t-17.5 -49.5t-45.5 -18.5zM93 23v551q0 29 46 54q44 24 65 11
q7 -5 7 -15v-601q0 -19 -29.5 -26.5t-59 0t-29.5 26.5z" />
    <glyph glyph-name="Eth" unicode="&#xd0;" horiz-adv-x="651" 
d="M316 637q148 0 228.5 -83.5t80.5 -238.5q0 -154 -77 -238t-218 -84t-194 28q-21 12 -21 25v219h-68q-18 0 -26 25.5t0 51.5t26 26h68v216q0 16 25 28q52 25 176 25zM322 94q185 0 185 221q0 223 -189 223q-59 0 -86 -8v-162h76q19 0 26.5 -26t0 -51.5t-26.5 -25.5h-77
v-162q30 -9 91 -9z" />
    <glyph glyph-name="Ntilde" unicode="&#xd1;" horiz-adv-x="657" 
d="M252 710q0 -18 -23.5 -25.5t-47 0t-23.5 25.5q0 57 26.5 86t62.5 29q29 0 74 -18t60 -18q23 0 23 23q0 18 23.5 25.5t47 0t23.5 -25.5q0 -57 -26 -86t-63 -29q-29 0 -74.5 18.5t-60.5 18.5q-22 0 -22 -24zM481 574q0 29 46 54q44 24 65 11q7 -5 7 -15v-601
q0 -19 -26.5 -26t-55.5 -2.5t-35 16.5q-74 152 -142 250t-165 200v-438q0 -19 -29.5 -26.5t-58.5 0t-29 26.5v584q0 27 49 31t62 -12q187 -177 312 -386v334z" />
    <glyph glyph-name="Ograve" unicode="&#xd2;" horiz-adv-x="658" 
d="M372 715q9 -17 -20 -21q-38 -5 -64 14q-4 3 -7 7l-103 132q-15 19 24 26q48 8 87 -10q15 -7 20 -16zM329 -7q-139 0 -217.5 85t-78.5 237t78 237.5t218 85.5t218 -85.5t78 -237.5t-78.5 -237t-217.5 -85zM329 96q82 0 127.5 58t45.5 161q0 104 -45.5 162t-127.5 58
t-127.5 -58t-45.5 -162t45.5 -161.5t127.5 -57.5z" />
    <glyph glyph-name="Oacute" unicode="&#xd3;" horiz-adv-x="658" 
d="M288 715l64 132q13 25 73 28q54 2 60 -16q2 -6 -3 -12l-103 -132q-15 -22 -59 -22q-36 0 -34 17q1 2 2 5zM329 -7q-139 0 -217.5 85t-78.5 237t78 237.5t218 85.5t218 -85.5t78 -237.5t-78.5 -237t-217.5 -85zM329 96q82 0 127.5 58t45.5 161q0 104 -45.5 162t-127.5 58
t-127.5 -58t-45.5 -162t45.5 -161.5t127.5 -57.5z" />
    <glyph glyph-name="Ocircumflex" unicode="&#xd4;" horiz-adv-x="658" 
d="M170 708q22 31 71 87.5t62 66.5q9 6 26.5 6.5t26.5 -6.5q13 -10 62.5 -66.5t71.5 -87.5q11 -17 -21 -22q-44 -6 -76 12q-8 5 -12 10q-27 39 -51 64q-24 -25 -51 -64q-17 -22 -69 -23q-43 -1 -43 15q0 4 3 8zM329 -7q-139 0 -217.5 85t-78.5 237t78 237.5t218 85.5
t218 -85.5t78 -237.5t-78.5 -237t-217.5 -85zM329 96q82 0 127.5 58t45.5 161q0 104 -45.5 162t-127.5 58t-127.5 -58t-45.5 -162t45.5 -161.5t127.5 -57.5z" />
    <glyph glyph-name="Otilde" unicode="&#xd5;" horiz-adv-x="658" 
d="M159 710q0 57 26.5 86t62.5 29q30 0 75 -18t59 -18q23 0 23 23q0 18 23.5 25.5t47 0t23.5 -25.5q0 -57 -26 -86t-63 -29q-29 0 -74.5 18.5t-60.5 18.5q-22 0 -22 -24q0 -18 -23.5 -25.5t-47 0t-23.5 25.5zM329 -7q-139 0 -217.5 85t-78.5 237t78 237.5t218 85.5
t218 -85.5t78 -237.5t-78.5 -237t-217.5 -85zM329 96q82 0 127.5 58t45.5 161q0 104 -45.5 162t-127.5 58t-127.5 -58t-45.5 -162t45.5 -161.5t127.5 -57.5z" />
    <glyph glyph-name="Odieresis" unicode="&#xd6;" horiz-adv-x="658" 
d="M211 693q-29 0 -47.5 19t-18.5 50t18.5 50t47.5 19t47 -19t18 -50t-18 -50t-47 -19zM448 693q-30 0 -48 19t-18 50t18 50t48 19q29 0 47 -19t18 -50t-18 -50t-47 -19zM329 -7q-139 0 -217.5 85t-78.5 237t78 237.5t218 85.5t218 -85.5t78 -237.5t-78.5 -237t-217.5 -85z
M329 96q82 0 127.5 58t45.5 161q0 104 -45.5 162t-127.5 58t-127.5 -58t-45.5 -162t45.5 -161.5t127.5 -57.5z" />
    <glyph glyph-name="multiply" unicode="&#xd7;" horiz-adv-x="420" 
d="M397 178q13 -13 -0.5 -37.5t-38 -38t-37.5 0.5l-111 110l-110 -111q-14 -13 -38.5 0.5t-38 38t-0.5 37.5l111 111l-111 110q-13 13 0.5 37.5t38 38t37.5 0.5l111 -111l111 111q13 13 37.5 0t38 -37.5t-0.5 -38.5l-110 -110z" />
    <glyph glyph-name="Oslash" unicode="&#xd8;" horiz-adv-x="692" 
d="M556 560q86 -84 86 -245q0 -152 -78.5 -237t-218.5 -85q-66 0 -117 19q-5 -10 -16 -30.5t-16 -30.5q-13 -24 -69 -25q-48 -1 -52 17q-1 4 1 8q27 53 62 116q-88 86 -88 248q0 152 78 237.5t217 85.5q70 0 127 -23l29 42q16 23 73 24q50 1 51 -16q0 -4 -3 -8
q-44 -64 -66 -97zM173 315q0 -81 28 -135q106 183 210 343q-28 12 -66 12q-82 0 -127 -58t-45 -162zM345 96q82 0 128 57.5t46 161.5q0 84 -31 140q-106 -165 -208 -348q30 -11 65 -11z" />
    <glyph glyph-name="Ugrave" unicode="&#xd9;" horiz-adv-x="633" 
d="M359 715q9 -17 -20 -21q-38 -5 -64 14q-4 3 -7 7l-103 132q-15 19 24 26q48 8 87 -10q15 -7 20 -16zM58 266v309q0 29 46 54q45 25 64 11q7 -5 7 -15v-355q0 -75 35.5 -122.5t105.5 -47.5t105.5 47.5t35.5 122.5v338q0 19 29.5 26.5t58.5 0t29 -26.5v-342
q0 -81 -23 -139.5t-82.5 -96t-152.5 -37.5t-152.5 37.5t-82.5 96t-23 139.5z" />
    <glyph glyph-name="Uacute" unicode="&#xda;" horiz-adv-x="633" 
d="M275 715l64 132q13 25 73 28q54 2 60 -16q2 -6 -3 -12l-103 -132q-15 -22 -59 -22q-36 0 -34 17q1 2 2 5zM58 266v309q0 29 46 54q45 25 64 11q7 -5 7 -15v-355q0 -75 35.5 -122.5t105.5 -47.5t105.5 47.5t35.5 122.5v338q0 19 29.5 26.5t58.5 0t29 -26.5v-342
q0 -81 -23 -139.5t-82.5 -96t-152.5 -37.5t-152.5 37.5t-82.5 96t-23 139.5z" />
    <glyph glyph-name="Ucircumflex" unicode="&#xdb;" horiz-adv-x="633" 
d="M157 708q22 31 71 87.5t62 66.5q9 6 26.5 6.5t26.5 -6.5q13 -10 62.5 -66.5t71.5 -87.5q11 -17 -21 -22q-44 -6 -76 12q-8 5 -12 10q-27 39 -51 64q-24 -25 -51 -64q-17 -22 -69 -23q-43 -1 -43 15q0 4 3 8zM58 266v309q0 29 46 54q45 25 64 11q7 -5 7 -15v-355
q0 -75 35.5 -122.5t105.5 -47.5t105.5 47.5t35.5 122.5v338q0 19 29.5 26.5t58.5 0t29 -26.5v-342q0 -81 -23 -139.5t-82.5 -96t-152.5 -37.5t-152.5 37.5t-82.5 96t-23 139.5z" />
    <glyph glyph-name="Udieresis" unicode="&#xdc;" horiz-adv-x="633" 
d="M198 693q-29 0 -47.5 19t-18.5 50t18.5 50t47.5 19t47 -19t18 -50t-18 -50t-47 -19zM435 693q-30 0 -48 19t-18 50t18 50t48 19q29 0 47 -19t18 -50t-18 -50t-47 -19zM58 266v309q0 29 46 54q45 25 64 11q7 -5 7 -15v-355q0 -75 35.5 -122.5t105.5 -47.5t105.5 47.5
t35.5 122.5v338q0 19 29.5 26.5t58.5 0t29 -26.5v-342q0 -81 -23 -139.5t-82.5 -96t-152.5 -37.5t-152.5 37.5t-82.5 96t-23 139.5z" />
    <glyph glyph-name="Yacute" unicode="&#xdd;" horiz-adv-x="624" 
d="M362 715q-15 -22 -59 -22q-36 0 -34 17q1 2 2 5l64 132q13 25 73 28q54 2 60 -16q2 -6 -3 -12zM479 604q12 27 65 30q49 4 59 -16q3 -6 -1 -14q-111 -233 -232 -384v-197q0 -19 -29 -26.5t-58.5 0t-29.5 26.5v198q-120 151 -231 383q-11 22 26 29q44 8 80 -12
q13 -8 18 -17q67 -147 166 -288q98 140 167 288z" />
    <glyph glyph-name="Thorn" unicode="&#xde;" horiz-adv-x="550" 
d="M288 528q121 0 179.5 -59t58.5 -151t-58 -150.5t-179 -58.5q-51 0 -114 12v-98q0 -19 -29.5 -26.5t-58.5 0t-29 26.5v551q0 29 46 54q45 25 64 11q7 -5 7 -15v-108q63 12 113 12zM270 208q137 0 137 110q0 111 -140 111q-42 0 -92 -10v-201q51 -10 95 -10z" />
    <glyph glyph-name="germandbls" unicode="&#xdf;" horiz-adv-x="543" 
d="M42 23v437q0 84 64 130.5t155 46.5q89 0 153 -44t64 -120q0 -27 -9 -50t-17 -33.5t-24 -27.5q-23 -25 -23 -40q0 -3 0.5 -6t2 -6.5t2.5 -6t4 -6t4.5 -5.5t6 -6.5l6 -6t6.5 -6t7 -6.5q21 -18 33 -31t24.5 -39.5t12.5 -56.5q0 -63 -50 -111.5t-138 -48.5q-38 0 -73 8
q-29 6 -32 52q-3 42 17 55q7 5 15 3q34 -8 57 -8q40 0 63 15.5t23 38.5q0 24 -46 70q-19 19 -30 31.5t-21.5 34t-10.5 42.5q0 16 7.5 32t13 23t20.5 23q32 36 32 63q0 32 -30 52t-72 20q-43 0 -71.5 -21.5t-28.5 -61.5v-429q0 -19 -29.5 -26.5t-58.5 0t-29 26.5z" />
    <glyph glyph-name="agrave" unicode="&#xe0;" horiz-adv-x="572" 
d="M204 552l-103 132q-15 19 24 26q48 8 87 -10q15 -7 20 -16l63 -132q9 -17 -20 -21q-38 -5 -64 14zM519 105q25 9 31 -22q7 -34 -15 -60q-7 -7 -16 -11q-42 -17 -75 -17q-59 0 -81 56q-64 -58 -164 -58q-75 0 -120 39.5t-45 106.5t48 107t128 40q91 0 141 -26v5
q0 61 -27.5 86t-91.5 25q-88 0 -158 -41q-21 -13 -28 14q-8 32 12 58q4 5 8 8q66 55 202 55q97 0 148.5 -44t51.5 -146v-123q0 -56 29 -56q11 0 22 4zM231 86q78 0 120 51v40q-32 23 -114 23q-43 0 -64 -16.5t-21 -41.5q0 -24 19 -40t60 -16z" />
    <glyph glyph-name="aacute" unicode="&#xe1;" horiz-adv-x="572" 
d="M302 552q-15 -22 -59 -22q-36 0 -34 17q1 2 2 5l64 132q13 25 73 28q54 2 60 -16q2 -6 -3 -12zM519 105q25 9 31 -22q7 -34 -15 -60q-7 -7 -16 -11q-42 -17 -75 -17q-59 0 -81 56q-64 -58 -164 -58q-75 0 -120 39.5t-45 106.5t48 107t128 40q91 0 141 -26v5
q0 61 -27.5 86t-91.5 25q-88 0 -158 -41q-21 -13 -28 14q-8 32 12 58q4 5 8 8q66 55 202 55q97 0 148.5 -44t51.5 -146v-123q0 -56 29 -56q11 0 22 4zM231 86q78 0 120 51v40q-32 23 -114 23q-43 0 -64 -16.5t-21 -41.5q0 -24 19 -40t60 -16z" />
    <glyph glyph-name="acircumflex" unicode="&#xe2;" horiz-adv-x="572" 
d="M202 545q-17 -22 -69 -23q-43 -1 -43 15q0 4 3 8q22 31 71 87.5t62 66.5q9 6 26.5 6.5t26.5 -6.5q13 -10 62.5 -66.5t71.5 -87.5q11 -17 -21 -22q-44 -6 -76 12q-8 5 -12 10q-27 39 -51 64q-24 -25 -51 -64zM519 105q25 9 31 -22q7 -34 -15 -60q-7 -7 -16 -11
q-42 -17 -75 -17q-59 0 -81 56q-64 -58 -164 -58q-75 0 -120 39.5t-45 106.5t48 107t128 40q91 0 141 -26v5q0 61 -27.5 86t-91.5 25q-88 0 -158 -41q-21 -13 -28 14q-8 32 12 58q4 5 8 8q66 55 202 55q97 0 148.5 -44t51.5 -146v-123q0 -56 29 -56q11 0 22 4zM231 86
q78 0 120 51v40q-32 23 -114 23q-43 0 -64 -16.5t-21 -41.5q0 -24 19 -40t60 -16z" />
    <glyph glyph-name="atilde" unicode="&#xe3;" horiz-adv-x="572" 
d="M176 547q0 -18 -23.5 -25.5t-47 0t-23.5 25.5q0 57 26.5 86t62.5 29q29 0 74 -18t60 -18q23 0 23 23q0 18 23.5 25.5t47 0t23.5 -25.5q0 -57 -26 -86t-63 -29q-29 0 -74.5 18.5t-60.5 18.5q-22 0 -22 -24zM519 105q25 9 31 -22q7 -34 -15 -60q-7 -7 -16 -11
q-42 -17 -75 -17q-59 0 -81 56q-64 -58 -164 -58q-75 0 -120 39.5t-45 106.5t48 107t128 40q91 0 141 -26v5q0 61 -27.5 86t-91.5 25q-88 0 -158 -41q-21 -13 -28 14q-8 32 12 58q4 5 8 8q66 55 202 55q97 0 148.5 -44t51.5 -146v-123q0 -56 29 -56q11 0 22 4zM231 86
q78 0 120 51v40q-32 23 -114 23q-43 0 -64 -16.5t-21 -41.5q0 -24 19 -40t60 -16z" />
    <glyph glyph-name="adieresis" unicode="&#xe4;" horiz-adv-x="572" 
d="M134 530q-29 0 -47.5 19t-18.5 50t18.5 50t47.5 19t47 -19t18 -50t-18 -50t-47 -19zM371 530q-30 0 -48 19t-18 50t18 50t48 19q29 0 47 -19t18 -50t-18 -50t-47 -19zM519 105q25 9 31 -22q7 -34 -15 -60q-7 -7 -16 -11q-42 -17 -75 -17q-59 0 -81 56q-64 -58 -164 -58
q-75 0 -120 39.5t-45 106.5t48 107t128 40q91 0 141 -26v5q0 61 -27.5 86t-91.5 25q-88 0 -158 -41q-21 -13 -28 14q-8 32 12 58q4 5 8 8q66 55 202 55q97 0 148.5 -44t51.5 -146v-123q0 -56 29 -56q11 0 22 4zM231 86q78 0 120 51v40q-32 23 -114 23q-43 0 -64 -16.5
t-21 -41.5q0 -24 19 -40t60 -16z" />
    <glyph glyph-name="aring" unicode="&#xe5;" horiz-adv-x="572" 
d="M252 530q-53 0 -84.5 30t-31.5 79q0 48 31 77.5t85 29.5t85.5 -29.5t31.5 -77.5q0 -49 -31.5 -79t-85.5 -30zM252 698q-23 0 -37.5 -16.5t-14.5 -42.5q0 -27 14.5 -44t37.5 -17q24 0 38 17t14 44q0 26 -14 42.5t-38 16.5zM519 105q25 9 31 -22q7 -34 -15 -60
q-7 -7 -16 -11q-42 -17 -75 -17q-59 0 -81 56q-64 -58 -164 -58q-75 0 -120 39.5t-45 106.5t48 107t128 40q91 0 141 -26v5q0 61 -27.5 86t-91.5 25q-88 0 -158 -41q-21 -13 -28 14q-8 32 12 58q4 5 8 8q66 55 202 55q97 0 148.5 -44t51.5 -146v-123q0 -56 29 -56q11 0 22 4
zM231 86q78 0 120 51v40q-32 23 -114 23q-43 0 -64 -16.5t-21 -41.5q0 -24 19 -40t60 -16z" />
    <glyph glyph-name="ae" unicode="&#xe6;" horiz-adv-x="833" 
d="M803 258q0 -36 -91.5 -48.5t-241.5 -14.5q13 -54 51.5 -80.5t92.5 -26.5q66 0 132 33q27 13 35 -15q7 -31 -13 -57q-6 -7 -13 -11q-71 -43 -161 -43q-121 0 -185 83q-24 -37 -79 -61t-125 -24q-78 0 -124.5 38.5t-46.5 102.5q0 65 46 104t124 39h156v1q-3 54 -33 76
t-95 22q-91 0 -161 -41q-21 -13 -26 14q-6 33 14 60q2 3 5 6q55 55 199 55q114 0 156 -72q66 72 171 72q108 0 160.5 -55.5t52.5 -156.5zM467 277q233 2 233 22q0 38 -31 60.5t-86 22.5q-102 0 -116 -105zM238 87q46 0 83 16.5t53 42.5q-8 25 -11 50h-117q-94 0 -94 -53
q0 -56 86 -56z" />
    <glyph glyph-name="ccedilla" unicode="&#xe7;" horiz-adv-x="472" 
d="M413 134q22 14 27 -21q6 -40 -11 -67q-3 -5 -7 -8q-41 -32 -102 -42l24 -69q7 -18 7 -38q0 -36 -25.5 -60t-67.5 -24q-32 0 -73 16q-21 10 -23 46q-3 30 13 30q2 0 5 -1q17 -7 32 -7q31 0 31 31q0 11 -4 22l-20 56q-87 15 -136 73.5t-49 159.5q0 119 66 179.5t179 60.5
q87 0 143 -45q20 -17 19 -64q-1 -39 -19 -37l-9 4q-57 39 -119 39q-143 0 -143 -137q0 -135 143 -135q64 0 119 38z" />
    <glyph glyph-name="egrave" unicode="&#xe8;" horiz-adv-x="514" 
d="M309 552q9 -17 -20 -21q-38 -5 -64 14l-7 7l-103 132q-15 19 24 26q48 8 87 -10q15 -7 20 -16zM485 266q0 -34 -75 -57.5t-173 -23.5q-43 0 -84 6q1 -51 41 -78t96 -27q57 0 137 36q23 10 28 -22q6 -35 -13 -56q-3 -4 -6 -6q-70 -44 -155 -44q-102 0 -174 61t-72 180
q0 109 59.5 172t171.5 63q109 0 164 -52t55 -152zM155 275q35 -4 75 -4q62 0 105 8.5t43 19.5q0 38 -28 60t-79 22q-52 0 -83.5 -25.5t-32.5 -80.5z" />
    <glyph glyph-name="eacute" unicode="&#xe9;" horiz-adv-x="514" 
d="M225 552l64 132q13 25 73 28q54 2 60 -16q2 -6 -3 -12l-103 -132q-15 -22 -59 -22q-36 0 -34 17q1 2 2 5zM485 266q0 -34 -75 -57.5t-173 -23.5q-43 0 -84 6q1 -51 41 -78t96 -27q57 0 137 36q23 10 28 -22q6 -35 -13 -56q-3 -4 -6 -6q-70 -44 -155 -44q-102 0 -174 61
t-72 180q0 109 59.5 172t171.5 63q109 0 164 -52t55 -152zM155 275q35 -4 75 -4q62 0 105 8.5t43 19.5q0 38 -28 60t-79 22q-52 0 -83.5 -25.5t-32.5 -80.5z" />
    <glyph glyph-name="ecircumflex" unicode="&#xea;" horiz-adv-x="514" 
d="M107 545q22 31 71 87.5t62 66.5q9 6 26.5 6.5t26.5 -6.5q13 -10 62.5 -66.5t71.5 -87.5q11 -17 -21 -22q-44 -6 -76 12q-8 5 -12 10q-27 39 -51 64q-24 -25 -51 -64q-17 -22 -69 -23q-43 -1 -43 15q0 4 3 8zM485 266q0 -34 -75 -57.5t-173 -23.5q-43 0 -84 6
q1 -51 41 -78t96 -27q57 0 137 36q23 10 28 -22q6 -35 -13 -56q-3 -4 -6 -6q-70 -44 -155 -44q-102 0 -174 61t-72 180q0 109 59.5 172t171.5 63q109 0 164 -52t55 -152zM155 275q35 -4 75 -4q62 0 105 8.5t43 19.5q0 38 -28 60t-79 22q-52 0 -83.5 -25.5t-32.5 -80.5z" />
    <glyph glyph-name="edieresis" unicode="&#xeb;" horiz-adv-x="514" 
d="M148 530q-29 0 -47.5 19t-18.5 50t18.5 50t47.5 19t47 -19t18 -50t-18 -50t-47 -19zM385 530q-30 0 -48 19t-18 50t18 50t48 19q29 0 47 -19t18 -50t-18 -50t-47 -19zM485 266q0 -34 -75 -57.5t-173 -23.5q-43 0 -84 6q1 -51 41 -78t96 -27q57 0 137 36q23 10 28 -22
q6 -35 -13 -56q-3 -4 -6 -6q-70 -44 -155 -44q-102 0 -174 61t-72 180q0 109 59.5 172t171.5 63q109 0 164 -52t55 -152zM155 275q35 -4 75 -4q62 0 105 8.5t43 19.5q0 38 -28 60t-79 22q-52 0 -83.5 -25.5t-32.5 -80.5z" />
    <glyph glyph-name="igrave" unicode="&#xec;" horiz-adv-x="270" 
d="M166 552q9 -17 -20 -21q-38 -5 -64 14q-4 3 -7 7l-103 132q-15 19 24 26q48 8 87 -10q15 -7 20 -16zM207 103q24 10 30 -20q7 -34 -14 -61q-7 -9 -16 -13q-31 -15 -63 -15q-36 0 -57.5 24.5t-21.5 74.5v314q0 29 46 54q44 25 65 11q7 -5 7 -15v-335q0 -21 15 -21q3 0 9 2
z" />
    <glyph glyph-name="iacute" unicode="&#xed;" horiz-adv-x="270" 
d="M82 552l64 132q13 25 73 28q54 2 60 -16q2 -6 -3 -12l-103 -132q-15 -22 -59 -22q-36 0 -34 17q1 2 2 5zM207 103q24 10 30 -20q7 -34 -14 -61q-7 -9 -16 -13q-31 -15 -63 -15q-36 0 -57.5 24.5t-21.5 74.5v314q0 29 46 54q44 25 65 11q7 -5 7 -15v-335q0 -21 15 -21
q3 0 9 2z" />
    <glyph glyph-name="icircumflex" unicode="&#xee;" horiz-adv-x="270" 
d="M-12 545q18 30 58 86.5t51 67.5q8 7 26.5 7t26.5 -7q11 -11 52 -67.5t57 -86.5q9 -18 -21 -22q-39 -6 -64 13l-9 9q-20 34 -41 61q-21 -27 -41 -61q-15 -23 -59 -24q-37 -1 -38 16q0 4 2 8zM207 103q24 10 30 -20q7 -34 -14 -61q-7 -9 -16 -13q-31 -15 -63 -15
q-36 0 -57.5 24.5t-21.5 74.5v314q0 29 46 54q44 25 65 11q7 -5 7 -15v-335q0 -21 15 -21q3 0 9 2z" />
    <glyph glyph-name="idieresis" unicode="&#xef;" horiz-adv-x="270" 
d="M40 530q-29 0 -46.5 18.5t-17.5 49.5t17.5 49.5t46.5 18.5q28 0 45.5 -18.5t17.5 -49.5t-17.5 -49.5t-45.5 -18.5zM207 530q-29 0 -46.5 18.5t-17.5 49.5t17.5 49.5t46.5 18.5q28 0 45.5 -18.5t17.5 -49.5t-17.5 -49.5t-45.5 -18.5zM207 103q24 10 30 -20q7 -34 -14 -61
q-7 -9 -16 -13q-31 -15 -63 -15q-36 0 -57.5 24.5t-21.5 74.5v314q0 29 46 54q44 25 65 11q7 -5 7 -15v-335q0 -21 15 -21q3 0 9 2z" />
    <glyph glyph-name="eth" unicode="&#xf0;" horiz-adv-x="550" 
d="M485 587l-58 -21q84 -110 84 -325q0 -117 -62 -182.5t-174 -65.5q-111 0 -174 56.5t-63 156.5q0 101 63 157.5t174 56.5q60 0 91 -19q-7 68 -46 125l-131 -49q-21 -7 -25 21q-6 34 14 54q5 6 11 8l73 27q-29 24 -60 41q-29 17 1 38q33 22 72 16q12 -3 20 -7
q41 -23 73 -49l117 44q21 8 25 -21q6 -34 -14 -54q-5 -6 -11 -8zM275 81q56 0 87 32.5t31 92.5q0 61 -31 93.5t-87 32.5q-57 0 -87.5 -32.5t-30.5 -93.5q0 -60 30.5 -92.5t87.5 -32.5z" />
    <glyph glyph-name="ntilde" unicode="&#xf1;" horiz-adv-x="607" 
d="M207 547q0 -18 -23.5 -25.5t-47 0t-23.5 25.5q0 57 26.5 86t62.5 29q30 0 75 -18t59 -18q23 0 23 23q0 18 23.5 25.5t47 0t23.5 -25.5q0 -57 -26 -86t-63 -29q-29 0 -74.5 18.5t-60.5 18.5q-22 0 -22 -24zM555 99q23 11 29 -19q8 -34 -13 -61q-7 -9 -16 -13
q-46 -17 -78 -17q-92 0 -92 130v78v64q0 106 -93 106q-66 0 -126 -68v-276q0 -19 -29 -26.5t-58.5 0t-29.5 26.5v418q0 18 22.5 25t46.5 1.5t29 -18.5l16 -51q73 72 178 72q75 0 118 -44.5t43 -123.5v-128v-37q0 -43 30 -43q12 0 23 5z" />
    <glyph glyph-name="ograve" unicode="&#xf2;" horiz-adv-x="540" 
d="M313 552q9 -17 -20 -21q-38 -5 -64 14l-7 7l-103 132q-15 19 24 26q48 8 87 -10q15 -7 20 -16zM270 -7q-112 0 -174 62.5t-62 175.5t62 176.5t174 63.5t174 -63.5t62 -176.5t-62 -175.5t-174 -62.5zM270 81q56 0 87.5 39t31.5 111q0 73 -31 112.5t-88 39.5t-88 -39.5
t-31 -112.5q0 -72 31.5 -111t87.5 -39z" />
    <glyph glyph-name="oacute" unicode="&#xf3;" horiz-adv-x="540" 
d="M229 552l64 132q13 25 73 28q54 2 60 -16q2 -6 -3 -12l-103 -132q-15 -22 -59 -22q-36 0 -34 17q1 2 2 5zM270 -7q-112 0 -174 62.5t-62 175.5t62 176.5t174 63.5t174 -63.5t62 -176.5t-62 -175.5t-174 -62.5zM270 81q56 0 87.5 39t31.5 111q0 73 -31 112.5t-88 39.5
t-88 -39.5t-31 -112.5q0 -72 31.5 -111t87.5 -39z" />
    <glyph glyph-name="ocircumflex" unicode="&#xf4;" horiz-adv-x="540" 
d="M111 545q22 31 71 87.5t62 66.5q9 6 26.5 6.5t26.5 -6.5q13 -10 62.5 -66.5t71.5 -87.5q11 -17 -21 -22q-44 -6 -76 12q-8 5 -12 10q-27 39 -51 64q-24 -25 -51 -64q-17 -22 -69 -23q-43 -1 -43 15q0 4 3 8zM270 -7q-112 0 -174 62.5t-62 175.5t62 176.5t174 63.5
t174 -63.5t62 -176.5t-62 -175.5t-174 -62.5zM270 81q56 0 87.5 39t31.5 111q0 73 -31 112.5t-88 39.5t-88 -39.5t-31 -112.5q0 -72 31.5 -111t87.5 -39z" />
    <glyph glyph-name="otilde" unicode="&#xf5;" horiz-adv-x="540" 
d="M100 547q0 57 26.5 86t62.5 29q29 0 74 -18t60 -18q23 0 23 23q0 18 23.5 25.5t47 0t23.5 -25.5q0 -57 -26 -86t-63 -29q-29 0 -74.5 18.5t-60.5 18.5q-22 0 -22 -24q0 -18 -23.5 -25.5t-47 0t-23.5 25.5zM270 -7q-112 0 -174 62.5t-62 175.5t62 176.5t174 63.5
t174 -63.5t62 -176.5t-62 -175.5t-174 -62.5zM270 81q56 0 87.5 39t31.5 111q0 73 -31 112.5t-88 39.5t-88 -39.5t-31 -112.5q0 -72 31.5 -111t87.5 -39z" />
    <glyph glyph-name="odieresis" unicode="&#xf6;" horiz-adv-x="540" 
d="M152 530q-29 0 -47.5 19t-18.5 50t18.5 50t47.5 19t47 -19t18 -50t-18 -50t-47 -19zM389 530q-30 0 -48 19t-18 50t18 50t48 19q29 0 47 -19t18 -50t-18 -50t-47 -19zM270 -7q-112 0 -174 62.5t-62 175.5t62 176.5t174 63.5t174 -63.5t62 -176.5t-62 -175.5t-174 -62.5z
M270 81q56 0 87.5 39t31.5 111q0 73 -31 112.5t-88 39.5t-88 -39.5t-31 -112.5q0 -72 31.5 -111t87.5 -39z" />
    <glyph glyph-name="divide" unicode="&#xf7;" horiz-adv-x="503" 
d="M247 518q29 0 46.5 -17t17.5 -45t-17.5 -45t-46.5 -17q-28 0 -46.5 17.5t-18.5 44.5t18.5 44.5t46.5 17.5zM57 240q-19 0 -26.5 26t0 51.5t26.5 25.5h406q27 0 16 -36q-11 -38 -41 -58q-13 -9 -25 -9h-356zM247 190q28 0 46 -17.5t18 -45.5t-17.5 -45t-46.5 -17
q-28 0 -46.5 17.5t-18.5 44.5q0 28 18.5 45.5t46.5 17.5z" />
    <glyph glyph-name="oslash" unicode="&#xf8;" horiz-adv-x="554" 
d="M408 483q20 26 72 27q40 1 41 -16q0 -5 -5 -11q-33 -39 -66 -81q57 -62 57 -170q0 -113 -62 -176t-174 -63q-54 0 -100 16l-27 -42q-15 -25 -65 -26q-41 -2 -44 16q-1 5 3 11q10 17 30.5 48t27.5 41q-61 64 -61 175q0 112 62.5 175.5t173.5 63.5q63 0 111 -21q8 11 26 33
zM152 232q0 -45 12 -76q67 96 157 217q-20 10 -50 10q-57 0 -88 -39.5t-31 -111.5zM271 81q57 0 88 39t31 112q0 42 -11 75q-92 -127 -155 -218q22 -8 47 -8z" />
    <glyph glyph-name="ugrave" unicode="&#xf9;" horiz-adv-x="608" 
d="M228 552l-103 132q-15 19 24 26q48 8 87 -10q15 -7 20 -16l63 -132q9 -17 -20 -21q-38 -5 -64 14zM555 105q23 11 29 -20q8 -35 -14 -62q-6 -8 -15 -12q-46 -17 -78 -17q-68 0 -86 74q-73 -74 -180 -74q-75 0 -118 44.5t-43 122.5v247q0 29 46 54q44 24 63 11q7 -5 7 -15
v-256q0 -106 93 -106q67 0 126 69v276q0 19 29 26.5t58.5 0t29.5 -26.5v-299q0 -43 30 -43q10 0 23 6z" />
    <glyph glyph-name="uacute" unicode="&#xfa;" horiz-adv-x="608" 
d="M326 552q-15 -22 -59 -22q-36 0 -34 17q1 2 2 5l64 132q13 25 73 28q54 2 60 -16q2 -6 -3 -12zM555 105q23 11 29 -20q8 -35 -14 -62q-6 -8 -15 -12q-46 -17 -78 -17q-68 0 -86 74q-73 -74 -180 -74q-75 0 -118 44.5t-43 122.5v247q0 29 46 54q44 24 63 11q7 -5 7 -15
v-256q0 -106 93 -106q67 0 126 69v276q0 19 29 26.5t58.5 0t29.5 -26.5v-299q0 -43 30 -43q10 0 23 6z" />
    <glyph glyph-name="ucircumflex" unicode="&#xfb;" horiz-adv-x="608" 
d="M226 545q-17 -22 -69 -23q-43 -1 -43 15q0 4 3 8q22 31 71 87.5t62 66.5q9 6 26.5 6.5t26.5 -6.5q13 -10 62.5 -66.5t71.5 -87.5q11 -17 -21 -22q-44 -6 -76 12q-8 5 -12 10q-27 39 -51 64q-24 -25 -51 -64zM555 105q23 11 29 -20q8 -35 -14 -62q-6 -8 -15 -12
q-46 -17 -78 -17q-68 0 -86 74q-73 -74 -180 -74q-75 0 -118 44.5t-43 122.5v247q0 29 46 54q44 24 63 11q7 -5 7 -15v-256q0 -106 93 -106q67 0 126 69v276q0 19 29 26.5t58.5 0t29.5 -26.5v-299q0 -43 30 -43q10 0 23 6z" />
    <glyph glyph-name="udieresis" unicode="&#xfc;" horiz-adv-x="608" 
d="M158 530q-29 0 -47.5 19t-18.5 50t18.5 50t47.5 19t47 -19t18 -50t-18 -50t-47 -19zM395 530q-30 0 -48 19t-18 50t18 50t48 19q29 0 47 -19t18 -50t-18 -50t-47 -19zM555 105q23 11 29 -20q8 -35 -14 -62q-6 -8 -15 -12q-46 -17 -78 -17q-68 0 -86 74q-73 -74 -180 -74
q-75 0 -118 44.5t-43 122.5v247q0 29 46 54q44 24 63 11q7 -5 7 -15v-256q0 -106 93 -106q67 0 126 69v276q0 19 29 26.5t58.5 0t29.5 -26.5v-299q0 -43 30 -43q10 0 23 6z" />
    <glyph glyph-name="yacute" unicode="&#xfd;" horiz-adv-x="560" 
d="M329 552q-15 -22 -59 -22q-36 0 -34 17q1 2 2 5l64 132q13 25 73 28q54 2 60 -16q2 -6 -3 -12zM416 438q9 27 61 31q49 4 61 -16q4 -7 1 -15q-91 -260 -253 -536q-62 -106 -148 -106q-38 0 -78 20q-23 13 -22 54q2 36 21 41q7 2 16 -3q22 -13 42 -13q42 0 81 69
q22 40 33 61q-139 210 -211 412q-9 24 29 31q44 9 77 -11q14 -9 18 -20q47 -147 142 -305q73 148 130 306z" />
    <glyph glyph-name="thorn" unicode="&#xfe;" horiz-adv-x="550" 
d="M333 470q80 0 129 -65t49 -172q0 -109 -49 -174t-129 -65q-92 0 -158 56v-229q0 -18 -29.5 -26t-58.5 0t-29 26v800q0 28 44 51q45 22 66 7q7 -5 7 -15v-247q64 53 158 53zM282 96q55 -1 83.5 34t28.5 103q0 66 -28.5 100.5t-83.5 33.5q-58 0 -107 -46v-176
q47 -49 107 -49z" />
    <glyph glyph-name="ydieresis" unicode="&#xff;" horiz-adv-x="560" 
d="M161 530q-29 0 -47.5 19t-18.5 50t18.5 50t47.5 19t47 -19t18 -50t-18 -50t-47 -19zM398 530q-30 0 -48 19t-18 50t18 50t48 19q29 0 47 -19t18 -50t-18 -50t-47 -19zM416 438q9 27 61 31q49 4 61 -16q4 -7 1 -15q-91 -260 -253 -536q-62 -106 -148 -106q-38 0 -78 20
q-23 13 -22 54q2 36 21 41q7 2 16 -3q22 -13 42 -13q42 0 81 69q22 40 33 61q-139 210 -211 412q-9 24 29 31q44 9 77 -11q14 -9 18 -20q47 -147 142 -305q73 148 130 306z" />
    <glyph glyph-name="Amacron" unicode="&#x100;" horiz-adv-x="627" 
d="M175 703q-30 0 -56 40q-24 38 -9 53q5 5 14 5h368q19 0 26.5 -24.5t0 -49t-26.5 -24.5h-317zM606 23q7 -20 -27 -28q-46 -10 -85 8q-17 8 -21 20q-15 50 -45 144h-229q-30 -94 -45 -144q-8 -26 -63 -30q-53 -4 -68 15q-5 7 -2 15q58 175 145.5 368t133.5 242q5 5 13.5 5
t13.5 -5q46 -49 133.5 -242t145.5 -368zM233 266h161q-36 99 -80 195q-44 -92 -81 -195z" />
    <glyph glyph-name="amacron" unicode="&#x101;" horiz-adv-x="572" 
d="M114 540q-30 0 -56 40q-24 38 -9 53q5 5 14 5h368q19 0 26.5 -24.5t0 -49t-26.5 -24.5h-317zM519 105q25 9 31 -22q7 -34 -15 -60q-7 -7 -16 -11q-42 -17 -75 -17q-59 0 -81 56q-64 -58 -164 -58q-75 0 -120 39.5t-45 106.5t48 107t128 40q91 0 141 -26v5q0 61 -27.5 86
t-91.5 25q-88 0 -158 -41q-21 -13 -28 14q-8 32 12 58q4 5 8 8q66 55 202 55q97 0 148.5 -44t51.5 -146v-123q0 -56 29 -56q11 0 22 4zM231 86q78 0 120 51v40q-32 23 -114 23q-43 0 -64 -16.5t-21 -41.5q0 -24 19 -40t60 -16z" />
    <glyph glyph-name="Abreve" unicode="&#x102;" horiz-adv-x="627" 
d="M313 693q-75 0 -116.5 39t-41.5 105q0 18 20.5 26t41.5 0t21 -26q0 -32 20.5 -50.5t54.5 -18.5t55 19t21 50q0 18 20.5 26t41 0t20.5 -26q0 -68 -42 -106t-116 -38zM606 23q7 -20 -27 -28q-46 -10 -85 8q-17 8 -21 20q-15 50 -45 144h-229q-30 -94 -45 -144
q-8 -26 -63 -30q-53 -4 -68 15q-5 7 -2 15q58 175 145.5 368t133.5 242q5 5 13.5 5t13.5 -5q46 -49 133.5 -242t145.5 -368zM233 266h161q-36 99 -80 195q-44 -92 -81 -195z" />
    <glyph glyph-name="abreve" unicode="&#x103;" horiz-adv-x="572" 
d="M252 530q-75 0 -116.5 39t-41.5 105q0 18 21 26t41.5 0t20.5 -26q0 -32 20.5 -50.5t54.5 -18.5t55 19t21 50q0 18 20.5 26t41 0t20.5 -26q0 -68 -42 -106t-116 -38zM519 105q25 9 31 -22q7 -34 -15 -60q-7 -7 -16 -11q-42 -17 -75 -17q-59 0 -81 56q-64 -58 -164 -58
q-75 0 -120 39.5t-45 106.5t48 107t128 40q91 0 141 -26v5q0 61 -27.5 86t-91.5 25q-88 0 -158 -41q-21 -13 -28 14q-8 32 12 58q4 5 8 8q66 55 202 55q97 0 148.5 -44t51.5 -146v-123q0 -56 29 -56q11 0 22 4zM231 86q78 0 120 51v40q-32 23 -114 23q-43 0 -64 -16.5
t-21 -41.5q0 -24 19 -40t60 -16z" />
    <glyph glyph-name="Aogonek" unicode="&#x104;" horiz-adv-x="611" 
d="M493 -52q-24 -22 -24 -37q0 -21 27 -21q18 0 45 12q18 8 21 -19q3 -32 -15 -49q-2 -2 -4 -3q-45 -26 -91 -26q-42 0 -68.5 26t-26.5 64q0 50 43 88l67 60q-26 84 -39 124h-229q-30 -94 -45 -144q-8 -26 -63 -30q-53 -4 -68 15q-5 7 -2 15q58 175 145.5 368t133.5 242
q5 5 13.5 5t13.5 -5q43 -45 122.5 -217.5t138.5 -340.5q9 -25 -12 -48zM233 266h161q-36 99 -80 195q-44 -92 -81 -195z" />
    <glyph glyph-name="aogonek" unicode="&#x105;" horiz-adv-x="521" 
d="M268 470q97 0 148.5 -44t51.5 -146v-123v-118q0 -17 -20 -37l-58 -54q-23 -21 -23 -37q0 -21 27 -21q13 0 44 12q19 8 21 -19q4 -31 -14 -48l-4 -4q-45 -26 -91 -26q-43 0 -69 23.5t-26 58.5q0 47 42 86l54 48v28q-62 -56 -152 -56q-75 0 -120 39.5t-45 106.5t48 107
t128 40q91 0 141 -26v5q0 61 -27.5 86t-91.5 25q-88 0 -158 -41q-21 -13 -28 14q-8 32 12 58q4 5 8 8q66 55 202 55zM231 86q78 0 120 51v40q-32 23 -114 23q-43 0 -64 -16.5t-21 -41.5q0 -24 19 -40t60 -16z" />
    <glyph glyph-name="Cacute" unicode="&#x106;" horiz-adv-x="541" 
d="M282 715l64 132q13 25 73 28q54 2 60 -16q2 -6 -3 -12l-103 -132q-15 -22 -59 -22q-36 0 -34 17q1 2 2 5zM33 314q0 160 78.5 241.5t211.5 81.5q55 0 103.5 -14t72.5 -32q22 -15 21 -61q-1 -39 -20 -38l-9 3q-25 15 -68.5 27t-84.5 12q-79 0 -130.5 -55t-51.5 -165
q0 -109 51.5 -163.5t130.5 -54.5q40 0 84 12t69 26q21 12 27 -21q8 -39 -10 -66q-4 -6 -9 -9q-24 -18 -72.5 -31.5t-103.5 -13.5q-133 0 -211.5 81.5t-78.5 239.5z" />
    <glyph glyph-name="cacute" unicode="&#x107;" horiz-adv-x="472" 
d="M219 552l64 132q13 25 73 28q54 2 60 -16q2 -6 -3 -12l-103 -132q-15 -22 -59 -22q-36 0 -34 17q1 2 2 5zM34 231q0 119 66 179.5t179 60.5q87 0 143 -45q20 -17 19 -64q-1 -39 -19 -37l-9 4q-57 39 -119 39q-143 0 -143 -137q0 -135 143 -135q64 0 119 38q22 14 27 -21
q6 -40 -11 -67q-3 -5 -7 -8q-59 -45 -143 -45q-113 0 -179 60.5t-66 177.5z" />
    <glyph glyph-name="Ccircumflex" unicode="&#x108;" horiz-adv-x="541" 
d="M164 708q22 31 71 87.5t62 66.5q9 6 26.5 6.5t26.5 -6.5q13 -10 62.5 -66.5t71.5 -87.5q11 -17 -21 -22q-44 -6 -76 12q-8 5 -12 10q-27 39 -51 64q-24 -25 -51 -64q-17 -22 -69 -23q-43 -1 -43 15q0 4 3 8zM33 314q0 160 78.5 241.5t211.5 81.5q55 0 103.5 -14t72.5 -32
q22 -15 21 -61q-1 -39 -20 -38l-9 3q-25 15 -68.5 27t-84.5 12q-79 0 -130.5 -55t-51.5 -165q0 -109 51.5 -163.5t130.5 -54.5q40 0 84 12t69 26q21 12 27 -21q8 -39 -10 -66q-4 -6 -9 -9q-24 -18 -72.5 -31.5t-103.5 -13.5q-133 0 -211.5 81.5t-78.5 239.5z" />
    <glyph glyph-name="ccircumflex" unicode="&#x109;" horiz-adv-x="472" 
d="M101 545q22 31 71 87.5t62 66.5q9 6 26.5 6.5t26.5 -6.5q13 -10 62.5 -66.5t71.5 -87.5q11 -17 -21 -22q-44 -6 -76 12q-8 5 -12 10q-27 39 -51 64q-24 -25 -51 -64q-17 -22 -69 -23q-43 -1 -43 15q0 4 3 8zM34 231q0 119 66 179.5t179 60.5q87 0 143 -45q20 -17 19 -64
q-1 -39 -19 -37l-9 4q-57 39 -119 39q-143 0 -143 -137q0 -135 143 -135q64 0 119 38q22 14 27 -21q6 -40 -11 -67q-3 -5 -7 -8q-59 -45 -143 -45q-113 0 -179 60.5t-66 177.5z" />
    <glyph glyph-name="Cdotaccent" unicode="&#x10a;" horiz-adv-x="541" 
d="M323 716q-32 0 -50.5 19.5t-18.5 52.5q0 32 19 52t50 20q30 0 49 -20t19 -52q0 -33 -19 -52.5t-49 -19.5zM33 314q0 160 78.5 241.5t211.5 81.5q55 0 103.5 -14t72.5 -32q22 -15 21 -61q-1 -39 -20 -38l-9 3q-25 15 -68.5 27t-84.5 12q-79 0 -130.5 -55t-51.5 -165
q0 -109 51.5 -163.5t130.5 -54.5q40 0 84 12t69 26q21 12 27 -21q8 -39 -10 -66q-4 -6 -9 -9q-24 -18 -72.5 -31.5t-103.5 -13.5q-133 0 -211.5 81.5t-78.5 239.5z" />
    <glyph glyph-name="cdotaccent" unicode="&#x10b;" horiz-adv-x="472" 
d="M260 553q-32 0 -50.5 19.5t-18.5 52.5q0 32 19 52t50 20q30 0 49 -20t19 -52q0 -33 -19 -52.5t-49 -19.5zM34 231q0 119 66 179.5t179 60.5q87 0 143 -45q20 -17 19 -64q-1 -39 -19 -37l-9 4q-57 39 -119 39q-143 0 -143 -137q0 -135 143 -135q64 0 119 38q22 14 27 -21
q6 -40 -11 -67q-3 -5 -7 -8q-59 -45 -143 -45q-113 0 -179 60.5t-66 177.5z" />
    <glyph glyph-name="Ccaron" unicode="&#x10c;" horiz-adv-x="541" 
d="M162 853q-11 16 20 21q42 7 75 -10q10 -5 14 -11q31 -42 52 -64q23 25 52 64q15 22 68 22q44 1 43 -16q-1 -3 -3 -6q-20 -30 -70 -86.5t-64 -67.5q-9 -5 -26 -5t-26 5q-14 10 -63 66t-72 88zM33 314q0 160 78.5 241.5t211.5 81.5q55 0 103.5 -14t72.5 -32q22 -15 21 -61
q-1 -39 -20 -38l-9 3q-25 15 -68.5 27t-84.5 12q-79 0 -130.5 -55t-51.5 -165q0 -109 51.5 -163.5t130.5 -54.5q40 0 84 12t69 26q21 12 27 -21q8 -39 -10 -66q-4 -6 -9 -9q-24 -18 -72.5 -31.5t-103.5 -13.5q-133 0 -211.5 81.5t-78.5 239.5z" />
    <glyph glyph-name="ccaron" unicode="&#x10d;" horiz-adv-x="472" 
d="M99 690q-11 16 20 21q42 7 75 -10q10 -5 14 -11q31 -42 52 -64q23 25 52 64q15 22 68 22q44 1 43 -16q-1 -3 -3 -6q-20 -30 -70 -86.5t-64 -67.5q-9 -5 -26 -5t-26 5q-14 10 -63 66t-72 88zM34 231q0 119 66 179.5t179 60.5q87 0 143 -45q20 -17 19 -64q-1 -39 -19 -37
l-9 4q-57 39 -119 39q-143 0 -143 -137q0 -135 143 -135q64 0 119 38q22 14 27 -21q6 -40 -11 -67q-3 -5 -7 -8q-59 -45 -143 -45q-113 0 -179 60.5t-66 177.5z" />
    <glyph glyph-name="Dcaron" unicode="&#x10e;" horiz-adv-x="595" 
d="M234 699q-14 10 -63 66t-72 88q-11 16 20 21q42 7 75 -10q10 -5 14 -11q31 -42 52 -64q23 25 52 64q15 22 68 22q44 1 43 -16q-1 -3 -3 -6q-20 -30 -70 -86.5t-64 -67.5q-9 -5 -26 -5t-26 5zM260 637q148 0 228 -84t80 -238t-77 -238t-218 -84q-155 0 -201 32
q-14 11 -14 21v538q0 15 19 25q47 28 183 28zM266 96q183 0 183 219q0 220 -188 220q-58 0 -85 -8l-1 -423q27 -8 91 -8z" />
    <glyph glyph-name="dcaron" unicode="&#x10f;" horiz-adv-x="665" 
d="M584 686q9 23 64 25q48 2 54 -15q2 -5 -1 -10l-75 -131q-14 -23 -56 -24q-35 -1 -35 17q0 3 1 7zM544 105q23 11 30 -19q8 -34 -13 -61q-7 -9 -17 -13q-44 -17 -76 -17q-65 0 -84 63q-66 -64 -168 -64q-80 0 -129 65.5t-49 173.5q0 106 49 171.5t129 65.5q95 0 159 -53
v200q0 29 46 54q45 25 64 11q7 -5 7 -15v-469v-56q0 -42 29 -42q8 0 23 5zM267 96q60 0 108 50v175q-49 46 -108 46q-54 1 -82 -33.5t-28 -100.5q0 -68 27.5 -103t82.5 -34z" />
    <glyph glyph-name="Dcroat" unicode="&#x110;" horiz-adv-x="651" 
d="M316 637q148 0 228.5 -83.5t80.5 -238.5q0 -154 -77 -238t-218 -84t-194 28q-21 12 -21 25v219h-68q-18 0 -26 25.5t0 51.5t26 26h68v216q0 16 25 28q52 25 176 25zM322 94q185 0 185 221q0 223 -189 223q-59 0 -86 -8v-162h76q19 0 26.5 -26t0 -51.5t-26.5 -25.5h-77
v-162q30 -9 91 -9z" />
    <glyph glyph-name="dcroat" unicode="&#x111;" horiz-adv-x="590" 
d="M544 105q23 11 30 -19q8 -34 -13 -61q-7 -9 -17 -13q-44 -17 -76 -17q-65 0 -84 63q-66 -64 -168 -64q-80 0 -129 65t-49 172q0 106 49 170.5t129 64.5q94 0 159 -52v89h-87q-31 0 -57 40q-23 36 -7 49q5 4 13 4h138v21q0 29 46 54q45 25 64 11q7 -5 7 -15v-71h57
q19 0 27 -23t0 -46.5t-27 -23.5h-57v-305v-56q0 -42 29 -42q8 0 23 5zM267 96q60 0 108 50v171q-49 46 -108 46q-55 1 -82.5 -32.5t-27.5 -99.5q0 -68 27.5 -102t82.5 -33z" />
    <glyph glyph-name="Emacron" unicode="&#x112;" horiz-adv-x="513" 
d="M127 703q-30 0 -56 40q-24 38 -9 53q5 5 14 5h368q19 0 26.5 -24.5t0 -49t-26.5 -24.5h-317zM457 103q19 0 26.5 -25.5t0 -51.5t-26.5 -26h-377q-22 0 -22 44v544q0 17 6 29.5t16 12.5h386q27 0 16 -36q-11 -38 -42 -58q-13 -9 -25 -9h-240v-157h212q18 0 26 -26t0 -51.5
t-26 -25.5h-213v-164h283z" />
    <glyph glyph-name="emacron" unicode="&#x113;" horiz-adv-x="514" 
d="M128 540q-30 0 -56 40q-24 38 -9 53q5 5 14 5h368q19 0 26.5 -24.5t0 -49t-26.5 -24.5h-317zM485 266q0 -34 -75 -57.5t-173 -23.5q-43 0 -84 6q1 -51 41 -78t96 -27q57 0 137 36q23 10 28 -22q6 -35 -13 -56q-3 -4 -6 -6q-70 -44 -155 -44q-102 0 -174 61t-72 180
q0 109 59.5 172t171.5 63q109 0 164 -52t55 -152zM155 275q35 -4 75 -4q62 0 105 8.5t43 19.5q0 38 -28 60t-79 22q-52 0 -83.5 -25.5t-32.5 -80.5z" />
    <glyph glyph-name="Ebreve" unicode="&#x114;" horiz-adv-x="513" 
d="M265 693q-75 0 -116.5 39t-41.5 105q0 18 20.5 26t41.5 0t21 -26q0 -32 20.5 -50.5t54.5 -18.5t55 19t21 50q0 18 20.5 26t41 0t20.5 -26q0 -68 -42 -106t-116 -38zM457 103q19 0 26.5 -25.5t0 -51.5t-26.5 -26h-377q-22 0 -22 44v544q0 17 6 29.5t16 12.5h386
q27 0 16 -36q-11 -38 -42 -58q-13 -9 -25 -9h-240v-157h212q18 0 26 -26t0 -51.5t-26 -25.5h-213v-164h283z" />
    <glyph glyph-name="ebreve" unicode="&#x115;" horiz-adv-x="514" 
d="M424 674q0 -68 -42 -106t-116 -38q-75 0 -116.5 39t-41.5 105q0 18 21 26t41.5 0t20.5 -26q0 -32 20.5 -50.5t54.5 -18.5t55 19t21 50q0 18 20.5 26t41 0t20.5 -26zM485 266q0 -34 -75 -57.5t-173 -23.5q-43 0 -84 6q1 -51 41 -78t96 -27q57 0 137 36q23 10 28 -22
q6 -35 -13 -56q-3 -4 -6 -6q-70 -44 -155 -44q-102 0 -174 61t-72 180q0 109 59.5 172t171.5 63q109 0 164 -52t55 -152zM155 275q35 -4 75 -4q62 0 105 8.5t43 19.5q0 38 -28 60t-79 22q-52 0 -83.5 -25.5t-32.5 -80.5z" />
    <glyph glyph-name="Edotaccent" unicode="&#x116;" horiz-adv-x="513" 
d="M265 716q-32 0 -50.5 19.5t-18.5 52.5q0 32 19 52t50 20q30 0 49 -20t19 -52q0 -33 -19 -52.5t-49 -19.5zM457 103q19 0 26.5 -25.5t0 -51.5t-26.5 -26h-377q-22 0 -22 44v544q0 17 6 29.5t16 12.5h386q27 0 16 -36q-11 -38 -42 -58q-13 -9 -25 -9h-240v-157h212
q18 0 26 -26t0 -51.5t-26 -25.5h-213v-164h283z" />
    <glyph glyph-name="edotaccent" unicode="&#x117;" horiz-adv-x="514" 
d="M266 553q-32 0 -50.5 19.5t-18.5 52.5q0 32 19 52t50 20q30 0 49 -20t19 -52q0 -33 -19 -52.5t-49 -19.5zM485 266q0 -34 -75 -57.5t-173 -23.5q-43 0 -84 6q1 -51 41 -78t96 -27q57 0 137 36q23 10 28 -22q6 -35 -13 -56q-3 -4 -6 -6q-70 -44 -155 -44q-102 0 -174 61
t-72 180q0 109 59.5 172t171.5 63q109 0 164 -52t55 -152zM155 275q35 -4 75 -4q62 0 105 8.5t43 19.5q0 38 -28 60t-79 22q-52 0 -83.5 -25.5t-32.5 -80.5z" />
    <glyph glyph-name="Eogonek" unicode="&#x118;" horiz-adv-x="517" 
d="M457 -98q19 9 21 -18q4 -33 -14 -50q-2 -2 -4 -3q-45 -26 -90 -26q-42 0 -68 26t-26 64q0 51 42 88l19 17h-257q-22 0 -22 44v544q0 17 6 29.5t16 12.5h386q27 0 16 -36q-11 -38 -42 -58q-13 -9 -25 -9h-240v-157h212q18 0 26 -26t0 -51.5t-26 -25.5h-213v-164h283
q24 0 31.5 -36.5t-15.5 -59.5l-62 -59q-23 -21 -23 -37q0 -21 26 -21q18 0 43 12z" />
    <glyph glyph-name="eogonek" unicode="&#x119;" horiz-adv-x="514" 
d="M485 266q0 -34 -75 -57.5t-173 -23.5q-43 0 -84 6q1 -51 41 -78t96 -27q57 0 137 36q23 10 29 -22q6 -34 -12 -55l-3 -3l-98 -94q-24 -22 -24 -37q0 -21 27 -21q12 0 45 12q18 8 21 -19q3 -31 -15 -48l-4 -4q-45 -26 -91 -26q-42 0 -68.5 23.5t-26.5 57.5q0 42 42 79
l32 29q-102 0 -174 61t-72 180q0 109 59.5 172t171.5 63q109 0 164 -52t55 -152zM155 275q35 -4 75 -4q62 0 105 8.5t43 19.5q0 38 -28 60t-79 22q-52 0 -83.5 -25.5t-32.5 -80.5z" />
    <glyph glyph-name="Ecaron" unicode="&#x11a;" horiz-adv-x="513" 
d="M239 699q-14 10 -63 66t-72 88q-11 16 20 21q42 7 75 -10q10 -5 14 -11q31 -42 52 -64q23 25 52 64q15 22 68 22q44 1 43 -16q-1 -3 -3 -6q-20 -30 -70 -86.5t-64 -67.5q-9 -5 -26 -5t-26 5zM457 103q19 0 26.5 -25.5t0 -51.5t-26.5 -26h-377q-22 0 -22 44v544
q0 17 6 29.5t16 12.5h386q27 0 16 -36q-11 -38 -42 -58q-13 -9 -25 -9h-240v-157h212q18 0 26 -26t0 -51.5t-26 -25.5h-213v-164h283z" />
    <glyph glyph-name="ecaron" unicode="&#x11b;" horiz-adv-x="514" 
d="M105 690q-11 16 20 21q42 7 75 -10q10 -5 14 -11q31 -42 52 -64q23 25 52 64q15 22 68 22q44 1 43 -16q-1 -3 -3 -6q-20 -30 -70 -86.5t-64 -67.5q-9 -5 -26 -5t-26 5q-14 10 -63 66t-72 88zM485 266q0 -34 -75 -57.5t-173 -23.5q-43 0 -84 6q1 -51 41 -78t96 -27
q57 0 137 36q23 10 28 -22q6 -35 -13 -56q-3 -4 -6 -6q-70 -44 -155 -44q-102 0 -174 61t-72 180q0 109 59.5 172t171.5 63q109 0 164 -52t55 -152zM155 275q35 -4 75 -4q62 0 105 8.5t43 19.5q0 38 -28 60t-79 22q-52 0 -83.5 -25.5t-32.5 -80.5z" />
    <glyph glyph-name="Gcircumflex" unicode="&#x11c;" horiz-adv-x="590" 
d="M269 708q-17 -22 -69 -23q-43 -1 -43 15q0 4 3 8q22 31 71 87.5t62 66.5q9 6 26.5 6.5t26.5 -6.5q13 -10 62.5 -66.5t71.5 -87.5q11 -17 -21 -22q-44 -6 -76 12q-8 5 -12 10q-27 39 -51 64q-24 -25 -51 -64zM499 348q21 0 37 -6t16 -16v-222q0 -49 -19 -66
q-22 -19 -75 -32t-118 -13q-140 0 -223.5 81t-83.5 240q0 160 82 241.5t220 81.5q61 0 112.5 -13t73.5 -33q20 -19 19 -63q-1 -37 -19 -34q-4 0 -8 3q-24 16 -71 28t-89 12q-92 0 -147.5 -55.5t-55.5 -167.5q0 -111 57 -166t148 -55q39 0 81 8v145h-132q-25 0 -12 38
q14 39 43 57q10 7 19 7h145z" />
    <glyph glyph-name="gcircumflex" unicode="&#x11d;" horiz-adv-x="572" 
d="M214 545q-17 -22 -69 -23q-43 -1 -43 15q0 4 3 8q22 31 71 87.5t62 66.5q9 6 26.5 6.5t26.5 -6.5q13 -10 62.5 -66.5t71.5 -87.5q11 -17 -21 -22q-44 -6 -76 12q-8 5 -12 10q-27 39 -51 64q-24 -25 -51 -64zM545 512q17 0 19.5 -26t-9 -52t-28.5 -26q-35 -2 -59 -15
q22 -32 22 -78q0 -73 -57 -113.5t-161 -40.5q-38 0 -69 6q-30 -13 -30 -36q0 -21 21.5 -29t61.5 -9q31 -1 46.5 -2t46 -4.5t48 -8.5t40.5 -14.5t35.5 -22.5t21.5 -32.5t9 -44.5q0 -79 -57 -125.5t-162 -46.5q-115 0 -172 42.5t-57 109.5q0 53 38 88q-38 23 -38 68
q0 66 68 94q-69 41 -69 121q0 74 57.5 115t160.5 41q87 0 144 -30q50 70 129 71zM272 246q48 0 74.5 18t26.5 51q0 34 -26.5 52.5t-74.5 18.5t-74 -18.5t-26 -52.5q0 -33 26.5 -51t73.5 -18zM198 7q-25 -17 -25 -55q0 -34 30 -54.5t81 -20.5q47 0 74.5 20t27.5 54
q0 24 -20.5 36t-44 14.5t-67.5 3.5h-3.5h-3.5q-34 2 -49 2z" />
    <glyph glyph-name="Gbreve" unicode="&#x11e;" horiz-adv-x="590" 
d="M319 693q-75 0 -116.5 39t-41.5 105q0 18 20.5 26t41.5 0t21 -26q0 -32 20.5 -50.5t54.5 -18.5t55 19t21 50q0 18 20.5 26t41 0t20.5 -26q0 -68 -42 -106t-116 -38zM499 348q21 0 37 -6t16 -16v-222q0 -49 -19 -66q-22 -19 -75 -32t-118 -13q-140 0 -223.5 81t-83.5 240
q0 160 82 241.5t220 81.5q61 0 112.5 -13t73.5 -33q20 -19 19 -63q-1 -37 -19 -34q-4 0 -8 3q-24 16 -71 28t-89 12q-92 0 -147.5 -55.5t-55.5 -167.5q0 -111 57 -166t148 -55q39 0 81 8v145h-132q-25 0 -12 38q14 39 43 57q10 7 19 7h145z" />
    <glyph glyph-name="gbreve" unicode="&#x11f;" horiz-adv-x="572" 
d="M264 530q-75 0 -116.5 39t-41.5 105q0 18 21 26t41.5 0t20.5 -26q0 -32 20.5 -50.5t54.5 -18.5t55 19t21 50q0 18 20.5 26t41 0t20.5 -26q0 -68 -42 -106t-116 -38zM545 512q17 0 19.5 -26t-9 -52t-28.5 -26q-35 -2 -59 -15q22 -32 22 -78q0 -73 -57 -113.5t-161 -40.5
q-38 0 -69 6q-30 -13 -30 -36q0 -21 21.5 -29t61.5 -9q31 -1 46.5 -2t46 -4.5t48 -8.5t40.5 -14.5t35.5 -22.5t21.5 -32.5t9 -44.5q0 -79 -57 -125.5t-162 -46.5q-115 0 -172 42.5t-57 109.5q0 53 38 88q-38 23 -38 68q0 66 68 94q-69 41 -69 121q0 74 57.5 115t160.5 41
q87 0 144 -30q50 70 129 71zM272 246q48 0 74.5 18t26.5 51q0 34 -26.5 52.5t-74.5 18.5t-74 -18.5t-26 -52.5q0 -33 26.5 -51t73.5 -18zM198 7q-25 -17 -25 -55q0 -34 30 -54.5t81 -20.5q47 0 74.5 20t27.5 54q0 24 -20.5 36t-44 14.5t-67.5 3.5h-3.5h-3.5q-34 2 -49 2z
" />
    <glyph glyph-name="Gdotaccent" unicode="&#x120;" horiz-adv-x="590" 
d="M319 716q-32 0 -50.5 19.5t-18.5 52.5q0 32 19 52t50 20q30 0 49 -20t19 -52q0 -33 -19 -52.5t-49 -19.5zM499 348q21 0 37 -6t16 -16v-222q0 -49 -19 -66q-22 -19 -75 -32t-118 -13q-140 0 -223.5 81t-83.5 240q0 160 82 241.5t220 81.5q61 0 112.5 -13t73.5 -33
q20 -19 19 -63q-1 -37 -19 -34q-4 0 -8 3q-24 16 -71 28t-89 12q-92 0 -147.5 -55.5t-55.5 -167.5q0 -111 57 -166t148 -55q39 0 81 8v145h-132q-25 0 -12 38q14 39 43 57q10 7 19 7h145z" />
    <glyph glyph-name="gdotaccent" unicode="&#x121;" horiz-adv-x="572" 
d="M264 553q-32 0 -50.5 19.5t-18.5 52.5q0 32 19 52t50 20q30 0 49 -20t19 -52q0 -33 -19 -52.5t-49 -19.5zM545 512q17 0 19.5 -26t-9 -52t-28.5 -26q-35 -2 -59 -15q22 -32 22 -78q0 -73 -57 -113.5t-161 -40.5q-38 0 -69 6q-30 -13 -30 -36q0 -21 21.5 -29t61.5 -9
q31 -1 46.5 -2t46 -4.5t48 -8.5t40.5 -14.5t35.5 -22.5t21.5 -32.5t9 -44.5q0 -79 -57 -125.5t-162 -46.5q-115 0 -172 42.5t-57 109.5q0 53 38 88q-38 23 -38 68q0 66 68 94q-69 41 -69 121q0 74 57.5 115t160.5 41q87 0 144 -30q50 70 129 71zM272 246q48 0 74.5 18
t26.5 51q0 34 -26.5 52.5t-74.5 18.5t-74 -18.5t-26 -52.5q0 -33 26.5 -51t73.5 -18zM198 7q-25 -17 -25 -55q0 -34 30 -54.5t81 -20.5q47 0 74.5 20t27.5 54q0 24 -20.5 36t-44 14.5t-67.5 3.5h-3.5h-3.5q-34 2 -49 2z" />
    <glyph glyph-name="Gcommaaccent" unicode="&#x122;" horiz-adv-x="590" 
d="M499 348q21 0 37 -6t16 -16v-222q0 -49 -19 -66q-22 -19 -75 -32t-118 -13q-140 0 -223.5 81t-83.5 240q0 160 82 241.5t220 81.5q61 0 112.5 -13t73.5 -33q20 -19 19 -63q-1 -37 -19 -34q-4 0 -8 3q-24 16 -71 28t-89 12q-92 0 -147.5 -55.5t-55.5 -167.5
q0 -111 57 -166t148 -55q39 0 81 8v145h-132q-25 0 -12 38q14 39 43 57q10 7 19 7h145zM270 -61q8 23 62 26q49 2 55 -16q2 -5 -1 -10l-76 -130q-13 -23 -54 -25q-34 -1 -36 17q-1 4 1 8z" />
    <glyph glyph-name="gcommaaccent" unicode="&#x123;" horiz-adv-x="572" 
d="M330 555q-9 -22 -64 -25q-50 -2 -55 16q-1 4 2 9l75 131q14 24 56 25q35 1 35 -18q0 -3 -1 -7zM545 512q17 0 19.5 -26t-9 -52t-28.5 -26q-35 -2 -59 -15q22 -32 22 -78q0 -73 -57 -113.5t-161 -40.5q-38 0 -69 6q-30 -13 -30 -36q0 -21 21.5 -29t61.5 -9q31 -1 46.5 -2
t46 -4.5t48 -8.5t40.5 -14.5t35.5 -22.5t21.5 -32.5t9 -44.5q0 -79 -57 -125.5t-162 -46.5q-115 0 -172 42.5t-57 109.5q0 53 38 88q-38 23 -38 68q0 66 68 94q-69 41 -69 121q0 74 57.5 115t160.5 41q87 0 144 -30q50 70 129 71zM272 246q48 0 74.5 18t26.5 51
q0 34 -26.5 52.5t-74.5 18.5t-74 -18.5t-26 -52.5q0 -33 26.5 -51t73.5 -18zM198 7q-25 -17 -25 -55q0 -34 30 -54.5t81 -20.5q47 0 74.5 20t27.5 54q0 24 -20.5 36t-44 14.5t-67.5 3.5h-3.5h-3.5q-34 2 -49 2z" />
    <glyph glyph-name="Hcircumflex" unicode="&#x124;" horiz-adv-x="662" 
d="M261 708q-17 -22 -69 -23q-43 -1 -43 15q0 4 3 8q22 31 71 87.5t62 66.5q9 6 26.5 6.5t26.5 -6.5q13 -10 62.5 -66.5t71.5 -87.5q11 -17 -21 -22q-44 -6 -76 12q-8 5 -12 10q-27 39 -51 64q-24 -25 -51 -64zM618 105q23 11 30 -19q7 -34 -13 -61q-7 -9 -17 -13
q-34 -13 -62.5 -16t-54 6.5t-40 40.5t-14.5 82v73v72h-272v-247q0 -19 -29.5 -26.5t-58.5 0t-29 26.5v552q0 29 46 54q45 25 64 11q7 -5 7 -15v-252h272v235q0 19 29.5 26.5t59.5 0t30 -26.5v-428v-38q0 -56 52 -37z" />
    <glyph glyph-name="hcircumflex" unicode="&#x125;" horiz-adv-x="615" 
d="M89 679q-11 -22 -61 -25q-46 -2 -49 16q-1 4 2 9q19 32 58.5 88t50.5 65q9 6 26.5 6t25.5 -6q11 -9 51.5 -65t58.5 -88q10 -17 -22 -22q-41 -8 -72 9q-9 6 -13 13q-13 27 -28 48q-19 -27 -28 -48zM563 99q23 11 30 -19q7 -34 -14 -61q-7 -9 -16 -13q-46 -17 -77 -17
q-93 0 -93 130v78v64q0 106 -92 106q-66 0 -126 -68v-276q0 -19 -29.5 -26.5t-58.5 0t-29 26.5v552q0 29 46 54q45 24 64 10q7 -5 7 -15v-222q73 68 174 68q75 0 118 -44.5t43 -123.5v-127v-39q0 -42 29 -42q13 0 24 5z" />
    <glyph glyph-name="Hbar" unicode="&#x126;" horiz-adv-x="697" 
d="M652 105q23 11 30 -19q8 -34 -13 -61q-7 -9 -17 -13q-34 -13 -62 -16t-53.5 6.5t-40 40.5t-14.5 82v73v29h-272v-204q0 -19 -29 -26.5t-58.5 0t-29.5 26.5v379h-51q-18 0 -26 25t0 50.5t26 25.5h51v72q0 29 46 54q45 25 64 11q7 -5 7 -15v-122h272v105q0 19 29.5 26.5
t59 0t29.5 -26.5v-105h50q19 0 26.5 -25t0 -50.5t-26.5 -25.5h-50v-222v-38q0 -56 52 -37zM210 328h272v74h-272v-74z" />
    <glyph glyph-name="hbar" unicode="&#x127;" horiz-adv-x="656" 
d="M592 99q24 11 30 -19q8 -34 -13 -61q-8 -9 -17 -13q-44 -17 -76 -17q-93 0 -93 130v78v49q0 97 -93 97q-67 0 -125 -61v-259q0 -19 -29.5 -26.5t-58.5 0t-29 26.5v483h-67q-14 0 -19.5 22t0 44t19.5 22h67v55q0 19 29 26.5t58.5 0t29.5 -26.5v-55h146q21 0 13 -35
q-8 -37 -30 -50q-6 -3 -12 -3h-117v-121q71 65 174 65q75 0 118 -43t43 -119v-100v-52q0 -42 28 -42q13 0 24 5z" />
    <glyph glyph-name="Itilde" unicode="&#x128;" horiz-adv-x="303" 
d="M-5 710q0 57 26.5 86t62.5 29q30 0 75 -18t59 -18q23 0 23 23q0 18 23.5 25.5t47 0t23.5 -25.5q0 -57 -26 -86t-63 -29q-29 0 -74.5 18.5t-60.5 18.5q-22 0 -22 -24q0 -18 -23.5 -25.5t-47 0t-23.5 25.5zM93 23v551q0 29 46 54q44 24 65 11q7 -5 7 -15v-601
q0 -19 -29.5 -26.5t-59 0t-29.5 26.5z" />
    <glyph glyph-name="itilde" unicode="&#x129;" horiz-adv-x="272" 
d="M-21 547q0 54 23.5 82t56.5 28q24 0 59 -16t46 -16q19 0 19 18t21.5 26t42.5 0t21 -26q0 -54 -23.5 -81.5t-56.5 -27.5q-23 0 -59 16t-48 16q-18 0 -18 -19q0 -18 -21 -25.5t-42 0t-21 25.5zM207 103q24 10 30 -20q7 -34 -14 -61q-7 -9 -16 -13q-31 -15 -63 -15
q-36 0 -57.5 24.5t-21.5 74.5v314q0 29 46 54q44 25 65 11q7 -5 7 -15v-335q0 -21 15 -21q3 0 9 2z" />
    <glyph glyph-name="Imacron" unicode="&#x12a;" horiz-adv-x="303" 
d="M120 703q-30 0 -56 40q-24 38 -9 53q5 5 14 5h170q19 0 26.5 -24.5t0 -49t-26.5 -24.5h-119zM93 23v551q0 29 46 54q44 24 65 11q7 -5 7 -15v-601q0 -19 -29.5 -26.5t-59 0t-29.5 26.5z" />
    <glyph glyph-name="imacron" unicode="&#x12b;" horiz-adv-x="270" 
d="M78 540q-30 0 -56 40q-24 38 -9 53q5 5 14 5h170q19 0 26.5 -24.5t0 -49t-26.5 -24.5h-119zM207 103q24 10 30 -20q7 -34 -14 -61q-7 -9 -16 -13q-31 -15 -63 -15q-36 0 -57.5 24.5t-21.5 74.5v314q0 29 46 54q44 25 65 11q7 -5 7 -15v-335q0 -21 15 -21q3 0 9 2z" />
    <glyph glyph-name="Ibreve" unicode="&#x12c;" horiz-adv-x="303" 
d="M297 837q0 -68 -35 -106t-97 -38q-63 0 -97.5 39t-34.5 105q0 18 19.5 25.5t39 0t19.5 -25.5q0 -32 14.5 -50.5t39.5 -18.5q24 0 38.5 19t14.5 50q0 18 20 25.5t39.5 0t19.5 -25.5zM93 23v551q0 29 46 54q44 24 65 11q7 -5 7 -15v-601q0 -19 -29.5 -26.5t-59 0
t-29.5 26.5z" />
    <glyph glyph-name="ibreve" unicode="&#x12d;" horiz-adv-x="270" 
d="M255 674q0 -68 -35 -106t-97 -38q-63 0 -97.5 39t-34.5 105q0 18 19.5 25.5t39 0t19.5 -25.5q0 -32 14.5 -50.5t39.5 -18.5q24 0 38.5 19t14.5 50q0 18 20 25.5t39.5 0t19.5 -25.5zM207 103q24 10 30 -20q7 -34 -14 -61q-7 -9 -16 -13q-31 -15 -63 -15q-36 0 -57.5 24.5
t-21.5 74.5v314q0 29 46 54q44 25 65 11q7 -5 7 -15v-335q0 -21 15 -21q3 0 9 2z" />
    <glyph glyph-name="Iogonek" unicode="&#x12e;" horiz-adv-x="278" 
d="M203 -98q18 8 21 -19q4 -31 -14 -48l-4 -4q-47 -26 -92 -26q-42 0 -68 25.5t-26 61.5q0 41 36 91l24 33v558q0 29 46 54q44 24 65 11q7 -5 7 -15v-585q0 -10 -7 -22l-47 -67q-12 -17 -12 -36q0 -24 26 -24q14 0 45 12z" />
    <glyph glyph-name="iogonek" unicode="&#x12f;" horiz-adv-x="250" 
d="M126 546q-32 0 -51 19.5t-19 53.5q0 32 19.5 51.5t50.5 19.5q30 0 48.5 -19.5t18.5 -51.5q0 -33 -18.5 -53t-48.5 -20zM189 -98q19 8 21 -19q4 -31 -14 -48l-4 -4q-45 -26 -91 -26q-42 0 -68.5 25.5t-26.5 61.5q0 40 37 91l23 33v391q0 29 47 54q46 25 65 10q7 -4 7 -14
v-418q0 -11 -8 -22l-46 -67q-13 -17 -13 -36q0 -11 7.5 -17.5t19.5 -6.5q13 0 44 12z" />
    <glyph glyph-name="Idotaccent" unicode="&#x130;" horiz-adv-x="303" 
d="M165 716q-32 0 -50.5 19.5t-18.5 52.5q0 32 19 52t50 20q30 0 49 -20t19 -52q0 -33 -19 -52.5t-49 -19.5zM93 23v551q0 29 46 54q44 24 65 11q7 -5 7 -15v-601q0 -19 -29.5 -26.5t-59 0t-29.5 26.5z" />
    <glyph glyph-name="dotlessi" unicode="&#x131;" horiz-adv-x="270" 
d="M207 103q24 10 30 -20q7 -34 -14 -61q-7 -9 -16 -13q-31 -15 -63 -15q-36 0 -57.5 24.5t-21.5 74.5v314q0 29 46 54q44 25 65 11q7 -5 7 -15v-335q0 -21 15 -21q3 0 9 2z" />
    <glyph glyph-name="IJ" unicode="&#x132;" horiz-adv-x="730" 
d="M331 29q-25 12 -28 55q-3 36 15 40q6 1 13 -3q61 -34 111 -34q53 0 82 43t29 122v323q0 28 47 53q46 25 65 11q7 -5 7 -14v-404q0 -113 -54.5 -170.5t-141.5 -57.5q-72 0 -145 36zM93 23v551q0 29 46 54q44 24 65 11q7 -5 7 -15v-601q0 -19 -29.5 -26.5t-59 0t-29.5 26.5
z" />
    <glyph glyph-name="ij" unicode="&#x133;" horiz-adv-x="558" 
d="M124 546q-32 0 -50.5 19.5t-18.5 53.5q0 32 19 51.5t50 19.5q30 0 49 -20t19 -51q0 -33 -19 -53t-49 -20zM434 546q-31 0 -50 20t-19 53q0 32 19 51.5t50 19.5t49.5 -19.5t18.5 -51.5q0 -34 -18.5 -53.5t-49.5 -19.5zM206 103q24 10 30 -20q7 -34 -14 -61q-7 -9 -16 -13
q-32 -15 -63 -15q-36 0 -57.5 24.5t-21.5 74.5v314q0 29 46 54q44 25 65 11q7 -5 7 -15v-335q0 -21 15 -21q3 0 9 2zM221 -159q-24 14 -25 59q0 36 17 36l8 -2q43 -23 79 -23q76 0 76 116v380q0 29 46 54q45 25 64 11q7 -5 7 -15v-462q0 -90 -44.5 -137.5t-112.5 -47.5
q-59 0 -115 31z" />
    <glyph glyph-name="Jcircumflex" unicode="&#x134;" horiz-adv-x="444" 
d="M205 708q18 30 58 86.5t51 67.5q8 8 26.5 8t26.5 -8q11 -11 52 -67.5t57 -86.5q9 -18 -21 -22q-39 -6 -64 13l-9 9q-20 34 -41 61q-21 -27 -41 -61q-15 -23 -59 -24q-37 -1 -38 16q0 4 2 8zM45 29q-25 12 -28 55q-3 36 15 40q6 1 13 -3q61 -34 111 -34q53 0 82 43t29 122
v323q0 28 47 53q46 25 65 11q7 -4 7 -14v-404q0 -113 -54.5 -170.5t-141.5 -57.5q-72 0 -145 36z" />
    <glyph glyph-name="jcircumflex" unicode="&#x135;" horiz-adv-x="305" 
d="M48 545q18 30 58 86.5t51 67.5q8 7 26.5 7t26.5 -7q11 -11 52 -67.5t57 -86.5q9 -18 -21 -22q-39 -6 -64 13l-9 9q-20 34 -41 61q-21 -27 -41 -61q-15 -23 -59 -24q-37 -1 -38 16q0 4 2 8zM-32 -159q-24 14 -25 59q0 36 17 36l8 -2q43 -23 79 -23q76 0 76 116v380
q0 29 46 54q45 25 64 11q7 -5 7 -15v-462q0 -90 -44.5 -137.5t-112.5 -47.5q-59 0 -115 31z" />
    <glyph glyph-name="Kcommaaccent" unicode="&#x136;" horiz-adv-x="595" 
d="M451 604q20 27 79 31q49 2 53 -16q2 -6 -4 -14q-141 -200 -252 -313q33 -24 69 -86q10 -16 16 -25.5t16 -23t17.5 -21t17.5 -15t19.5 -10.5t21 -2.5t23.5 5.5q17 7 24 -23q9 -42 -8 -73q-6 -12 -15 -15q-26 -9 -49 -10.5t-42 6.5t-34 17.5t-30 29t-25 34t-24 38.5
q-45 76 -74 100q-36 -32 -75 -63v-132q0 -19 -29.5 -26.5t-58.5 0t-29 26.5v551q0 29 46 54q45 25 64 11q7 -5 7 -15v-334q136 123 276 314zM235 -61q8 23 62 26q49 2 55 -16q2 -5 -1 -10l-76 -130q-13 -23 -54 -25q-34 -1 -36 17q-1 4 1 8z" />
    <glyph glyph-name="kcommaaccent" unicode="&#x137;" horiz-adv-x="520" 
d="M465 104q23 9 30 -24q9 -38 -11 -64q-7 -9 -16 -12q-25 -8 -46 -10t-39 5t-31.5 15t-27.5 24.5t-22.5 29t-21.5 33.5q-38 56 -51 71q-30 -23 -54 -41v-108q0 -19 -29.5 -26.5t-58.5 0t-29 26.5v593q0 29 46 54q45 25 64 11q7 -5 7 -15v-414q56 45 97 85.5t91 101.5
q22 27 83 29q49 1 52 -17q1 -5 -4 -12q-93 -117 -189 -203q15 -17 41 -61q9 -15 15 -23.5t15 -20t18 -17.5t20 -11t23.5 -4.5t27.5 5.5zM201 -61q8 23 62 26q49 2 55 -16q2 -5 -1 -10l-76 -130q-13 -23 -54 -25q-34 -1 -36 17q-1 4 1 8z" />
    <glyph glyph-name="kgreenlandic" unicode="&#x138;" horiz-adv-x="520" 
d="M465 104q23 9 30 -24q9 -38 -11 -64q-7 -9 -16 -12q-25 -8 -46 -10t-39 5t-31.5 15t-27.5 24.5t-22.5 29t-21.5 33.5q-38 56 -51 71q-30 -23 -54 -41v-108q0 -19 -29.5 -26.5t-58.5 0t-29 26.5v383q0 29 46 54q45 25 64 11q7 -5 7 -15v-204q56 45 97 85.5t91 101.5
q22 27 83 29q49 1 52 -17q1 -5 -4 -12q-93 -117 -189 -203q15 -17 41 -61q9 -15 15 -23.5t15 -20t18 -17.5t20 -11t23.5 -4.5t27.5 5.5z" />
    <glyph glyph-name="Lacute" unicode="&#x139;" horiz-adv-x="505" 
d="M170 715q-15 -22 -59 -22q-36 0 -34 17q1 2 2 5l64 132q13 25 73 28q54 2 60 -16q2 -6 -3 -12zM455 102q18 0 26 -25.5t0 -51t-26 -25.5h-375q-22 0 -22 43v532q0 29 46 54q44 24 63 11q7 -5 7 -15v-523h281z" />
    <glyph glyph-name="lacute" unicode="&#x13a;" horiz-adv-x="334" 
d="M93 748l45 99q12 25 74 27q55 2 60 -15q2 -6 -3 -12l-84 -99q-18 -20 -61 -21q-34 0 -33 16q1 2 2 5zM274 105q24 11 30 -19q8 -34 -13 -61q-7 -9 -17 -13q-54 -19 -91 -19q-111 0 -111 136v481q0 30 46 55q44 24 64 11q7 -5 7 -16v-503q0 -62 38 -62q15 0 47 10z" />
    <glyph glyph-name="Lcommaaccent" unicode="&#x13b;" horiz-adv-x="505" 
d="M455 102q18 0 26 -25.5t0 -51t-26 -25.5h-375q-22 0 -22 43v532q0 29 46 54q44 24 63 11q7 -5 7 -15v-523h281zM212 -61q8 23 62 26q49 2 55 -16q2 -5 -1 -10l-76 -130q-13 -23 -54 -25q-34 -1 -36 17q-1 4 1 8z" />
    <glyph glyph-name="lcommaaccent" unicode="&#x13c;" horiz-adv-x="334" 
d="M274 105q25 9 31 -21q6 -35 -15 -60q-7 -8 -16 -12q-54 -19 -91 -19q-111 0 -111 136v481q0 30 46 55q44 24 64 11q7 -5 7 -16v-503q0 -62 38 -62q15 0 47 10zM74 -191l49 130q8 23 62 26q49 2 55 -16q2 -5 -1 -10l-76 -130q-13 -23 -54 -25q-34 -1 -36 17q-1 4 1 8z" />
    <glyph glyph-name="Lcaron" unicode="&#x13d;" horiz-adv-x="505" 
d="M333 555q-13 -23 -54 -24q-34 -1 -36 16q-1 4 1 8l47 131q9 23 63 25q50 2 56 -15q1 -5 -1 -10zM455 102q18 0 26 -25.5t0 -51t-26 -25.5h-375q-22 0 -22 43v532q0 29 46 54q44 24 63 11q7 -5 7 -15v-523h281z" />
    <glyph glyph-name="lcaron" unicode="&#x13e;" horiz-adv-x="366" 
d="M237 555l49 131q8 23 62 25q49 2 55 -15q1 -5 -1 -10l-76 -131q-13 -23 -54 -24q-34 -1 -36 16q-1 4 1 8zM274 105q24 11 30 -19q8 -34 -13 -61q-7 -9 -17 -13q-54 -19 -91 -19q-111 0 -111 136v481q0 30 46 55q44 24 64 11q7 -5 7 -16v-503q0 -62 38 -62q15 0 47 10z
" />
    <glyph glyph-name="Ldot" unicode="&#x13f;" horiz-adv-x="505" 
d="M455 102q18 0 26 -25.5t0 -51t-26 -25.5h-375q-22 0 -22 43v532q0 29 46 54q44 24 63 11q7 -5 7 -15v-523h281zM358 289q-30 0 -48 17t-18 45q0 27 18.5 44.5t47.5 17.5q28 0 45.5 -17.5t17.5 -44.5q0 -28 -17.5 -45t-45.5 -17z" />
    <glyph glyph-name="ldot" unicode="&#x140;" horiz-adv-x="389" 
d="M274 105q24 11 30 -19q8 -34 -13 -61q-7 -9 -17 -13q-54 -19 -91 -19q-111 0 -111 136v481q0 30 46 55q44 24 64 11q7 -5 7 -16v-503q0 -62 38 -62q15 0 47 10zM296 289q-29 0 -47 17t-18 45q0 27 18.5 44.5t46.5 17.5t46 -17.5t18 -44.5q0 -28 -17.5 -45t-46.5 -17z" />
    <glyph glyph-name="Lslash" unicode="&#x141;" horiz-adv-x="554" 
d="M499 102q19 0 26.5 -25.5t0 -51t-26.5 -25.5h-374q-22 0 -22 43v205q-39 -20 -70 -38q-20 -11 -25 25q-6 44 13 75q6 9 14 13q28 17 68 36v216q0 29 46 54q45 25 64 11q7 -5 7 -15v-213q63 27 142 54q20 6 27 -26q8 -41 -11 -70q-7 -11 -16 -14q-79 -27 -142 -54v-200
h279z" />
    <glyph glyph-name="lslash" unicode="&#x142;" horiz-adv-x="377" 
d="M336 379q-50 -17 -115 -43v-179q0 -33 8.5 -47.5t29.5 -14.5q14 0 47 10q23 11 30 -19q8 -34 -13 -61q-8 -9 -17 -13q-54 -19 -92 -19q-111 0 -111 136v153q-43 -22 -73 -40q-20 -11 -25 24q-6 43 13 75q6 11 14 15q21 12 71 37v217q0 29 46 54q44 25 65 11q7 -5 7 -15
v-214q37 16 115 44q22 7 28 -28q8 -41 -12 -70q-7 -10 -16 -13z" />
    <glyph glyph-name="Nacute" unicode="&#x143;" horiz-adv-x="657" 
d="M378 715q-15 -22 -59 -22q-36 0 -34 17q1 2 2 5l64 132q13 25 73 28q54 2 60 -16q2 -6 -3 -12zM481 574q0 29 46 54q44 24 65 11q7 -5 7 -15v-601q0 -19 -26.5 -26t-55.5 -2.5t-35 16.5q-74 152 -142 250t-165 200v-438q0 -19 -29.5 -26.5t-58.5 0t-29 26.5v584
q0 27 49 31t62 -12q187 -177 312 -386v334z" />
    <glyph glyph-name="nacute" unicode="&#x144;" horiz-adv-x="607" 
d="M333 552q-15 -22 -59 -22q-36 0 -34 17q1 2 2 5l64 132q13 25 73 28q54 2 60 -16q2 -6 -3 -12zM555 99q23 11 29 -19q8 -34 -13 -61q-7 -9 -16 -13q-46 -17 -78 -17q-92 0 -92 130v78v64q0 106 -93 106q-66 0 -126 -68v-276q0 -19 -29 -26.5t-58.5 0t-29.5 26.5v418
q0 18 22.5 25t46.5 1.5t29 -18.5l16 -51q73 72 178 72q75 0 118 -44.5t43 -123.5v-128v-37q0 -43 30 -43q12 0 23 5z" />
    <glyph glyph-name="Ncommaaccent" unicode="&#x145;" horiz-adv-x="657" 
d="M481 574q0 29 46 54q44 24 65 11q7 -5 7 -15v-601q0 -19 -26.5 -26t-55.5 -2.5t-35 16.5q-74 152 -142 250t-165 200v-438q0 -19 -29.5 -26.5t-58.5 0t-29 26.5v584q0 27 49 31t62 -12q187 -177 312 -386v334zM279 -61q8 23 62 26q49 2 55 -16q2 -5 -1 -10l-76 -130
q-13 -23 -54 -25q-34 -1 -36 17q-1 4 1 8z" />
    <glyph glyph-name="ncommaaccent" unicode="&#x146;" horiz-adv-x="607" 
d="M555 99q23 11 29 -19q8 -34 -13 -61q-7 -9 -16 -13q-46 -17 -78 -17q-92 0 -92 130v78v64q0 106 -93 106q-66 0 -126 -68v-276q0 -19 -29 -26.5t-58.5 0t-29.5 26.5v418q0 18 22.5 25t46.5 1.5t29 -18.5l16 -51q73 72 178 72q75 0 118 -44.5t43 -123.5v-128v-37
q0 -43 30 -43q12 0 23 5zM234 -61q8 23 62 26q49 2 55 -16q2 -5 -1 -10l-76 -130q-13 -23 -54 -25q-34 -1 -36 17q-1 4 1 8z" />
    <glyph glyph-name="Ncaron" unicode="&#x147;" horiz-adv-x="657" 
d="M302 699q-14 10 -63 66t-72 88q-11 16 20 21q42 7 75 -10q10 -5 14 -11q31 -42 52 -64q23 25 52 64q15 22 68 22q44 1 43 -16q-1 -3 -3 -6q-20 -30 -70 -86.5t-64 -67.5q-9 -5 -26 -5t-26 5zM481 574q0 29 46 54q44 24 65 11q7 -5 7 -15v-601q0 -19 -26.5 -26t-55.5 -2.5
t-35 16.5q-74 152 -142 250t-165 200v-438q0 -19 -29.5 -26.5t-58.5 0t-29 26.5v584q0 27 49 31t62 -12q187 -177 312 -386v334z" />
    <glyph glyph-name="ncaron" unicode="&#x148;" horiz-adv-x="607" 
d="M257 536q-14 10 -63 66t-72 88q-11 16 20 21q42 7 75 -10q10 -5 14 -11q31 -42 52 -64q23 25 52 64q15 22 68 22q44 1 43 -16q-1 -3 -3 -6q-20 -30 -70 -86.5t-64 -67.5q-9 -5 -26 -5t-26 5zM555 99q23 11 29 -19q8 -34 -13 -61q-7 -9 -16 -13q-46 -17 -78 -17
q-92 0 -92 130v78v64q0 106 -93 106q-66 0 -126 -68v-276q0 -19 -29 -26.5t-58.5 0t-29.5 26.5v418q0 18 22.5 25t46.5 1.5t29 -18.5l16 -51q73 72 178 72q75 0 118 -44.5t43 -123.5v-128v-37q0 -43 30 -43q12 0 23 5z" />
    <glyph glyph-name="napostrophe" unicode="&#x149;" horiz-adv-x="773" 
d="M63 605q0 20 30.5 28.5t61.5 0t31 -28.5q0 -110 -75 -227q-13 -14 -34 -13.5t-37.5 13.5t-10.5 29q34 94 34 198zM720 99q23 11 30 -19q8 -34 -13 -61q-8 -9 -17 -13q-44 -17 -77 -17q-93 0 -93 130v78v64q0 106 -92 106q-66 0 -126 -68v-276q0 -19 -29 -26.5t-58.5 0
t-29.5 26.5v418q0 18 22 25t46 1.5t29 -18.5l17 -50q71 71 178 71q75 0 118 -44.5t43 -123.5v-128v-37q0 -43 29 -43q12 0 23 5z" />
    <glyph glyph-name="Eng" unicode="&#x14a;" horiz-adv-x="656" 
d="M481 574q0 29 46 54q44 24 65 11q7 -5 7 -15v-601v-48q0 -91 -42 -137.5t-105 -46.5q-49 0 -93 23q-26 14 -29 56q-2 37 17 39q5 1 12 -2q29 -14 54 -14q32 0 50 27.5t18 77.5v15q-74 150 -141.5 247.5t-164.5 200.5v-438q0 -19 -29.5 -26.5t-58.5 0t-29 26.5v584
q0 27 49 30.5t62 -11.5q187 -177 312 -386v334z" />
    <glyph glyph-name="eng" unicode="&#x14b;" horiz-adv-x="551" 
d="M341 470q75 0 118 -44.5t43 -123.5v-123v-204q0 -86 -39.5 -129t-99.5 -43q-43 0 -84 21q-29 14 -30 56q-2 35 17 39q6 2 13 -2q25 -12 46 -12q60 0 60 93v220v43q0 106 -93 106q-66 0 -126 -68v-276q0 -19 -29 -26.5t-58.5 0t-29.5 26.5v418q0 18 22.5 25t46.5 1.5
t29 -18.5l16 -51q73 72 178 72z" />
    <glyph glyph-name="Omacron" unicode="&#x14c;" horiz-adv-x="658" 
d="M191 703q-30 0 -56 40q-24 38 -9 53q5 5 14 5h368q19 0 26.5 -24.5t0 -49t-26.5 -24.5h-317zM329 -7q-139 0 -217.5 85t-78.5 237t78 237.5t218 85.5t218 -85.5t78 -237.5t-78.5 -237t-217.5 -85zM329 96q82 0 127.5 58t45.5 161q0 104 -45.5 162t-127.5 58t-127.5 -58
t-45.5 -162t45.5 -161.5t127.5 -57.5z" />
    <glyph glyph-name="omacron" unicode="&#x14d;" horiz-adv-x="540" 
d="M132 540q-30 0 -56 40q-24 38 -9 53q5 5 14 5h368q19 0 26.5 -24.5t0 -49t-26.5 -24.5h-317zM270 -7q-112 0 -174 62.5t-62 175.5t62 176.5t174 63.5t174 -63.5t62 -176.5t-62 -175.5t-174 -62.5zM270 81q56 0 87.5 39t31.5 111q0 73 -31 112.5t-88 39.5t-88 -39.5
t-31 -112.5q0 -72 31.5 -111t87.5 -39z" />
    <glyph glyph-name="Obreve" unicode="&#x14e;" horiz-adv-x="658" 
d="M487 837q0 -68 -42 -106t-116 -38q-75 0 -116.5 39t-41.5 105q0 18 20.5 26t41.5 0t21 -26q0 -32 20.5 -50.5t54.5 -18.5t55 19t21 50q0 18 20.5 26t41 0t20.5 -26zM329 -7q-139 0 -217.5 85t-78.5 237t78 237.5t218 85.5t218 -85.5t78 -237.5t-78.5 -237t-217.5 -85z
M329 96q82 0 127.5 58t45.5 161q0 104 -45.5 162t-127.5 58t-127.5 -58t-45.5 -162t45.5 -161.5t127.5 -57.5z" />
    <glyph glyph-name="obreve" unicode="&#x14f;" horiz-adv-x="540" 
d="M428 674q0 -68 -42 -106t-116 -38q-75 0 -116.5 39t-41.5 105q0 18 21 26t41.5 0t20.5 -26q0 -32 20.5 -50.5t54.5 -18.5t55 19t21 50q0 18 20.5 26t41 0t20.5 -26zM270 -7q-112 0 -174 62.5t-62 175.5t62 176.5t174 63.5t174 -63.5t62 -176.5t-62 -175.5t-174 -62.5z
M270 81q56 0 87.5 39t31.5 111q0 73 -31 112.5t-88 39.5t-88 -39.5t-31 -112.5q0 -72 31.5 -111t87.5 -39z" />
    <glyph glyph-name="Ohungarumlaut" unicode="&#x150;" horiz-adv-x="658" 
d="M197 715l81 132q15 25 68 27q45 2 48 -15q0 -6 -4 -12l-102 -132q-15 -21 -60 -21q-33 0 -33 15q0 3 2 6zM376 715l87 132q17 24 74 26q47 1 49 -15q0 -6 -4 -11l-111 -132q-17 -20 -65 -19q-34 0 -33 13zM329 -7q-139 0 -217.5 85t-78.5 237t78 237.5t218 85.5
t218 -85.5t78 -237.5t-78.5 -237t-217.5 -85zM329 96q82 0 127.5 58t45.5 161q0 104 -45.5 162t-127.5 58t-127.5 -58t-45.5 -162t45.5 -161.5t127.5 -57.5z" />
    <glyph glyph-name="ohungarumlaut" unicode="&#x151;" horiz-adv-x="540" 
d="M138 552l81 132q15 25 68 27q45 2 48 -15q0 -6 -4 -12l-102 -132q-15 -21 -60 -21q-33 0 -33 15q0 3 2 6zM317 552l87 132q17 24 74 26q47 1 49 -15q0 -6 -4 -11l-111 -132q-17 -20 -65 -19q-34 0 -33 13zM270 -7q-112 0 -174 62.5t-62 175.5t62 176.5t174 63.5
t174 -63.5t62 -176.5t-62 -175.5t-174 -62.5zM270 81q56 0 87.5 39t31.5 111q0 73 -31 112.5t-88 39.5t-88 -39.5t-31 -112.5q0 -72 31.5 -111t87.5 -39z" />
    <glyph glyph-name="OE" unicode="&#x152;" horiz-adv-x="913" 
d="M856 103q19 0 26.5 -25.5t0 -51.5t-26.5 -26h-359q-20 0 -22 39q-63 -46 -150 -46q-130 0 -203 85t-73 237t73 237.5t203 85.5q87 0 151 -39q4 31 21 31h369q27 0 16 -36q-11 -38 -42 -58q-13 -9 -25 -9h-223v-157h194q18 0 26 -26t0 -51.5t-26 -25.5h-195v-164h265z
M345 88q84 0 130 63v329q-45 63 -130 63q-82 0 -127.5 -60t-45.5 -168q0 -107 45.5 -167t127.5 -60z" />
    <glyph glyph-name="oe" unicode="&#x153;" horiz-adv-x="881" 
d="M851 266q0 -34 -78 -57.5t-180 -23.5q-43 0 -85 6q9 -52 46.5 -78.5t91.5 -26.5q67 0 147 36q28 13 35 -17q6 -32 -15 -57q-5 -6 -11 -10q-70 -44 -165 -44q-124 0 -194 82q-58 -83 -182 -83q-107 0 -167 63t-60 175q0 113 60 176.5t167 63.5q118 0 178 -77q60 77 183 77
q114 0 171.5 -52.5t57.5 -152.5zM270 81q56 0 87.5 39t31.5 111q0 73 -31 112.5t-88 39.5t-88.5 -39.5t-31.5 -112.5q0 -72 31.5 -111t88.5 -39zM509 275q36 -4 77 -4q66 0 112 8.5t46 19.5q0 38 -30.5 60t-86.5 22q-101 0 -118 -106z" />
    <glyph glyph-name="Racute" unicode="&#x154;" horiz-adv-x="555" 
d="M329 715q-15 -22 -59 -22q-36 0 -34 17q1 2 2 5l64 132q13 25 73 28q54 2 60 -16q2 -6 -3 -12zM473 108q22 8 28 -26q7 -41 -12 -69q-6 -10 -15 -13q-36 -13 -58 -13q-23 0 -41.5 9t-36.5 29.5t-28 35.5t-28 45q-20 32 -31 48t-32.5 39t-43.5 35v-205q0 -19 -29.5 -26.5
t-58.5 0t-29 26.5v561q0 13 21 25t68 20t111 8q127 0 197.5 -52.5t70.5 -149.5q0 -100 -50.5 -151.5t-151.5 -56.5q7 -10 38 -56q16 -23 25.5 -35t25.5 -23t32 -11q13 0 28 6zM269 536q-49 0 -94 -14v-199q60 -12 102 -12q130 0 130 115q0 110 -138 110z" />
    <glyph glyph-name="racute" unicode="&#x155;" horiz-adv-x="374" 
d="M246 552q-15 -22 -59 -22q-36 0 -34 17q1 2 2 5l64 132q13 25 73 28q54 2 60 -16q2 -6 -3 -12zM339 466q17 0 18.5 -27.5t-11 -56t-29.5 -28.5q-93 -5 -151 -67v-264q0 -19 -29.5 -26.5t-59 0t-29.5 26.5v416q0 18 24 25.5t49.5 2.5t28.5 -19l15 -61q62 76 174 79z" />
    <glyph glyph-name="Rcommaaccent" unicode="&#x156;" horiz-adv-x="555" 
d="M473 108q22 8 28 -26q7 -41 -12 -69q-6 -10 -15 -13q-36 -13 -58 -13q-23 0 -41.5 9t-36.5 29.5t-28 35.5t-28 45q-20 32 -31 48t-32.5 39t-43.5 35v-205q0 -19 -29.5 -26.5t-58.5 0t-29 26.5v561q0 13 21 25t68 20t111 8q127 0 197.5 -52.5t70.5 -149.5
q0 -100 -50.5 -151.5t-151.5 -56.5q7 -10 38 -56q16 -23 25.5 -35t25.5 -23t32 -11q13 0 28 6zM269 536q-49 0 -94 -14v-199q60 -12 102 -12q130 0 130 115q0 110 -138 110zM215 -61q8 23 62 26q49 2 55 -16q2 -5 -1 -10l-76 -130q-13 -23 -54 -25q-34 -1 -36 17q-1 4 1 8z
" />
    <glyph glyph-name="rcommaaccent" unicode="&#x157;" horiz-adv-x="374" 
d="M339 466q17 0 18.5 -27.5t-11 -56t-29.5 -28.5q-93 -5 -151 -67v-264q0 -19 -29.5 -26.5t-59 0t-29.5 26.5v416q0 18 24 25.5t49.5 2.5t28.5 -19l15 -61q62 76 174 79zM45 -61q8 23 62 26q49 2 55 -16q2 -5 -1 -10l-76 -130q-13 -23 -54 -25q-34 -1 -36 17q-1 4 1 8z" />
    <glyph glyph-name="Rcaron" unicode="&#x158;" horiz-adv-x="555" 
d="M253 699q-14 10 -63 66t-72 88q-11 16 20 21q42 7 75 -10q10 -5 14 -11q31 -42 52 -64q23 25 52 64q15 22 68 22q44 1 43 -16q-1 -3 -3 -6q-20 -30 -70 -86.5t-64 -67.5q-9 -5 -26 -5t-26 5zM473 108q22 8 28 -26q7 -41 -12 -69q-6 -10 -15 -13q-36 -13 -58 -13
q-23 0 -41.5 9t-36.5 29.5t-28 35.5t-28 45q-20 32 -31 48t-32.5 39t-43.5 35v-205q0 -19 -29.5 -26.5t-58.5 0t-29 26.5v561q0 13 21 25t68 20t111 8q127 0 197.5 -52.5t70.5 -149.5q0 -100 -50.5 -151.5t-151.5 -56.5q7 -10 38 -56q16 -23 25.5 -35t25.5 -23t32 -11
q13 0 28 6zM269 536q-49 0 -94 -14v-199q60 -12 102 -12q130 0 130 115q0 110 -138 110z" />
    <glyph glyph-name="rcaron" unicode="&#x159;" horiz-adv-x="374" 
d="M170 536q-14 10 -63 66t-72 88q-11 16 20 21q42 7 75 -10q10 -5 14 -11q31 -42 52 -64q23 25 52 64q15 22 68 22q44 1 43 -16q-1 -3 -3 -6q-20 -30 -70 -86.5t-64 -67.5q-9 -5 -26 -5t-26 5zM339 466q17 0 18.5 -27.5t-11 -56t-29.5 -28.5q-93 -5 -151 -67v-264
q0 -19 -29.5 -26.5t-59 0t-29.5 26.5v416q0 18 24 25.5t49.5 2.5t28.5 -19l15 -61q62 76 174 79z" />
    <glyph glyph-name="Sacute" unicode="&#x15a;" horiz-adv-x="518" 
d="M215 715l64 132q13 25 73 28q54 2 60 -16q2 -6 -3 -12l-103 -132q-15 -22 -59 -22q-36 0 -34 17q1 2 2 5zM146 457q0 -23 10 -39t33.5 -26t41 -14.5t54.5 -11.5q38 -7 59 -12t53 -19t49 -31.5t30 -49t13 -72.5q0 -92 -65 -140.5t-164 -48.5t-195 48q-25 11 -30 59
q-4 44 15 50q5 2 13 -2q107 -54 192 -54q54 0 85 22.5t31 63.5q0 19 -8.5 34t-19 23.5t-32.5 16.5t-37.5 11.5t-44.5 9.5q-38 8 -57.5 13t-51.5 18.5t-48 30t-29 45t-13 66.5q0 92 63 141t159 49q100 0 191 -48q24 -12 28 -59q4 -43 -14 -48q-5 -1 -12 2q-111 57 -194 57
q-49 0 -77 -22t-28 -63z" />
    <glyph glyph-name="sacute" unicode="&#x15b;" horiz-adv-x="497" 
d="M208 552l64 132q13 25 73 28q54 2 60 -16q2 -6 -3 -12l-103 -132q-15 -22 -59 -22q-36 0 -34 17q1 2 2 5zM155 333q0 -22 25.5 -32t78.5 -17q30 -4 39.5 -6t37.5 -7.5t39.5 -11t31 -16.5t28 -24t16 -32.5t7.5 -43.5q0 -74 -64 -112t-157 -38q-98 0 -175 36q-20 10 -23 57
q-2 42 15 43q3 0 7 -2q76 -41 164 -41q51 0 83.5 15.5t32.5 43.5q0 13 -7.5 21.5t-25 14.5t-31.5 9t-42 7q-102 16 -139 36q-58 32 -58 97q0 69 63.5 104.5t155.5 35.5q97 0 170 -36q21 -10 23 -55q2 -38 -14 -38q-3 0 -7 2q-78 41 -164 41q-48 0 -79 -14t-31 -37z" />
    <glyph glyph-name="Scircumflex" unicode="&#x15c;" horiz-adv-x="518" 
d="M97 708q22 31 71 87.5t62 66.5q9 6 26.5 6.5t26.5 -6.5q13 -10 62.5 -66.5t71.5 -87.5q11 -17 -21 -22q-44 -6 -76 12q-8 5 -12 10q-27 39 -51 64q-24 -25 -51 -64q-17 -22 -69 -23q-43 -1 -43 15q0 4 3 8zM146 457q0 -23 10 -39t33.5 -26t41 -14.5t54.5 -11.5
q38 -7 59 -12t53 -19t49 -31.5t30 -49t13 -72.5q0 -92 -65 -140.5t-164 -48.5t-195 48q-25 11 -30 59q-4 44 15 50q5 2 13 -2q107 -54 192 -54q54 0 85 22.5t31 63.5q0 19 -8.5 34t-19 23.5t-32.5 16.5t-37.5 11.5t-44.5 9.5q-38 8 -57.5 13t-51.5 18.5t-48 30t-29 45
t-13 66.5q0 92 63 141t159 49q100 0 191 -48q24 -12 28 -59q4 -43 -14 -48q-5 -1 -12 2q-111 57 -194 57q-49 0 -77 -22t-28 -63z" />
    <glyph glyph-name="scircumflex" unicode="&#x15d;" horiz-adv-x="497" 
d="M90 545q22 31 71 87.5t62 66.5q9 6 26.5 6.5t26.5 -6.5q13 -10 62.5 -66.5t71.5 -87.5q11 -17 -21 -22q-44 -6 -76 12q-8 5 -12 10q-27 39 -51 64q-24 -25 -51 -64q-17 -22 -69 -23q-43 -1 -43 15q0 4 3 8zM155 333q0 -22 25.5 -32t78.5 -17q30 -4 39.5 -6t37.5 -7.5
t39.5 -11t31 -16.5t28 -24t16 -32.5t7.5 -43.5q0 -74 -64 -112t-157 -38q-98 0 -175 36q-20 10 -23 57q-2 42 15 43q3 0 7 -2q76 -41 164 -41q51 0 83.5 15.5t32.5 43.5q0 13 -7.5 21.5t-25 14.5t-31.5 9t-42 7q-102 16 -139 36q-58 32 -58 97q0 69 63.5 104.5t155.5 35.5
q97 0 170 -36q21 -10 23 -55q2 -38 -14 -38q-3 0 -7 2q-78 41 -164 41q-48 0 -79 -14t-31 -37z" />
    <glyph glyph-name="Scedilla" unicode="&#x15e;" horiz-adv-x="518" 
d="M489 182q0 -76 -45 -122.5t-119 -60.5l25 -72q7 -18 7 -38q0 -36 -27.5 -60t-73.5 -24q-35 0 -76 16q-21 10 -23 46q-3 30 13 30q2 0 5 -1q17 -7 32 -7q31 0 31 31q0 11 -4 22l-19 54q-78 9 -150 45q-25 11 -30 59q-4 44 15 50q5 2 13 -2q107 -54 192 -54q54 0 85 22.5
t31 63.5q0 19 -8.5 34t-19 23.5t-32.5 16.5t-37.5 11.5t-44.5 9.5q-38 8 -57.5 13t-51.5 18.5t-48 30t-29 45t-13 66.5q0 92 63 141t159 49q100 0 191 -48q24 -12 28 -59q4 -43 -14 -48q-5 -1 -12 2q-111 57 -194 57q-49 0 -77 -22t-28 -63q0 -23 10 -39t33.5 -26t41 -14.5
t54.5 -11.5q38 -7 59 -12t53 -19t49 -31.5t30 -49t13 -72.5z" />
    <glyph glyph-name="scedilla" unicode="&#x15f;" horiz-adv-x="497" 
d="M458 143q0 -60 -43.5 -96.5t-112.5 -48.5l26 -71q7 -18 7 -38q0 -36 -25.5 -60t-67.5 -24q-33 0 -74 16q-21 10 -23 46q-2 30 13 30q3 0 6 -1q17 -7 32 -7q31 0 31 31q0 11 -4 22l-19 52q-82 6 -142 35q-20 10 -23 57q-2 42 15 43q3 0 7 -2q76 -41 164 -41
q51 0 83.5 15.5t32.5 43.5q0 13 -7.5 21.5t-25 14.5t-31.5 9t-42 7q-102 16 -139 36q-58 32 -58 97q0 69 63.5 104.5t155.5 35.5q97 0 170 -36q21 -10 23 -55q2 -38 -14 -38q-3 0 -7 2q-78 41 -164 41q-48 0 -79 -14t-31 -37q0 -22 25.5 -32t78.5 -17q30 -4 39.5 -6
t37.5 -7.5t39.5 -11t31 -16.5t28 -24t16 -32.5t7.5 -43.5z" />
    <glyph glyph-name="Scaron" unicode="&#x160;" horiz-adv-x="518" 
d="M95 853q-11 16 20 21q42 7 75 -10q10 -5 14 -11q31 -42 52 -64q23 25 52 64q15 22 68 22q44 1 43 -16q-1 -3 -3 -6q-20 -30 -70 -86.5t-64 -67.5q-9 -5 -26 -5t-26 5q-14 10 -63 66t-72 88zM146 457q0 -23 10 -39t33.5 -26t41 -14.5t54.5 -11.5q38 -7 59 -12t53 -19
t49 -31.5t30 -49t13 -72.5q0 -92 -65 -140.5t-164 -48.5t-195 48q-25 11 -30 59q-4 44 15 50q5 2 13 -2q107 -54 192 -54q54 0 85 22.5t31 63.5q0 19 -8.5 34t-19 23.5t-32.5 16.5t-37.5 11.5t-44.5 9.5q-38 8 -57.5 13t-51.5 18.5t-48 30t-29 45t-13 66.5q0 92 63 141
t159 49q100 0 191 -48q24 -12 28 -59q4 -43 -14 -48q-5 -1 -12 2q-111 57 -194 57q-49 0 -77 -22t-28 -63z" />
    <glyph glyph-name="scaron" unicode="&#x161;" horiz-adv-x="497" 
d="M88 690q-11 16 20 21q42 7 75 -10q10 -5 14 -11q31 -42 52 -64q23 25 52 64q15 22 68 22q44 1 43 -16q-1 -3 -3 -6q-20 -30 -70 -86.5t-64 -67.5q-9 -5 -26 -5t-26 5q-14 10 -63 66t-72 88zM155 333q0 -22 25.5 -32t78.5 -17q30 -4 39.5 -6t37.5 -7.5t39.5 -11t31 -16.5
t28 -24t16 -32.5t7.5 -43.5q0 -74 -64 -112t-157 -38q-98 0 -175 36q-20 10 -23 57q-2 42 15 43q3 0 7 -2q76 -41 164 -41q51 0 83.5 15.5t32.5 43.5q0 13 -7.5 21.5t-25 14.5t-31.5 9t-42 7q-102 16 -139 36q-58 32 -58 97q0 69 63.5 104.5t155.5 35.5q97 0 170 -36
q21 -10 23 -55q2 -38 -14 -38q-3 0 -7 2q-78 41 -164 41q-48 0 -79 -14t-31 -37z" />
    <glyph glyph-name="uni0162" unicode="&#x162;" horiz-adv-x="588" 
d="M535 630q18 0 26 -26t0 -51.5t-26 -25.5h-182v-504q0 -13 -15 -21l26 -75q7 -18 7 -38q0 -36 -26 -60t-69 -24q-39 0 -76 16q-21 9 -23 46q-3 31 13 30q2 0 5 -1q17 -7 32 -7q31 0 31 31q0 11 -4 22l-26 75q-1 3 -1 6v504h-141q-30 0 -55 42q-24 39 -9 56q5 5 14 5h499z
" />
    <glyph glyph-name="uni0163" unicode="&#x163;" horiz-adv-x="446" 
d="M379 121q19 10 24 -20q6 -38 -13 -65q-5 -6 -11 -10q-34 -20 -74 -28l25 -71q7 -18 7 -38q0 -36 -25.5 -60t-67.5 -24q-32 0 -73 16q-21 10 -23 46q-2 30 13 30q3 0 6 -1q17 -7 32 -7q31 0 31 31q0 11 -4 22l-24 65q-91 40 -91 176v162h-61q-19 0 -26.5 25.5t0 51.5
t26.5 26h61l20 127q2 14 26.5 19t48 -2.5t23.5 -25.5v-118h157q19 0 26.5 -26t0 -51.5t-26.5 -25.5h-157v-166q0 -70 39.5 -84.5t110.5 26.5z" />
    <glyph glyph-name="Tcaron" unicode="&#x164;" horiz-adv-x="588" 
d="M266 699q-14 10 -63 66t-72 88q-11 16 20 21q42 7 75 -10q10 -5 14 -11q31 -42 52 -64q23 25 52 64q15 22 68 22q44 1 43 -16q-1 -3 -3 -6q-20 -30 -70 -86.5t-64 -67.5q-9 -5 -26 -5t-26 5zM535 630q18 0 26 -26t0 -51.5t-26 -25.5h-182v-504q0 -19 -31.5 -26.5t-63 0
t-31.5 26.5v504h-141q-30 0 -55 42q-24 39 -9 56q5 5 14 5h499z" />
    <glyph glyph-name="tcaron" unicode="&#x165;" horiz-adv-x="446" 
d="M328 661q8 23 62 25q49 2 55 -15q1 -5 -1 -10l-76 -131q-13 -24 -54 -25q-34 -1 -36 17q-1 4 1 8zM386 345h-157v-166q0 -70 39.5 -84.5t110.5 26.5q18 12 23 -18q7 -38 -12 -66q-6 -7 -11 -11q-48 -27 -96 -31t-86 14t-62 63t-24 111v162h-61q-19 0 -26.5 25.5t0 51.5
t26.5 26h61l20 127q2 14 26.5 19t48 -2.5t23.5 -25.5v-118h157q19 0 26.5 -26t0 -51.5t-26.5 -25.5z" />
    <glyph glyph-name="Tbar" unicode="&#x166;" horiz-adv-x="588" 
d="M535 630q18 0 26 -26t0 -51.5t-26 -25.5h-182v-165h131q18 0 26 -21.5t0 -42.5t-26 -21h-131v-254q0 -19 -31.5 -26.5t-63 0t-31.5 26.5v254h-131q-19 0 -26.5 21.5t0 42.5t26.5 21h131v165h-141q-30 0 -55 42q-24 39 -9 56q5 5 14 5h499z" />
    <glyph glyph-name="tbar" unicode="&#x167;" horiz-adv-x="446" 
d="M379 121q18 12 23 -18q7 -38 -12 -66q-6 -7 -11 -11q-48 -27 -96 -31t-86 14t-62 63t-24 111v25h-65q-16 0 -22.5 20t0 39.5t22.5 19.5h65v61h-61q-19 0 -26.5 25t0 50t26.5 25h61l20 127q2 14 26.5 19t48 -2.5t23.5 -25.5v-118h157q19 0 26.5 -25t0 -50t-26.5 -25h-157
v-61h108q25 0 25 -39.5t-25 -39.5h-108v-29q0 -70 39.5 -84.5t110.5 26.5z" />
    <glyph glyph-name="Utilde" unicode="&#x168;" horiz-adv-x="633" 
d="M146 710q0 57 26.5 86t62.5 29q29 0 74 -18t60 -18q23 0 23 23q0 18 23.5 25.5t47 0t23.5 -25.5q0 -57 -26 -86t-63 -29q-29 0 -74.5 18.5t-60.5 18.5q-22 0 -22 -24q0 -18 -23.5 -25.5t-47 0t-23.5 25.5zM58 266v309q0 29 46 54q45 25 64 11q7 -5 7 -15v-355
q0 -75 35.5 -122.5t105.5 -47.5t105.5 47.5t35.5 122.5v338q0 19 29.5 26.5t58.5 0t29 -26.5v-342q0 -81 -23 -139.5t-82.5 -96t-152.5 -37.5t-152.5 37.5t-82.5 96t-23 139.5z" />
    <glyph glyph-name="utilde" unicode="&#x169;" horiz-adv-x="608" 
d="M200 547q0 -18 -23.5 -25.5t-47 0t-23.5 25.5q0 57 26.5 86t62.5 29q30 0 74.5 -18t59.5 -18q23 0 23 23q0 18 23.5 25.5t47 0t23.5 -25.5q0 -57 -26 -86t-63 -29q-29 0 -74.5 18.5t-60.5 18.5q-22 0 -22 -24zM555 105q23 11 29 -20q8 -35 -14 -62q-6 -8 -15 -12
q-46 -17 -78 -17q-68 0 -86 74q-73 -74 -180 -74q-75 0 -118 44.5t-43 122.5v247q0 29 46 54q44 24 63 11q7 -5 7 -15v-256q0 -106 93 -106q67 0 126 69v276q0 19 29 26.5t58.5 0t29.5 -26.5v-299q0 -43 30 -43q10 0 23 6z" />
    <glyph glyph-name="Umacron" unicode="&#x16a;" horiz-adv-x="633" 
d="M178 703q-30 0 -56 40q-24 38 -9 53q5 5 14 5h368q19 0 26.5 -24.5t0 -49t-26.5 -24.5h-317zM58 266v309q0 29 46 54q45 25 64 11q7 -5 7 -15v-355q0 -75 35.5 -122.5t105.5 -47.5t105.5 47.5t35.5 122.5v338q0 19 29.5 26.5t58.5 0t29 -26.5v-342q0 -81 -23 -139.5
t-82.5 -96t-152.5 -37.5t-152.5 37.5t-82.5 96t-23 139.5z" />
    <glyph glyph-name="umacron" unicode="&#x16b;" horiz-adv-x="608" 
d="M138 540q-30 0 -56 40q-24 38 -9 53q5 5 14 5h368q19 0 26.5 -24.5t0 -49t-26.5 -24.5h-317zM555 105q23 11 29 -20q8 -35 -14 -62q-6 -8 -15 -12q-46 -17 -78 -17q-68 0 -86 74q-73 -74 -180 -74q-75 0 -118 44.5t-43 122.5v247q0 29 46 54q44 24 63 11q7 -5 7 -15v-256
q0 -106 93 -106q67 0 126 69v276q0 19 29 26.5t58.5 0t29.5 -26.5v-299q0 -43 30 -43q10 0 23 6z" />
    <glyph glyph-name="Ubreve" unicode="&#x16c;" horiz-adv-x="633" 
d="M474 837q0 -68 -42 -106t-116 -38q-75 0 -116.5 39t-41.5 105q0 18 21 26t41.5 0t20.5 -26q0 -32 20.5 -50.5t54.5 -18.5t55 19t21 50q0 18 20.5 26t41 0t20.5 -26zM58 266v309q0 29 46 54q45 25 64 11q7 -5 7 -15v-355q0 -75 35.5 -122.5t105.5 -47.5t105.5 47.5
t35.5 122.5v338q0 19 29.5 26.5t58.5 0t29 -26.5v-342q0 -81 -23 -139.5t-82.5 -96t-152.5 -37.5t-152.5 37.5t-82.5 96t-23 139.5z" />
    <glyph glyph-name="ubreve" unicode="&#x16d;" horiz-adv-x="608" 
d="M276 530q-75 0 -116.5 39t-41.5 105q0 18 21 26t41.5 0t20.5 -26q0 -32 20.5 -50.5t54.5 -18.5t55 19t21 50q0 18 20.5 26t41 0t20.5 -26q0 -68 -42 -106t-116 -38zM555 105q23 11 29 -20q8 -35 -14 -62q-6 -8 -15 -12q-46 -17 -78 -17q-68 0 -86 74q-73 -74 -180 -74
q-75 0 -118 44.5t-43 122.5v247q0 29 46 54q44 24 63 11q7 -5 7 -15v-256q0 -106 93 -106q67 0 126 69v276q0 19 29 26.5t58.5 0t29.5 -26.5v-299q0 -43 30 -43q10 0 23 6z" />
    <glyph glyph-name="Uring" unicode="&#x16e;" horiz-adv-x="633" 
d="M316 693q-53 0 -84.5 30t-31.5 79q0 48 31 77.5t85 29.5t85.5 -29.5t31.5 -77.5q0 -49 -31.5 -79t-85.5 -30zM316 741q24 0 38 17t14 44q0 26 -14 42.5t-38 16.5q-23 0 -37.5 -16.5t-14.5 -42.5q0 -27 14.5 -44t37.5 -17zM58 266v309q0 29 46 54q45 25 64 11q7 -5 7 -15
v-355q0 -75 35.5 -122.5t105.5 -47.5t105.5 47.5t35.5 122.5v338q0 19 29.5 26.5t58.5 0t29 -26.5v-342q0 -81 -23 -139.5t-82.5 -96t-152.5 -37.5t-152.5 37.5t-82.5 96t-23 139.5z" />
    <glyph glyph-name="uring" unicode="&#x16f;" horiz-adv-x="608" 
d="M276 530q-53 0 -84.5 30t-31.5 79q0 48 31 77.5t85 29.5t85.5 -29.5t31.5 -77.5q0 -49 -31.5 -79t-85.5 -30zM276 698q-23 0 -37.5 -16.5t-14.5 -42.5q0 -27 14.5 -44t37.5 -17q24 0 38 17t14 44q0 26 -14 42.5t-38 16.5zM555 105q23 11 29 -20q8 -35 -14 -62
q-6 -8 -15 -12q-46 -17 -78 -17q-68 0 -86 74q-73 -74 -180 -74q-75 0 -118 44.5t-43 122.5v247q0 29 46 54q44 24 63 11q7 -5 7 -15v-256q0 -106 93 -106q67 0 126 69v276q0 19 29 26.5t58.5 0t29.5 -26.5v-299q0 -43 30 -43q10 0 23 6z" />
    <glyph glyph-name="Uhungarumlaut" unicode="&#x170;" horiz-adv-x="633" 
d="M184 715l81 132q15 25 68 27q45 2 48 -15q0 -6 -4 -12l-102 -132q-15 -21 -60 -21q-33 0 -33 15q0 3 2 6zM363 715l87 132q17 24 74 26q47 1 49 -15q0 -6 -4 -11l-111 -132q-17 -20 -65 -19q-34 0 -33 13zM58 266v309q0 29 46 54q45 25 64 11q7 -5 7 -15v-355
q0 -75 35.5 -122.5t105.5 -47.5t105.5 47.5t35.5 122.5v338q0 19 29.5 26.5t58.5 0t29 -26.5v-342q0 -81 -23 -139.5t-82.5 -96t-152.5 -37.5t-152.5 37.5t-82.5 96t-23 139.5z" />
    <glyph glyph-name="uhungarumlaut" unicode="&#x171;" horiz-adv-x="608" 
d="M235 552q-15 -21 -60 -21q-33 0 -33 15q0 3 2 6l81 132q15 25 68 27q45 2 48 -15q0 -6 -4 -12zM418 552q-17 -20 -65 -19q-34 0 -33 13l3 6l87 132q17 24 74 26q47 1 49 -15q0 -6 -4 -11zM555 105q23 11 29 -20q8 -35 -14 -62q-6 -8 -15 -12q-46 -17 -78 -17
q-68 0 -86 74q-73 -74 -180 -74q-75 0 -118 44.5t-43 122.5v247q0 29 46 54q44 24 63 11q7 -5 7 -15v-256q0 -106 93 -106q67 0 126 69v276q0 19 29 26.5t58.5 0t29.5 -26.5v-299q0 -43 30 -43q10 0 23 6z" />
    <glyph glyph-name="Uogonek" unicode="&#x172;" horiz-adv-x="631" 
d="M457 608q0 19 29.5 26.5t58.5 0t29 -26.5v-342q0 -142 -74 -213q-34 -32 -85 -47l-61 -58q-23 -21 -23 -37q0 -21 26 -21q14 0 45 12q18 8 21 -19q4 -31 -14 -48l-4 -4q-47 -26 -92 -26q-42 0 -68 26t-26 64q0 47 41 88l14 12q-216 23 -216 271v309q0 29 46 54
q45 25 64 11q7 -5 7 -15v-355q0 -75 35.5 -122.5t105.5 -47.5t105.5 47.5t35.5 122.5v338z" />
    <glyph glyph-name="uogonek" unicode="&#x173;" horiz-adv-x="577" 
d="M424 -52q-23 -21 -23 -37q0 -21 27 -21q13 0 44 12q19 8 21 -19q4 -31 -14 -48l-4 -4q-45 -26 -91 -26q-42 0 -68.5 23.5t-26.5 57.5q0 42 42 79l54 48v49q-73 -68 -174 -68q-75 0 -118 44.5t-43 122.5v247q0 29 46 54q44 24 63 11q7 -5 7 -15v-256q0 -106 93 -106
q67 0 126 69v276q0 19 29 26.5t58.5 0t29.5 -26.5v-402q0 -15 -15 -32z" />
    <glyph glyph-name="Wcircumflex" unicode="&#x174;" horiz-adv-x="859" 
d="M379 708q-17 -22 -69 -23q-43 -1 -43 15q0 4 3 8q22 31 71 87.5t62 66.5q9 6 26.5 6.5t26.5 -6.5q13 -10 62.5 -66.5t71.5 -87.5q11 -17 -21 -22q-44 -6 -76 12q-8 5 -12 10q-27 39 -51 64q-24 -25 -51 -64zM711 604q8 28 60 32q49 4 64 -16q5 -7 3 -16
q-51 -180 -119.5 -368t-101.5 -228q-14 -16 -38 -16t-39 16q-36 44 -110 249q-74 -200 -111 -249q-14 -16 -38 -16t-39 16q-34 40 -101 225t-120 371q-6 23 30 31q44 9 78 -10q15 -8 18 -21q74 -277 133 -434q53 117 97 243q-31 99 -58 191q-6 23 30 30q44 10 79 -9
q15 -9 18 -21q64 -256 132 -434q68 174 133 434z" />
    <glyph glyph-name="wcircumflex" unicode="&#x175;" horiz-adv-x="755" 
d="M328 545q-17 -22 -69 -23q-43 -1 -43 15q0 4 3 8q22 31 71 87.5t62 66.5q9 6 26.5 6.5t26.5 -6.5q13 -10 62.5 -66.5t71.5 -87.5q11 -17 -21 -22q-44 -6 -76 12q-8 5 -12 10q-27 39 -51 64q-24 -25 -51 -64zM608 441q5 24 59 27q53 4 65 -16q4 -5 2 -11
q-35 -123 -92.5 -263.5t-86.5 -171.5q-14 -13 -39 -13t-39 13q-36 41 -105 218q-54 -171 -94 -218q-13 -14 -38 -14t-38 14q-30 33 -88.5 173.5t-91.5 261.5q-4 16 23 24q42 11 80 -4q20 -8 22 -20q34 -154 92 -302q47 110 79 235l-20 67q-4 16 23 24q42 11 80 -4
q20 -8 22 -20q38 -166 92 -302q56 133 93 302z" />
    <glyph glyph-name="Ycircumflex" unicode="&#x176;" horiz-adv-x="624" 
d="M262 708q-17 -22 -69 -23q-43 -1 -43 15q0 4 3 8q22 31 71 87.5t62 66.5q9 6 26.5 6.5t26.5 -6.5q13 -10 62.5 -66.5t71.5 -87.5q11 -17 -21 -22q-44 -6 -76 12q-8 5 -12 10q-27 39 -51 64q-24 -25 -51 -64zM479 604q12 27 65 30q49 4 59 -16q3 -6 -1 -14
q-111 -233 -232 -384v-197q0 -19 -29 -26.5t-58.5 0t-29.5 26.5v198q-120 151 -231 383q-11 22 26 29q44 8 80 -12q13 -8 18 -17q67 -147 166 -288q98 140 167 288z" />
    <glyph glyph-name="ycircumflex" unicode="&#x177;" horiz-adv-x="560" 
d="M229 545q-17 -22 -69 -23q-43 -1 -43 15q0 4 3 8q22 31 71 87.5t62 66.5q9 6 26.5 6.5t26.5 -6.5q13 -10 62.5 -66.5t71.5 -87.5q11 -17 -21 -22q-44 -6 -76 12q-8 5 -12 10q-27 39 -51 64q-24 -25 -51 -64zM416 438q9 27 61 31q49 4 61 -16q4 -7 1 -15
q-91 -260 -253 -536q-62 -106 -148 -106q-38 0 -78 20q-23 13 -22 54q2 36 21 41q7 2 16 -3q22 -13 42 -13q42 0 81 69q22 40 33 61q-139 210 -211 412q-9 24 29 31q44 9 77 -11q14 -9 18 -20q47 -147 142 -305q73 148 130 306z" />
    <glyph glyph-name="Ydieresis" unicode="&#x178;" horiz-adv-x="624" 
d="M194 693q-29 0 -47.5 19t-18.5 50t18.5 50t47.5 19t47 -19t18 -50t-18 -50t-47 -19zM431 693q-30 0 -48 19t-18 50t18 50t48 19q29 0 47 -19t18 -50t-18 -50t-47 -19zM479 604q12 27 65 30q49 4 59 -16q3 -6 -1 -14q-111 -233 -232 -384v-197q0 -19 -29 -26.5t-58.5 0
t-29.5 26.5v198q-120 151 -231 383q-11 22 26 29q44 8 80 -12q13 -8 18 -17q67 -147 166 -288q98 140 167 288z" />
    <glyph glyph-name="Zacute" unicode="&#x179;" horiz-adv-x="577" 
d="M344 715q-15 -22 -59 -22q-36 0 -34 17q1 2 2 5l64 132q13 25 73 28q54 2 60 -16q2 -6 -3 -12zM511 103q19 0 27 -25.5t0 -51.5t-27 -26h-452q-28 0 -33 38.5t9 56.5q155 256 345 432h-279q-30 0 -55 42q-24 39 -9 56q4 5 14 5h470q26 0 31 -40t-21 -59
q-201 -185 -354 -428h334z" />
    <glyph glyph-name="zacute" unicode="&#x17a;" horiz-adv-x="498" 
d="M299 552q-15 -22 -59 -22q-36 0 -34 17q1 2 2 5l64 132q13 25 73 28q54 2 60 -16q2 -6 -3 -12zM430 98q18 0 26 -24.5t0 -49t-26 -24.5h-371q-23 0 -25.5 38t11.5 54q120 173 261 273h-198q-30 0 -56 41q-23 38 -8 53q5 5 14 5h379q24 0 28 -41t-16 -54
q-169 -121 -268 -271h249z" />
    <glyph glyph-name="Zdotaccent" unicode="&#x17b;" horiz-adv-x="577" 
d="M294 716q-32 0 -50.5 19.5t-18.5 52.5q0 32 19 52t50 20q30 0 49 -20t19 -52q0 -33 -19 -52.5t-49 -19.5zM511 103q19 0 27 -25.5t0 -51.5t-27 -26h-452q-28 0 -33 38.5t9 56.5q155 256 345 432h-279q-30 0 -55 42q-24 39 -9 56q4 5 14 5h470q26 0 31 -40t-21 -59
q-201 -185 -354 -428h334z" />
    <glyph glyph-name="zdotaccent" unicode="&#x17c;" horiz-adv-x="498" 
d="M249 553q-32 0 -50.5 19.5t-18.5 52.5q0 32 19 52t50 20q30 0 49 -20t19 -52q0 -33 -19 -52.5t-49 -19.5zM430 98q18 0 26 -24.5t0 -49t-26 -24.5h-371q-23 0 -25.5 38t11.5 54q120 173 261 273h-198q-30 0 -56 41q-23 38 -8 53q5 5 14 5h379q24 0 28 -41t-16 -54
q-169 -121 -268 -271h249z" />
    <glyph glyph-name="Zcaron" unicode="&#x17d;" horiz-adv-x="577" 
d="M268 699q-14 10 -63 66t-72 88q-11 16 20 21q42 7 75 -10q10 -5 14 -11q31 -42 52 -64q23 25 52 64q15 22 68 22q44 1 43 -16q-1 -3 -3 -6q-20 -30 -70 -86.5t-64 -67.5q-9 -5 -26 -5t-26 5zM511 103q19 0 27 -25.5t0 -51.5t-27 -26h-452q-28 0 -33 38.5t9 56.5
q155 256 345 432h-279q-30 0 -55 42q-24 39 -9 56q4 5 14 5h470q26 0 31 -40t-21 -59q-201 -185 -354 -428h334z" />
    <glyph glyph-name="zcaron" unicode="&#x17e;" horiz-adv-x="498" 
d="M223 536q-14 10 -63 66t-72 88q-11 16 20 21q42 7 75 -10q10 -5 14 -11q31 -42 52 -64q23 25 52 64q15 22 68 22q44 1 43 -16q-1 -3 -3 -6q-20 -30 -70 -86.5t-64 -67.5q-9 -5 -26 -5t-26 5zM430 98q18 0 26 -24.5t0 -49t-26 -24.5h-371q-23 0 -25.5 38t11.5 54
q120 173 261 273h-198q-30 0 -56 41q-23 38 -8 53q5 5 14 5h379q24 0 28 -41t-16 -54q-169 -121 -268 -271h249z" />
    <glyph glyph-name="Aringacute" unicode="&#x1fa;" horiz-adv-x="627" 
d="M304 806q-26 -7 -48 14q-20 20 -3 31l3 1l115 50q27 12 65 -15q32 -23 21 -37q-4 -5 -11 -7zM606 23q7 -20 -27 -28q-46 -10 -85 8q-17 8 -21 20q-15 50 -45 144h-229q-30 -94 -45 -144q-8 -26 -63 -30q-53 -4 -68 15q-5 7 -2 15q50 151 125.5 323.5t127.5 251.5
q-31 9 -49 32t-18 55q0 41 28.5 65.5t77.5 24.5t78 -24.5t29 -65.5q0 -66 -67 -87q52 -80 127.5 -252t125.5 -323zM313 727q-18 0 -30 -11.5t-12 -30.5t12 -31t30 -12q19 0 30.5 11.5t11.5 31.5q0 19 -11.5 30.5t-30.5 11.5zM233 266h161q-36 99 -80 195q-44 -92 -81 -195z
" />
    <glyph glyph-name="aringacute" unicode="&#x1fb;" horiz-adv-x="572" 
d="M312 761q-23 -19 -67 -19q-30 1 -28 13q1 3 3 6l64 89q18 25 83 25q52 0 54 -15q0 -5 -6 -10zM253 513q-53 0 -85 28t-32 73q0 46 32 73.5t85 27.5q54 0 85 -27.5t31 -73.5q0 -45 -31.5 -73t-84.5 -28zM253 667q-23 0 -37.5 -15t-14.5 -38q0 -24 14.5 -38.5t37.5 -14.5
q24 0 38 14.5t14 38.5t-14 38.5t-38 14.5zM519 105q25 9 31 -22q7 -34 -15 -60q-7 -7 -16 -11q-42 -17 -75 -17q-59 0 -81 56q-64 -58 -164 -58q-75 0 -120 39.5t-45 106.5t48 107t128 40q91 0 141 -26v5q0 61 -27.5 86t-91.5 25q-88 0 -158 -41q-21 -13 -28 14q-8 32 12 58
q4 5 8 8q66 55 202 55q97 0 148.5 -44t51.5 -146v-123q0 -56 29 -56q11 0 22 4zM231 86q78 0 120 51v40q-32 23 -114 23q-43 0 -64 -16.5t-21 -41.5q0 -24 19 -40t60 -16z" />
    <glyph glyph-name="AEacute" unicode="&#x1fc;" horiz-adv-x="881" 
d="M540 715q-15 -22 -59 -22q-36 0 -34 17q1 2 2 5l64 132q13 25 73 28q54 2 60 -16q2 -6 -3 -12zM825 103q19 0 26.5 -25.5t0 -51.5t-26.5 -26h-365q-22 0 -22 44v126h-203q-46 -78 -81 -147q-13 -27 -72 -30q-53 -3 -61 18q-2 5 1 12q34 66 90 161t123 198.5t130 175.5
t95 72h375q27 0 16 -36q-11 -38 -42 -58q-13 -9 -25 -9h-233v-157h204q19 0 26.5 -26t0 -51.5t-26.5 -25.5h-204v-164h274zM292 264h146v208q-65 -78 -146 -208z" />
    <glyph glyph-name="aeacute" unicode="&#x1fd;" horiz-adv-x="833" 
d="M474 552q-15 -22 -59 -22q-36 0 -34 17q1 2 2 5l64 132q13 25 73 28q54 2 60 -16q2 -6 -3 -12zM803 258q0 -36 -91.5 -48.5t-241.5 -14.5q13 -54 51.5 -80.5t92.5 -26.5q66 0 132 33q27 13 35 -15q7 -31 -13 -57q-6 -7 -13 -11q-71 -43 -161 -43q-121 0 -185 83
q-24 -37 -79 -61t-125 -24q-78 0 -124.5 38.5t-46.5 102.5q0 65 46 104t124 39h156v1q-3 54 -33 76t-95 22q-91 0 -161 -41q-21 -13 -26 14q-6 33 14 60q2 3 5 6q55 55 199 55q114 0 156 -72q66 72 171 72q108 0 160.5 -55.5t52.5 -156.5zM467 277q233 2 233 22
q0 38 -31 60.5t-86 22.5q-102 0 -116 -105zM238 87q46 0 83 16.5t53 42.5q-8 25 -11 50h-117q-94 0 -94 -53q0 -56 86 -56z" />
    <glyph glyph-name="Oslashacute" unicode="&#x1fe;" horiz-adv-x="692" 
d="M395 715q-15 -22 -59 -22q-36 0 -34 17q1 2 2 5l64 132q13 25 73 28q54 2 60 -16q2 -6 -3 -12zM556 560q86 -84 86 -245q0 -152 -78.5 -237t-218.5 -85q-66 0 -117 19q-5 -10 -16 -30.5t-16 -30.5q-13 -24 -69 -25q-48 -1 -52 17q-1 4 1 8q27 53 62 116q-88 86 -88 248
q0 152 78 237.5t217 85.5q70 0 127 -23l29 42q16 23 73 24q50 1 51 -16q0 -4 -3 -8q-44 -64 -66 -97zM173 315q0 -81 28 -135q106 183 210 343q-28 12 -66 12q-82 0 -127 -58t-45 -162zM345 96q82 0 128 57.5t46 161.5q0 84 -31 140q-106 -165 -208 -348q30 -11 65 -11z" />
    <glyph glyph-name="oslashacute" unicode="&#x1ff;" horiz-adv-x="554" 
d="M322 550q-16 -21 -59 -21q-34 1 -33 16q1 2 2 5l66 134q13 25 73 28q51 2 57 -15q2 -6 -3 -13zM408 483q20 26 72 27q40 1 41 -16q0 -5 -5 -11q-33 -39 -66 -81q57 -62 57 -170q0 -113 -62 -176t-174 -63q-54 0 -100 16l-27 -42q-15 -25 -65 -26q-41 -2 -44 16q-1 5 3 11
q10 17 30.5 48t27.5 41q-61 64 -61 175q0 112 62.5 175.5t173.5 63.5q63 0 111 -21q8 11 26 33zM152 232q0 -45 12 -76q67 96 157 217q-20 10 -50 10q-57 0 -88 -39.5t-31 -111.5zM271 81q57 0 88 39t31 112q0 42 -11 75q-92 -127 -155 -218q22 -8 47 -8z" />
    <glyph glyph-name="Scommaaccent" unicode="&#x218;" horiz-adv-x="518" 
d="M146 457q0 -23 10 -39t33.5 -26t41 -14.5t54.5 -11.5q38 -7 59 -12t53 -19t49 -31.5t30 -49t13 -72.5q0 -92 -65 -140.5t-164 -48.5t-195 48q-25 11 -30 59q-4 44 15 50q5 2 13 -2q107 -54 192 -54q54 0 85 22.5t31 63.5q0 19 -8.5 34t-19 23.5t-32.5 16.5t-37.5 11.5
t-44.5 9.5q-38 8 -57.5 13t-51.5 18.5t-48 30t-29 45t-13 66.5q0 92 63 141t159 49q100 0 191 -48q24 -12 28 -59q4 -43 -14 -48q-5 -1 -12 2q-111 57 -194 57q-49 0 -77 -22t-28 -63zM145 -191l49 130q8 23 62 26q49 2 55 -16q2 -5 -1 -10l-76 -130q-13 -23 -54 -25
q-34 -1 -36 17q-1 4 1 8z" />
    <glyph glyph-name="scommaaccent" unicode="&#x219;" horiz-adv-x="497" 
d="M155 333q0 -22 25.5 -32t78.5 -17q30 -4 39.5 -6t37.5 -7.5t39.5 -11t31 -16.5t28 -24t16 -32.5t7.5 -43.5q0 -74 -64 -112t-157 -38q-98 0 -175 36q-20 10 -23 57q-2 42 15 43q3 0 7 -2q76 -41 164 -41q51 0 83.5 15.5t32.5 43.5q0 13 -7.5 21.5t-25 14.5t-31.5 9t-42 7
q-102 16 -139 36q-58 32 -58 97q0 69 63.5 104.5t155.5 35.5q97 0 170 -36q21 -10 23 -55q2 -38 -14 -38q-3 0 -7 2q-78 41 -164 41q-48 0 -79 -14t-31 -37zM119 -191l49 130q8 23 62 26q49 2 55 -16q2 -5 -1 -10l-76 -130q-13 -23 -54 -25q-34 -1 -36 17q-1 4 1 8z" />
    <glyph glyph-name="uni021A" unicode="&#x21a;" horiz-adv-x="588" 
d="M535 630q18 0 26 -26t0 -51.5t-26 -25.5h-182v-504q0 -19 -31.5 -26.5t-63 0t-31.5 26.5v504h-141q-30 0 -55 42q-24 39 -9 56q5 5 14 5h499zM226 -61q8 23 62 26q49 2 55 -16q2 -5 -1 -10l-76 -130q-13 -23 -54 -25q-34 -1 -36 17q-1 4 1 8z" />
    <glyph glyph-name="uni021B" unicode="&#x21b;" horiz-adv-x="446" 
d="M379 121q19 10 24 -20q6 -38 -13 -65q-5 -6 -11 -10q-48 -27 -96 -31t-86 14t-62 63t-24 111v162h-61q-19 0 -26.5 25.5t0 51.5t26.5 26h61l20 127q2 14 26.5 19t48 -2.5t23.5 -25.5v-118h157q19 0 26.5 -26t0 -51.5t-26.5 -25.5h-157v-166q0 -70 39.5 -84.5t110.5 26.5z
M185 -61q8 23 62 26q49 2 55 -16q2 -5 -1 -10l-76 -130q-13 -23 -54 -25q-34 -1 -36 17q-1 4 1 8z" />
    <glyph glyph-name="uni0237" unicode="&#x237;" horiz-adv-x="305" 
d="M-32 -159q-24 14 -25 59q0 36 17 36l8 -2q43 -23 79 -23q76 0 76 116v380q0 29 46 54q45 25 64 11q7 -5 7 -15v-462q0 -90 -44.5 -137.5t-112.5 -47.5q-59 0 -115 31z" />
    <glyph glyph-name="circumflex" unicode="&#x2c6;" horiz-adv-x="441" 
d="M61 549q22 31 71 87.5t62 66.5q9 6 26.5 6.5t26.5 -6.5q13 -10 62.5 -66.5t71.5 -87.5q11 -17 -21 -22q-44 -6 -76 12q-8 5 -12 10q-27 39 -51 64q-24 -25 -51 -64q-17 -22 -69 -23q-43 -1 -43 15q0 4 3 8z" />
    <glyph glyph-name="caron" unicode="&#x2c7;" horiz-adv-x="442" 
d="M60 690q-11 16 20 21q42 7 75 -10q10 -5 14 -11q31 -42 52 -64q23 25 52 64q15 22 68 22q44 1 43 -16q-1 -3 -3 -6q-20 -30 -70 -86.5t-64 -67.5q-9 -5 -26 -5t-26 5q-14 10 -63 66t-72 88z" />
    <glyph glyph-name="breve" unicode="&#x2d8;" horiz-adv-x="432" 
d="M377 678q0 -68 -42 -106t-116 -38q-75 0 -116.5 39t-41.5 105q0 18 20.5 26t41.5 0t21 -26q0 -32 20.5 -50.5t54.5 -18.5t55 19t21 50q0 18 20.5 26t41 0t20.5 -26z" />
    <glyph glyph-name="dotaccent" unicode="&#x2d9;" horiz-adv-x="253" 
d="M127 557q-32 0 -50.5 19.5t-18.5 52.5q0 32 19 52t50 20q30 0 49 -20t19 -52q0 -33 -19 -52.5t-49 -19.5z" />
    <glyph glyph-name="ring" unicode="&#x2da;" horiz-adv-x="349" 
d="M174 530q-53 0 -84.5 30t-31.5 79q0 48 31 77.5t85 29.5t85.5 -29.5t31.5 -77.5q0 -49 -31.5 -79t-85.5 -30zM174 578q24 0 38 17t14 44q0 26 -14 42.5t-38 16.5q-23 0 -37.5 -16.5t-14.5 -42.5q0 -27 14.5 -44t37.5 -17z" />
    <glyph glyph-name="ogonek" unicode="&#x2db;" horiz-adv-x="270" 
d="M211 -169q-45 -26 -91 -26q-42 0 -68.5 26t-26.5 64q0 47 43 88l92 82q21 19 61 0q31 -15 26 -33q-2 -4 -5 -7l-81 -77q-24 -22 -24 -37q0 -21 27 -21q14 0 45 12q18 8 21 -19q3 -31 -15 -48z" />
    <glyph glyph-name="tilde" unicode="&#x2dc;" horiz-adv-x="457" 
d="M58 551q0 57 26.5 86t62.5 29q29 0 74 -18t60 -18q23 0 23 23q0 18 23.5 25.5t47 0t23.5 -25.5q0 -57 -26 -86t-63 -29q-29 0 -74.5 18.5t-60.5 18.5q-22 0 -22 -24q0 -18 -23.5 -25.5t-47 0t-23.5 25.5z" />
    <glyph glyph-name="hungarumlaut" unicode="&#x2dd;" horiz-adv-x="507" 
d="M57 552l81 132q15 25 68 27q45 2 48 -15q0 -6 -4 -12l-102 -132q-15 -21 -60 -21q-33 0 -33 15q0 3 2 6zM236 552l87 132q17 24 74 26q47 1 49 -15q0 -6 -4 -11l-111 -132q-17 -20 -65 -19q-34 0 -33 13z" />
    <glyph glyph-name="gravecomb" unicode="&#x300;" 
d="M-62 552q9 -17 -20 -21q-38 -5 -64 14l-7 7l-103 132q-15 19 24 26q48 8 87 -10q15 -7 20 -16z" />
    <glyph glyph-name="acutecomb" unicode="&#x301;" 
d="M-257 552l64 132q13 25 73 28q54 2 60 -16q2 -6 -3 -12l-103 -132q-15 -22 -59 -22q-36 0 -34 17q1 2 2 5z" />
    <glyph glyph-name="uni0302" unicode="&#x302;" 
d="M-386 549q22 31 71 87.5t62 66.5q9 6 26.5 6.5t26.5 -6.5q13 -10 62.5 -66.5t71.5 -87.5q11 -17 -21 -22q-44 -6 -76 12q-8 5 -12 10q-27 39 -51 64q-24 -25 -51 -64q-17 -22 -69 -23q-43 -1 -43 15q0 4 3 8z" />
    <glyph glyph-name="tildecomb" unicode="&#x303;" 
d="M-402 551q0 57 26.5 86t62.5 29q29 0 74 -18t60 -18q23 0 23 23q0 18 23.5 25.5t47 0t23.5 -25.5q0 -57 -26 -86t-63 -29q-29 0 -74.5 18.5t-60.5 18.5q-22 0 -22 -24q0 -18 -23.5 -25.5t-47 0t-23.5 25.5z" />
    <glyph glyph-name="uni0304" unicode="&#x304;" 
d="M-402 548q-30 0 -56 40q-24 38 -9 53q5 5 14 5h368q19 0 26.5 -24.5t0 -49t-26.5 -24.5h-317z" />
    <glyph glyph-name="uni0306" unicode="&#x306;" 
d="M-60 678q0 -68 -42 -106t-116 -38q-75 0 -116.5 39t-41.5 105q0 18 21 26t41.5 0t20.5 -26q0 -32 20.5 -50.5t54.5 -18.5t55 19t21 50q0 18 20.5 26t41 0t20.5 -26z" />
    <glyph glyph-name="uni0307" unicode="&#x307;" 
d="M-123 557q-32 0 -50.5 19.5t-18.5 52.5q0 32 19 52t50 20q30 0 49 -20t19 -52q0 -33 -19 -52.5t-49 -19.5z" />
    <glyph glyph-name="uni0308" unicode="&#x308;" 
d="M-330 545q-29 0 -47.5 19t-18.5 50t18.5 50t47.5 19t47 -19t18 -50t-18 -50t-47 -19zM-93 545q-30 0 -48 19t-18 50t18 50t48 19q29 0 47 -19t18 -50t-18 -50t-47 -19z" />
    <glyph glyph-name="uni030A" unicode="&#x30a;" 
d="M-177 530q-53 0 -84.5 30t-31.5 79q0 48 31 77.5t85 29.5t85.5 -29.5t31.5 -77.5q0 -49 -31.5 -79t-85.5 -30zM-177 578q24 0 38 17t14 44q0 26 -14 42.5t-38 16.5q-23 0 -37.5 -16.5t-14.5 -42.5q0 -27 14.5 -44t37.5 -17z" />
    <glyph glyph-name="uni030B" unicode="&#x30b;" 
d="M-449 552l81 132q15 25 68 27q45 2 48 -15q0 -6 -4 -12l-102 -132q-15 -21 -60 -21q-33 0 -33 15q0 3 2 6zM-270 552l87 132q17 24 74 26q47 1 49 -15q0 -6 -4 -11l-111 -132q-17 -20 -65 -19q-34 0 -33 13z" />
    <glyph glyph-name="uni030C" unicode="&#x30c;" 
d="M-387 690q-11 16 20 21q42 7 75 -10q10 -5 14 -11q31 -42 52 -64q23 25 52 64q15 22 68 22q44 1 43 -16q-1 -3 -3 -6q-20 -30 -70 -86.5t-64 -67.5q-9 -5 -26 -5t-26 5q-14 10 -63 66t-72 88z" />
    <glyph glyph-name="uni0312" unicode="&#x312;" 
d="M-61 686l-48 -131q-9 -22 -64 -25q-50 -2 -55 16q-1 4 2 9l75 131q14 24 56 25q35 1 35 -18q0 -3 -1 -7z" />
    <glyph glyph-name="uni0326" unicode="&#x326;" 
d="M-227 -191l49 130q8 23 62 26q49 2 55 -16q2 -5 -1 -10l-76 -130q-13 -23 -54 -25q-34 -1 -36 17q-1 4 1 8z" />
    <glyph glyph-name="uni0327" unicode="&#x327;" 
d="M-223 -179q-21 10 -23 46q-2 30 13 30q3 0 6 -1q17 -7 32 -7q31 0 31 31q0 11 -4 22l-26 70q-5 15 19 26t52.5 9t33.5 -17l36 -103q7 -18 7 -38q0 -36 -27.5 -60t-73.5 -24q-34 0 -76 16z" />
    <glyph glyph-name="Wgrave" unicode="&#x1e80;" horiz-adv-x="859" 
d="M381 715l-103 132q-15 19 24 26q48 8 87 -10q15 -7 20 -16l63 -132q9 -17 -20 -21q-38 -5 -64 14q-4 3 -7 7zM711 604q8 28 60 32q49 4 64 -16q5 -7 3 -16q-51 -180 -119.5 -368t-101.5 -228q-14 -16 -38 -16t-39 16q-36 44 -110 249q-74 -200 -111 -249q-14 -16 -38 -16
t-39 16q-34 40 -101 225t-120 371q-6 23 30 31q44 9 78 -10q15 -8 18 -21q74 -277 133 -434q53 117 97 243q-31 99 -58 191q-6 23 30 30q44 10 79 -9q15 -9 18 -21q64 -256 132 -434q68 174 133 434z" />
    <glyph glyph-name="wgrave" unicode="&#x1e81;" horiz-adv-x="755" 
d="M330 552l-103 132q-15 19 24 26q48 8 87 -10q15 -7 20 -16l63 -132q9 -17 -20 -21q-38 -5 -64 14q-4 3 -7 7zM608 441q5 24 59 27q53 4 65 -16q4 -5 2 -11q-35 -123 -92.5 -263.5t-86.5 -171.5q-14 -13 -39 -13t-39 13q-36 41 -105 218q-54 -171 -94 -218
q-13 -14 -38 -14t-38 14q-30 33 -88.5 173.5t-91.5 261.5q-4 16 23 24q42 11 80 -4q20 -8 22 -20q34 -154 92 -302q47 110 79 235l-20 67q-4 16 23 24q42 11 80 -4q20 -8 22 -20q38 -166 92 -302q56 133 93 302z" />
    <glyph glyph-name="Wacute" unicode="&#x1e82;" horiz-adv-x="859" 
d="M479 715q-15 -22 -59 -22q-36 0 -34 17q1 2 2 5l64 132q13 25 73 28q54 2 60 -16q2 -6 -3 -12zM711 604q8 28 60 32q49 4 64 -16q5 -7 3 -16q-51 -180 -119.5 -368t-101.5 -228q-14 -16 -38 -16t-39 16q-36 44 -110 249q-74 -200 -111 -249q-14 -16 -38 -16t-39 16
q-34 40 -101 225t-120 371q-6 23 30 31q44 9 78 -10q15 -8 18 -21q74 -277 133 -434q53 117 97 243q-31 99 -58 191q-6 23 30 30q44 10 79 -9q15 -9 18 -21q64 -256 132 -434q68 174 133 434z" />
    <glyph glyph-name="wacute" unicode="&#x1e83;" horiz-adv-x="755" 
d="M428 552q-15 -22 -59 -22q-36 0 -34 17q1 2 2 5l64 132q13 25 73 28q54 2 60 -16q2 -6 -3 -12zM608 441q5 24 59 27q53 4 65 -16q4 -5 2 -11q-35 -123 -92.5 -263.5t-86.5 -171.5q-14 -13 -39 -13t-39 13q-36 41 -105 218q-54 -171 -94 -218q-13 -14 -38 -14t-38 14
q-30 33 -88.5 173.5t-91.5 261.5q-4 16 23 24q42 11 80 -4q20 -8 22 -20q34 -154 92 -302q47 110 79 235l-20 67q-4 16 23 24q42 11 80 -4q20 -8 22 -20q38 -166 92 -302q56 133 93 302z" />
    <glyph glyph-name="Wdieresis" unicode="&#x1e84;" horiz-adv-x="859" 
d="M311 693q-29 0 -47.5 19t-18.5 50t18.5 50t47.5 19t47 -19t18 -50t-18 -50t-47 -19zM548 693q-30 0 -48 19t-18 50t18 50t48 19q29 0 47 -19t18 -50t-18 -50t-47 -19zM711 604q8 28 60 32q49 4 64 -16q5 -7 3 -16q-51 -180 -119.5 -368t-101.5 -228q-14 -16 -38 -16
t-39 16q-36 44 -110 249q-74 -200 -111 -249q-14 -16 -38 -16t-39 16q-34 40 -101 225t-120 371q-6 23 30 31q44 9 78 -10q15 -8 18 -21q74 -277 133 -434q53 117 97 243q-31 99 -58 191q-6 23 30 30q44 10 79 -9q15 -9 18 -21q64 -256 132 -434q68 174 133 434z" />
    <glyph glyph-name="wdieresis" unicode="&#x1e85;" horiz-adv-x="755" 
d="M260 530q-29 0 -47.5 19t-18.5 50t18.5 50t47.5 19t47 -19t18 -50t-18 -50t-47 -19zM497 530q-30 0 -48 19t-18 50t18 50t48 19q29 0 47 -19t18 -50t-18 -50t-47 -19zM608 441q5 24 59 27q53 4 65 -16q4 -5 2 -11q-35 -123 -92.5 -263.5t-86.5 -171.5q-14 -13 -39 -13
t-39 13q-36 41 -105 218q-54 -171 -94 -218q-13 -14 -38 -14t-38 14q-30 33 -88.5 173.5t-91.5 261.5q-4 16 23 24q42 11 80 -4q20 -8 22 -20q34 -154 92 -302q47 110 79 235l-20 67q-4 16 23 24q42 11 80 -4q20 -8 22 -20q38 -166 92 -302q56 133 93 302z" />
    <glyph glyph-name="uni1E9E" unicode="&#x1e9e;" horiz-adv-x="582" 
d="M42 23v346q0 78 23.5 133.5t65.5 85t89.5 42t104.5 12.5q91 0 199 -28q30 -8 32.5 -37t-21.5 -58q-70 -84 -115 -157q63 -25 96.5 -77.5t33.5 -114.5q0 -81 -56.5 -141t-154.5 -60q-45 0 -88 11q-26 6 -29 51q-2 41 17 51q6 3 13 1q36 -11 64 -11q53 0 85 30t32 72
q0 40 -29.5 74t-87.5 50q-22 4 -29.5 22.5t2.5 36.5q47 88 118 174q-41 12 -83 12q-72 0 -118.5 -43.5t-46.5 -147.5v-329q0 -19 -29.5 -26.5t-58.5 0t-29 26.5z" />
    <glyph glyph-name="Ygrave" unicode="&#x1ef2;" horiz-adv-x="624" 
d="M264 715l-103 132q-15 19 24 26q48 8 87 -10q15 -7 20 -16l63 -132q9 -17 -20 -21q-38 -5 -64 14q-4 3 -7 7zM479 604q12 27 65 30q49 4 59 -16q3 -6 -1 -14q-111 -233 -232 -384v-197q0 -19 -29 -26.5t-58.5 0t-29.5 26.5v198q-120 151 -231 383q-11 22 26 29
q44 8 80 -12q13 -8 18 -17q67 -147 166 -288q98 140 167 288z" />
    <glyph glyph-name="ygrave" unicode="&#x1ef3;" horiz-adv-x="560" 
d="M231 552l-103 132q-15 19 24 26q48 8 87 -10q15 -7 20 -16l63 -132q9 -17 -20 -21q-38 -5 -64 14zM416 438q9 27 61 31q49 4 61 -16q4 -7 1 -15q-91 -260 -253 -536q-62 -106 -148 -106q-38 0 -78 20q-23 13 -22 54q2 36 21 41q7 2 16 -3q22 -13 42 -13q42 0 81 69
q22 40 33 61q-139 210 -211 412q-9 24 29 31q44 9 77 -11q14 -9 18 -20q47 -147 142 -305q73 148 130 306z" />
    <glyph glyph-name="uni2009" unicode="&#x2009;" horiz-adv-x="117" 
 />
    <glyph glyph-name="endash" unicode="&#x2013;" horiz-adv-x="537" 
d="M57 240q-19 0 -26.5 26t0 51.5t26.5 25.5h442q27 0 16 -36q-11 -38 -41 -58q-13 -9 -25 -9h-392z" />
    <glyph glyph-name="emdash" unicode="&#x2014;" horiz-adv-x="825" 
d="M57 240q-19 0 -26.5 26t0 51.5t26.5 25.5h729q27 0 16 -36q-11 -38 -41 -58q-13 -9 -25 -9h-679z" />
    <glyph glyph-name="quoteleft" unicode="&#x2018;" horiz-adv-x="222" 
d="M113 667q14 13 35.5 12t38 -14t8.5 -28q-41 -73 -41 -151q0 -20 -28.5 -28t-57 0t-28.5 28q0 87 73 181z" />
    <glyph glyph-name="quoteright" unicode="&#x2019;" horiz-adv-x="222" 
d="M110 466q-14 -12 -36 -11.5t-38.5 13.5t-7.5 28q41 73 41 151q0 20 28 28.5t56.5 0t28.5 -28.5q0 -88 -72 -181z" />
    <glyph glyph-name="quotesinglbase" unicode="&#x201a;" horiz-adv-x="226" 
d="M110 -119q-12 -14 -29.5 -14t-30.5 13.5t-7 29.5q35 90 35 197q0 20 26.5 28.5t53.5 0t27 -28.5q0 -115 -75 -226z" />
    <glyph glyph-name="quotedblleft" unicode="&#x201c;" horiz-adv-x="398" 
d="M113 667q14 13 35.5 12t38 -14t8.5 -28q-41 -73 -41 -151q0 -20 -28.5 -28t-57 0t-28.5 28q0 87 73 181zM288 667q14 13 35.5 12t38.5 -14t8 -28q-41 -73 -41 -151q0 -20 -28.5 -28t-56.5 0t-28 28q0 88 72 181z" />
    <glyph glyph-name="quotedblright" unicode="&#x201d;" horiz-adv-x="398" 
d="M110 466q-14 -12 -36 -11.5t-38.5 13.5t-7.5 28q41 73 41 151q0 20 28 28.5t56.5 0t28.5 -28.5q0 -88 -72 -181zM284 466q-13 -12 -34.5 -11.5t-38.5 13.5t-9 28q42 75 42 151q0 20 28 28.5t56.5 0t28.5 -28.5q0 -89 -73 -181z" />
    <glyph glyph-name="quotedblbase" unicode="&#x201e;" horiz-adv-x="398" 
d="M110 -98q-14 -12 -36 -11.5t-38.5 13.5t-7.5 28q41 73 41 151q0 20 28 28.5t56.5 0t28.5 -28.5q0 -88 -72 -181zM284 -98q-13 -12 -34.5 -11.5t-38.5 13.5t-9 28q42 75 42 151q0 20 28 28.5t56.5 0t28.5 -28.5q0 -89 -73 -181z" />
    <glyph glyph-name="dagger" unicode="&#x2020;" horiz-adv-x="430" 
d="M380 464q18 0 26 -26t0 -51.5t-26 -25.5h-106v-440q0 -18 -29.5 -26t-59 0t-29.5 26v440h-106q-19 0 -26.5 25.5t0 51.5t26.5 26h106v111q0 29 46 54q44 24 65 11q7 -6 7 -15v-161h106z" />
    <glyph glyph-name="daggerdbl" unicode="&#x2021;" horiz-adv-x="430" 
d="M380 161q18 0 26 -25.5t0 -51.5t-26 -26h-106v-137q0 -18 -29.5 -26t-59 0t-29.5 26v137h-106q-19 0 -26.5 26t0 51.5t26.5 25.5h106v200h-106q-19 0 -26.5 25.5t0 51.5t26.5 26h106v111q0 29 46 54q44 24 65 11q7 -6 7 -15v-161h106q18 0 26 -26t0 -51.5t-26 -25.5h-106
v-200h106z" />
    <glyph glyph-name="bullet" unicode="&#x2022;" horiz-adv-x="333" 
d="M168 174q-52 0 -84 31t-32 81q0 49 32 79.5t84 30.5q50 0 81.5 -30.5t31.5 -79.5q0 -50 -31.5 -81t-81.5 -31z" />
    <glyph glyph-name="ellipsis" unicode="&#x2026;" horiz-adv-x="647" 
d="M125 -7q-29 0 -47.5 17t-18.5 45t18.5 45.5t47.5 17.5q28 0 46 -17.5t18 -45.5t-18 -45t-46 -17zM324 -7q-29 0 -47 17t-18 45t18 45.5t47 17.5q28 0 46 -17.5t18 -45.5t-17.5 -45t-46.5 -17zM524 -7q-29 0 -47 17t-18 45t18 45.5t47 17.5q28 0 46 -17.5t18 -45.5
t-18 -45t-46 -17z" />
    <glyph glyph-name="perthousand" unicode="&#x2030;" horiz-adv-x="1116" 
d="M246 22q-16 -26 -73 -28q-49 -2 -54 17q-2 5 2 11q176 291 432 590q22 25 81 27q50 1 50 -17q-1 -5 -5 -10q-271 -321 -433 -590zM182 327q-72 0 -115.5 42.5t-43.5 112.5t43.5 112.5t115.5 42.5t115.5 -42.5t43.5 -112.5t-43.5 -112.5t-115.5 -42.5zM182 399q26 0 41 22
t15 61t-15 61t-41 22q-27 0 -41.5 -22t-14.5 -61t14.5 -61t41.5 -22zM577 -7q-72 0 -115 42.5t-43 112.5t43 112.5t115 42.5t115.5 -42.5t43.5 -112.5t-43.5 -112.5t-115.5 -42.5zM933 -7q-71 0 -114.5 42.5t-43.5 112.5t43.5 112.5t114.5 42.5q72 0 116 -42.5t44 -112.5
t-44 -112.5t-116 -42.5zM577 65q26 0 41 22t15 61t-15 61t-41 22t-41 -22t-15 -61t15 -61t41 -22zM933 65q26 0 41.5 22t15.5 61t-15.5 61t-41.5 22t-41 -22t-15 -61t15 -61t41 -22z" />
    <glyph glyph-name="guilsinglleft" unicode="&#x2039;" horiz-adv-x="272" 
d="M149 106q-34 41 -72.5 100.5t-38.5 70.5t38 70t73 101q16 23 57 22q32 0 30 -16q0 -3 -2 -6q-27 -38 -59 -100.5t-32 -70.5t32.5 -71t58.5 -100q10 -19 -19 -21q-36 -4 -60 16q-4 2 -6 5z" />
    <glyph glyph-name="guilsinglright" unicode="&#x203a;" horiz-adv-x="272" 
d="M122 106q-18 -22 -58 -22q-30 0 -28 15l2 7q26 38 58.5 100.5t32.5 70.5t-32.5 70t-58.5 101q-10 18 18 22q36 5 59 -15l7 -7q35 -42 73.5 -101t38.5 -70t-39 -70.5t-73 -100.5z" />
    <glyph glyph-name="fraction" unicode="&#x2044;" horiz-adv-x="117" 
d="M-208 -44q204 367 445 696q16 21 65 21q39 0 39 -15l-3 -6q-241 -329 -445 -696q-13 -22 -61 -24q-41 -1 -42 16q-1 4 2 8z" />
    <glyph glyph-name="uni2070" unicode="&#x2070;" horiz-adv-x="349" 
d="M174 361q-72 0 -112.5 48t-40.5 131q0 85 40.5 132.5t112.5 47.5q71 0 112 -47.5t41 -132.5q0 -83 -41 -131t-112 -48zM173 437q24 0 38 27.5t14 75.5q0 49 -14 77t-38 28t-37.5 -28t-13.5 -77t13.5 -76t37.5 -27z" />
    <glyph glyph-name="uni2074" unicode="&#x2074;" horiz-adv-x="349" 
d="M314 530q18 0 9 -35q-10 -36 -28 -41q-2 -1 -4 -1h-21v-75q0 -16 -47.5 -16t-47.5 16v75h-139q-18 0 -18 28t11 44l113 170q17 26 75 26q32 0 42.5 -4.5t10.5 -18.5v-168h44zM112 530h63v95z" />
    <glyph glyph-name="uni2075" unicode="&#x2075;" horiz-adv-x="310" 
d="M158 584q125 0 125 -106q0 -55 -38 -86t-96 -31q-51 0 -101 25q-20 9 -21 47q-1 33 15 32q2 -1 5 -2q44 -22 87 -22q26 0 42 10.5t16 26.5q0 37 -74 37q-33 0 -62 -5q-11 -1 -16 4.5t-5 17.5v148q0 34 16 34h210q17 0 8 -35t-26 -40l-4 -1h-111v-55q10 1 30 1z" />
    <glyph glyph-name="uni2076" unicode="&#x2076;" horiz-adv-x="339" 
d="M182 589q63 0 98.5 -29.5t35.5 -79.5q0 -55 -35.5 -86.5t-98.5 -31.5q-161 0 -161 154q0 205 167 205q56 0 94 -25q17 -12 16 -48q-1 -28 -15 -25l-5 1q-40 21 -78 21q-65 0 -77 -70q26 14 59 14zM174 435q50 0 50 44q0 21 -13.5 33t-36.5 12q-38 0 -55 -20
q2 -38 14.5 -53.5t40.5 -15.5z" />
    <glyph glyph-name="uni2077" unicode="&#x2077;" horiz-adv-x="331" 
d="M295 714q14 0 15 -32.5t-10 -45.5q-87 -113 -150 -257q-8 -18 -58 -18q-44 1 -45 16l1 4q39 89 70.5 144t75.5 109h-142q-17 0 -29 36q-13 36 1 43q2 1 4 1h267z" />
    <glyph glyph-name="uni2078" unicode="&#x2078;" horiz-adv-x="345" 
d="M265 555q54 -25 54 -88q0 -49 -38.5 -77t-108.5 -28t-108 28t-38 77q0 61 53 87q-44 24 -44 73q0 44 36.5 68.5t100.5 24.5q65 0 100.5 -24.5t35.5 -68.5q0 -49 -43 -72zM172 660q-42 0 -42 -35q0 -38 42 -38q19 0 31 10t12 28q0 35 -43 35zM172 429q50 0 50 41
q0 43 -50 43q-48 0 -48 -43q0 -41 48 -41z" />
    <glyph glyph-name="uni2079" unicode="&#x2079;" horiz-adv-x="339" 
d="M155 720q80 0 121 -39t41 -115q0 -204 -167 -204q-58 0 -95 25q-16 12 -15 46q0 27 14 26q3 0 6 -2q40 -19 77 -19q65 0 77 70q-26 -15 -59 -15q-62 0 -97.5 29.5t-35.5 79.5q0 55 35.5 86.5t97.5 31.5zM163 558q39 0 56 21q-2 37 -15 53t-41 16q-24 0 -36.5 -12
t-12.5 -33t13 -33t36 -12z" />
    <glyph glyph-name="uni207F" unicode="&#x207f;" horiz-adv-x="330" 
d="M296 470q14 7 17 -15q1 -29 -17 -41q-21 -11 -47 -11q-34 0 -52 14t-18 52v27v31q0 39 -28 39q-22 0 -41 -25v-118q0 -19 -44.5 -19t-44.5 19v195q0 18 30.5 19t38.5 -12l16 -25q30 36 77 36q40 0 62.5 -21t22.5 -59v-53v-9q0 -28 13 -28q6 0 15 4z" />
    <glyph glyph-name="uni2080" unicode="&#x2080;" horiz-adv-x="349" 
d="M174 -175q-72 0 -112.5 48t-40.5 131q0 85 40.5 132.5t112.5 47.5q71 0 112 -47.5t41 -132.5q0 -83 -41 -131t-112 -48zM173 -99q24 0 38 27.5t14 75.5q0 49 -14 77t-38 28t-37.5 -28t-13.5 -77t13.5 -76t37.5 -27z" />
    <glyph glyph-name="uni2081" unicode="&#x2081;" horiz-adv-x="269" 
d="M153 171q21 15 46 15t25 -20v-325q0 -15 -49 -15t-49 15v201l-75 -52q-19 -13 -32 25q-14 40 -3 59l3 4z" />
    <glyph glyph-name="uni2082" unicode="&#x2082;" horiz-adv-x="312" 
d="M248 -83q18 0 31 -37q13 -39 -1 -47q-2 -1 -5 -1h-232q-15 0 -15 37q0 34 9.5 61.5t29.5 47.5t33.5 30t37.5 24q37 24 42 35q3 5 3 11q0 24 -34 24q-33 0 -95 -28q-17 -8 -20 20q-5 36 12 58q4 5 8 7q46 25 100 25q56 0 94 -28.5t38 -79.5q0 -27 -12 -47t-24.5 -28.5
t-36.5 -20.5q-53 -30 -69 -63h106z" />
    <glyph glyph-name="uni2083" unicode="&#x2083;" horiz-adv-x="320" 
d="M216 9q34 -4 55 -24.5t21 -53.5q0 -49 -38.5 -77t-96.5 -28t-112 26q-19 9 -19 51q-1 36 14 35q3 0 5 -1q59 -29 104 -29q22 0 35.5 8t13.5 20q0 19 -22 26t-71 7q-17 0 -17.5 38.5t17.5 38.5q89 0 89 30q0 27 -49 27q-45 0 -99 -29q-15 -8 -19 18q-5 35 10 58q4 5 8 7
q53 27 112 27q56 0 93 -26t37 -74q0 -65 -71 -75z" />
    <glyph glyph-name="uni2084" unicode="&#x2084;" horiz-adv-x="349" 
d="M314 -7q18 0 9 -35q-10 -36 -28 -41q-2 -1 -4 -1h-21v-75q0 -16 -47.5 -16t-47.5 16v75h-139q-18 0 -18 28.5t11 44.5l113 169q17 27 75 27q32 0 42.5 -4.5t10.5 -18.5v-169h44zM112 -7h63v96z" />
    <glyph glyph-name="uni2085" unicode="&#x2085;" horiz-adv-x="310" 
d="M158 48q125 0 125 -106q0 -55 -38 -86t-96 -31q-51 0 -101 25q-20 9 -21 47q-1 33 15 32q2 -1 5 -2q44 -22 87 -22q26 0 42 10.5t16 26.5q0 37 -74 37q-33 0 -62 -5q-11 -1 -16 4.5t-5 17.5v148q0 34 16 34h210q17 0 8 -35t-26 -40q-2 -1 -4 -1h-110v-55q10 1 29 1z" />
    <glyph glyph-name="uni2086" unicode="&#x2086;" horiz-adv-x="337" 
d="M182 52q63 0 98.5 -29.5t35.5 -79.5q0 -55 -35.5 -86.5t-98.5 -31.5q-161 0 -161 154q0 205 167 205q56 0 94 -25q17 -12 16 -48q-1 -28 -15 -26q-3 1 -5 2q-40 21 -78 21q-65 0 -77 -70q26 14 59 14zM174 -102q50 0 50 44q0 21 -13.5 33t-36.5 12q-37 0 -55 -20
q2 -38 14.5 -53.5t40.5 -15.5z" />
    <glyph glyph-name="uni2087" unicode="&#x2087;" horiz-adv-x="331" 
d="M295 178q14 0 15 -32.5t-10 -45.5q-87 -113 -150 -257q-8 -18 -58 -18q-44 1 -45 16l1 4q39 89 70.5 144t75.5 109h-142q-17 0 -29 36q-13 36 1 43q2 1 4 1h267z" />
    <glyph glyph-name="uni2088" unicode="&#x2088;" horiz-adv-x="345" 
d="M265 19q54 -25 54 -88q0 -49 -38.5 -77t-108.5 -28t-108 28t-38 77q0 61 53 87q-44 24 -44 73q0 44 36.5 68.5t100.5 24.5q65 0 100.5 -24.5t35.5 -68.5q0 -49 -43 -72zM172 124q-42 0 -42 -35q0 -38 42 -38q19 0 31 10t12 28q0 35 -43 35zM172 -107q50 0 50 41
q0 43 -50 43q-48 0 -48 -43q0 -41 48 -41z" />
    <glyph glyph-name="uni2089" unicode="&#x2089;" horiz-adv-x="338" 
d="M155 184q80 0 121 -39t41 -115q0 -204 -167 -204q-58 0 -95 25q-16 12 -15 46q0 27 14 26q3 0 6 -2q40 -19 77 -19q65 0 77 70q-26 -15 -59 -15q-62 0 -97.5 29.5t-35.5 79.5q0 55 35.5 86.5t97.5 31.5zM163 22q39 0 56 21q-2 37 -15 53t-41 16q-24 0 -36.5 -12
t-12.5 -33t13 -33t36 -12z" />
    <glyph glyph-name="Euro" unicode="&#x20ac;" horiz-adv-x="582" 
d="M532 132q22 11 28 -23q6 -37 -12 -63q-4 -5 -8 -8q-23 -18 -69 -31.5t-99 -13.5q-106 0 -177 55.5t-94 164.5h-66q-27 0 -17 25q11 27 41 42q14 6 26 6h7q-1 9 -1 28q0 20 1 30h-57q-27 0 -17 25q11 27 41 42q14 6 26 6h16q23 109 94 164.5t177 55.5q53 0 99.5 -14
t68.5 -32q21 -14 21 -57q0 -40 -20 -39q-4 0 -9 3q-24 15 -65 27t-78 12q-127 0 -166 -120h282q27 0 16 -25q-11 -27 -42 -42q-13 -6 -25 -6h-244q-1 -10 -1 -30q0 -19 1 -28h229q27 0 17 -25q-11 -27 -42 -42q-13 -6 -25 -6h-166q19 -61 63 -90.5t103 -29.5q38 0 79 12
t64 27z" />
    <glyph glyph-name="trademark" unicode="&#x2122;" horiz-adv-x="722" 
d="M684 403q9 4 13 -13q6 -28 -7 -44l-6 -4q-28 -9 -54.5 -10t-45.5 15t-19 48v34v58q-41 -65 -59 -76q-11 -9 -23 0q-23 16 -59 73v-131q0 -21 -47 -21t-47 21v260q0 20 44 22t50 -12q32 -68 71 -117q45 58 70 117q5 14 49.5 12t44.5 -22v-172v-20q0 -27 25 -18zM284 630
q12 0 17 -21t0 -42t-17 -21h-74v-193q0 -21 -49.5 -21t-49.5 21v193h-55q-18 0 -30 38q-13 38 3 45l4 1h251z" />
    <glyph glyph-name="uni2150" unicode="&#x2150;" horiz-adv-x="798" 
d="M536 652q16 21 65 21q39 0 39 -15l-3 -6q-241 -329 -445 -696q-13 -22 -61 -24q-41 -1 -42 16q-1 4 2 8q204 367 445 696zM126 293v202l-75 -52q-19 -13 -32 25q-14 39 -3 59l3 4l133 91l1 1q14 10 30.5 14t28.5 -0.5t12 -18.5v-325q0 -15 -49 -15t-49 15zM762 346
q14 0 15 -32.5t-10 -45.5q-87 -113 -150 -257q-8 -18 -58 -18q-44 1 -45 16q0 2 1 4q39 89 70.5 144t75.5 109h-142q-17 0 -29 36q-13 36 1 43q2 1 4 1h267z" />
    <glyph glyph-name="uni2153" unicode="&#x2153;" horiz-adv-x="736" 
d="M536 652q16 21 65 21q39 0 39 -15l-3 -6q-241 -329 -445 -696q-13 -22 -61 -24q-41 -1 -42 16q-1 4 2 8q204 367 445 696zM126 293v202l-75 -52q-19 -13 -32 25q-14 39 -3 59l3 4l133 91l1 1q14 10 30.5 14t28.5 -0.5t12 -18.5v-325q0 -15 -49 -15t-49 15zM632 177
q34 -4 55 -24.5t21 -53.5q0 -49 -38.5 -77t-96.5 -28t-112 26q-19 9 -19 51q-1 36 14 35q3 0 5 -1q59 -29 104 -29q22 0 35.5 8t13.5 20q0 19 -22 26t-71 7q-17 0 -17.5 38.5t17.5 38.5q89 0 89 30q0 27 -49 27q-45 0 -99 -29q-15 -8 -19 18q-5 35 10 58q4 5 8 7
q53 27 112 27q56 0 93 -26t37 -74q0 -65 -71 -75z" />
    <glyph glyph-name="uni2154" unicode="&#x2154;" horiz-adv-x="781" 
d="M581 652q16 21 65 21q39 0 39 -15l-3 -6q-241 -329 -445 -696q-13 -22 -61 -24q-41 -1 -42 16q-1 4 2 8q204 367 445 696zM248 370q18 0 31 -37q13 -39 -1 -47l-5 -1h-232q-15 0 -15 37q0 34 9.5 61.5t29.5 47.5t33.5 30t37.5 24q2 1 6 4q34 21 38 35l1 7q0 24 -34 24
q-33 0 -95 -28q-17 -8 -20 20q-5 36 12 58q4 5 8 7q46 25 100 25q56 0 94 -28.5t38 -78.5q0 -28 -12 -47.5t-24.5 -28t-36.5 -20.5q-54 -31 -70 -64h107zM677 177q34 -4 55 -24.5t21 -53.5q0 -49 -38.5 -77t-96.5 -28t-112 26q-19 9 -19 51q-1 36 14 35q3 0 5 -1
q59 -29 104 -29q22 0 35.5 8t13.5 20q0 19 -22 26t-71 7q-17 0 -17.5 38.5t17.5 38.5q89 0 89 30q0 27 -49 27q-45 0 -99 -29q-15 -8 -19 18q-5 35 10 58q4 5 8 7q52 27 112 27q56 0 93 -26t37 -74q0 -65 -71 -75z" />
    <glyph glyph-name="uni2155" unicode="&#x2155;" horiz-adv-x="750" 
d="M536 652q16 21 65 21q39 0 39 -15l-3 -6q-241 -329 -445 -696q-13 -22 -61 -24q-41 -1 -42 16q-1 4 2 8q204 367 445 696zM126 293v202l-75 -52q-19 -13 -32 25q-14 39 -3 59l3 4l133 91l1 1q14 10 30.5 14t28.5 -0.5t12 -18.5v-325q0 -15 -49 -15t-49 15zM598 216
q125 0 125 -106q0 -55 -38 -86t-96 -31q-51 0 -101 25q-20 9 -21 47q-1 33 15 32q2 -1 5 -2q44 -22 87 -22q26 0 42 10.5t16 26.5q0 37 -74 37q-33 0 -62 -5q-11 -1 -16 4.5t-5 17.5v148q0 34 16 34h210q17 0 8 -35t-26 -40l-4 -1h-110v-55q10 1 29 1z" />
    <glyph glyph-name="uni2156" unicode="&#x2156;" horiz-adv-x="794" 
d="M581 652q16 21 65 21q39 0 39 -15l-3 -6q-241 -329 -445 -696q-13 -22 -61 -24q-41 -1 -42 16q-1 4 2 8q204 367 445 696zM248 370q18 0 31 -37q13 -39 -1 -47l-5 -1h-232q-15 0 -15 37q0 34 9.5 61.5t29.5 47.5t33.5 30t37.5 24q2 1 6 4q34 21 38 35l1 7q0 24 -34 24
q-33 0 -95 -28q-17 -8 -20 20q-5 36 12 58q4 5 8 7q46 25 100 25q56 0 94 -28.5t38 -78.5q0 -28 -12 -47.5t-24.5 -28t-36.5 -20.5q-54 -31 -70 -64h107zM642 216q125 0 125 -106q0 -55 -38 -86t-96 -31q-51 0 -101 25q-20 9 -21 47q-1 33 15 32q2 -1 5 -2q44 -22 87 -22
q26 0 42 10.5t16 26.5q0 37 -74 37q-33 0 -62 -5q-11 -1 -16 4.5t-5 17.5v148q0 34 16 34h210q17 0 8 -35t-26 -40l-4 -1h-110v-55q10 1 29 1z" />
    <glyph glyph-name="uni2157" unicode="&#x2157;" horiz-adv-x="771" 
d="M557 652q16 21 65 21q39 0 39 -15l-3 -6q-241 -329 -445 -696q-13 -22 -61 -24q-41 -1 -42 16q-1 4 2 8q204 367 445 696zM292 384q0 -50 -38.5 -77.5t-96.5 -27.5t-112 26q-19 9 -19 51q-1 36 14 35q3 0 5 -1q59 -30 104 -30q22 0 35.5 8.5t13.5 20.5q0 19 -22 26t-71 7
q-17 0 -17.5 38.5t17.5 38.5q89 0 89 30q0 27 -49 27q-45 0 -99 -29q-15 -8 -19 18q-5 35 10 58q4 5 8 7q52 27 112 27q56 0 93 -26t37 -74q0 -65 -71 -75q34 -4 55 -25t21 -53zM619 216q125 0 125 -106q0 -55 -38 -86t-96 -31q-51 0 -101 25q-20 9 -21 47q-1 33 15 32
q2 -1 5 -2q44 -22 87 -22q26 0 42 10.5t16 26.5q0 37 -74 37q-33 0 -62 -5q-11 -1 -16 4.5t-5 17.5v148q0 34 16 34h210q17 0 8 -35t-26 -40l-4 -1h-110v-55q10 1 29 1z" />
    <glyph glyph-name="uni2158" unicode="&#x2158;" horiz-adv-x="800" 
d="M586 652q16 21 65 21q39 0 39 -15l-3 -6q-241 -329 -445 -696q-13 -22 -61 -24q-41 -1 -42 16q-1 4 2 8q204 367 445 696zM175 294v75h-139q-18 0 -18 28t11 44l113 170q17 26 75 26q32 0 42.5 -4.5t10.5 -18.5v-168h44q18 0 9 -35q-10 -36 -28 -41q-2 -1 -4 -1h-21v-75
q0 -16 -47.5 -16t-47.5 16zM112 446h63v95zM648 216q125 0 125 -106q0 -55 -38 -86t-96 -31q-51 0 -101 25q-20 9 -21 47q-1 33 15 32q2 -1 5 -2q44 -22 87 -22q26 0 42 10.5t16 26.5q0 37 -74 37q-33 0 -62 -5q-11 -1 -16 4.5t-5 17.5v148q0 34 16 34h210q17 0 8 -35
t-26 -40l-4 -1h-110v-55q10 1 29 1z" />
    <glyph glyph-name="uni2159" unicode="&#x2159;" horiz-adv-x="753" 
d="M536 652q16 21 65 21q39 0 39 -15l-3 -6q-241 -329 -445 -696q-13 -22 -61 -24q-41 -1 -42 16q-1 4 2 8q204 367 445 696zM126 293v202l-75 -52q-19 -13 -32 25q-14 39 -3 59l3 4l133 91l1 1q14 10 30.5 14t28.5 -0.5t12 -18.5v-325q0 -15 -49 -15t-49 15zM598 220
q63 0 98.5 -29.5t35.5 -79.5q0 -55 -35.5 -86.5t-98.5 -31.5q-161 0 -161 154q0 205 167 205q56 0 94 -25q17 -12 16 -48q-1 -28 -15 -26q-3 1 -5 2q-40 21 -78 21q-65 0 -77 -70q26 14 59 14zM590 66q50 0 50 44q0 21 -13.5 33t-36.5 12q-37 0 -55 -20q2 -38 14.5 -53.5
t40.5 -15.5z" />
    <glyph glyph-name="uni215A" unicode="&#x215a;" horiz-adv-x="764" 
d="M547 652q16 21 65 21q39 0 39 -15l-3 -6q-241 -329 -445 -696q-13 -22 -61 -24q-41 -1 -42 16q-1 4 2 8q204 367 445 696zM283 394q0 -55 -38 -86t-96 -31q-51 0 -101 25q-20 9 -21 47q-1 33 15 32q2 -1 5 -2q44 -22 87 -22q26 0 42 10.5t16 26.5q0 37 -74 37
q-33 0 -62 -5q-11 -1 -16 4.5t-5 17.5v148q0 34 16 34h210q17 0 8 -35t-26 -40l-4 -1h-111v-55q10 1 30 1q125 0 125 -106zM609 220q63 0 98.5 -29.5t35.5 -79.5q0 -55 -35.5 -86.5t-98.5 -31.5q-161 0 -161 154q0 205 167 205q57 0 94 -25q17 -12 16 -48q-1 -28 -15 -26
q-3 1 -5 2q-40 21 -78 21q-65 0 -77 -70q26 14 59 14zM601 66q50 0 50 44q0 21 -13.5 33t-36.5 12q-37 0 -55 -20q2 -38 14.5 -53.5t40.5 -15.5z" />
    <glyph glyph-name="oneeighth" unicode="&#x215b;" horiz-adv-x="761" 
d="M536 652q16 21 65 21q39 0 39 -15l-3 -6q-241 -329 -445 -696q-13 -22 -61 -24q-41 -1 -42 16q-1 4 2 8q204 367 445 696zM126 293v202l-75 -52q-19 -13 -32 25q-14 39 -3 59l3 4l133 91l1 1q14 10 30.5 14t28.5 -0.5t12 -18.5v-325q0 -15 -49 -15t-49 15zM681 187
q54 -25 54 -88q0 -49 -38.5 -77t-108.5 -28t-108 28t-38 77q0 61 53 87q-44 24 -44 73q0 44 36.5 68.5t100.5 24.5q65 0 100.5 -24.5t35.5 -68.5q0 -49 -43 -72zM588 292q-42 0 -42 -35q0 -38 42 -38q19 0 31 10t12 28q0 35 -43 35zM588 61q50 0 50 41q0 43 -50 43
q-48 0 -48 -43q0 -41 48 -41z" />
    <glyph glyph-name="threeeighths" unicode="&#x215c;" horiz-adv-x="782" 
d="M557 652q16 21 65 21q39 0 39 -15l-3 -6q-241 -329 -445 -696q-13 -22 -61 -24q-41 -1 -42 16q-1 4 2 8q204 367 445 696zM292 384q0 -50 -38.5 -77.5t-96.5 -27.5t-112 26q-19 9 -19 51q-1 36 14 35q3 0 5 -1q59 -30 104 -30q22 0 35.5 8.5t13.5 20.5q0 19 -22 26t-71 7
q-17 0 -17.5 38.5t17.5 38.5q89 0 89 30q0 27 -49 27q-45 0 -99 -29q-15 -8 -19 18q-5 35 10 58q4 5 8 7q52 27 112 27q56 0 93 -26t37 -74q0 -65 -71 -75q34 -4 55 -25t21 -53zM702 187q54 -25 54 -88q0 -49 -38.5 -77t-108.5 -28t-108 28t-38 77q0 61 53 87q-44 24 -44 73
q0 44 36.5 68.5t100.5 24.5q65 0 100.5 -24.5t35.5 -68.5q0 -49 -43 -72zM609 292q-42 0 -42 -35q0 -38 42 -38q19 0 31 10t12 28q0 35 -43 35zM609 61q50 0 50 41q0 43 -50 43q-48 0 -48 -43q0 -41 48 -41z" />
    <glyph glyph-name="fiveeighths" unicode="&#x215d;" horiz-adv-x="772" 
d="M547 652q16 21 65 21q39 0 39 -15l-3 -6q-241 -329 -445 -696q-13 -22 -61 -24q-41 -1 -42 16q-1 4 2 8q204 367 445 696zM283 394q0 -55 -38 -86t-96 -31q-51 0 -101 25q-20 9 -21 47q-1 33 15 32q2 -1 5 -2q44 -22 87 -22q26 0 42 10.5t16 26.5q0 37 -74 37
q-33 0 -62 -5q-11 -1 -16 4.5t-5 17.5v148q0 34 16 34h210q17 0 8 -35t-26 -40l-4 -1h-111v-55q10 1 30 1q125 0 125 -106zM692 187q54 -25 54 -88q0 -49 -38.5 -77t-108.5 -28t-108 28t-38 77q0 61 53 87q-44 24 -44 73q0 44 36.5 68.5t100.5 24.5q65 0 100.5 -24.5
t35.5 -68.5q0 -49 -43 -72zM599 292q-42 0 -42 -35q0 -38 42 -38q19 0 31 10t12 28q0 35 -43 35zM599 61q50 0 50 41q0 43 -50 43q-48 0 -48 -43q0 -41 48 -41z" />
    <glyph glyph-name="seveneighths" unicode="&#x215e;" horiz-adv-x="720" 
d="M495 652q16 21 65 21q39 0 39 -15l-3 -6q-241 -329 -445 -696q-13 -22 -61 -24q-41 -1 -42 16q-1 4 2 8q204 367 445 696zM150 295q-8 -18 -58 -18q-44 1 -45 16l1 4q39 89 70.5 144t75.5 109h-142q-17 0 -29 36q-13 36 1 43q2 1 4 1h267q14 0 15 -32.5t-10 -45.5
q-87 -113 -150 -257zM640 187q54 -25 54 -88q0 -49 -38.5 -77t-108.5 -28t-108 28t-38 77q0 61 53 87q-44 24 -44 73q0 44 36.5 68.5t100.5 24.5q65 0 100.5 -24.5t35.5 -68.5q0 -49 -43 -72zM547 292q-42 0 -42 -35q0 -38 42 -38q19 0 31 10t12 28q0 35 -43 35zM547 61
q50 0 50 41q0 43 -50 43q-48 0 -48 -43q0 -41 48 -41z" />
    <glyph glyph-name="arrowleft" unicode="&#x2190;" horiz-adv-x="782" 
d="M699 331q19 0 26.5 -27t-1 -55t-27.5 -28l-480 8q107 -115 221 -210q23 -18 -10 -26q-44 -11 -94 8q-20 7 -32 18q-87 76 -167 157t-80 101t79 99.5t168 157.5q34 30 99 31q46 0 46 -17q0 -6 -8 -13q-121 -102 -223 -210z" />
    <glyph glyph-name="arrowup" unicode="&#x2191;" horiz-adv-x="685" 
d="M601 373q30 -34 30 -101q-1 -45 -17 -45q-6 -1 -13 8q-103 124 -211 224l7 -484q0 -11 -11 -19t-27 -9.5t-32 0.5t-27 10t-11 19l6 482q-113 -105 -210 -223q-19 -23 -27 11q-10 44 9 95q7 20 18 32q75 86 156.5 165.5t100.5 79.5q20 0 99.5 -78t159.5 -167z" />
    <glyph glyph-name="arrowright" unicode="&#x2192;" horiz-adv-x="783" 
d="M482 536q88 -77 167 -157t79 -100t-77.5 -99t-168.5 -160q-34 -30 -100 -30q-46 1 -46 17q0 6 9 13q116 98 223 211l-484 -7q-19 0 -26.5 27.5t0.5 54.5t27 27l483 -7q-117 124 -224 210q-23 18 10 27q44 11 95 -8q21 -8 33 -19z" />
    <glyph glyph-name="arrowdown" unicode="&#x2193;" horiz-adv-x="685" 
d="M600 319q18 23 27 -9q10 -44 -8 -95q-8 -20 -19 -33q-76 -87 -157 -166t-101 -80q-19 1 -100.5 80.5t-157.5 165.5q-29 34 -30 100q0 46 16 46q7 0 14 -9q99 -119 211 -223l-7 484q0 19 27 26.5t54.5 -0.5t27.5 -27l-7 -482q111 103 210 222z" />
    <glyph glyph-name="arrowboth" unicode="&#x2194;" horiz-adv-x="1059" 
d="M754 534q89 -79 168 -159t79 -99q0 -21 -80 -102t-167 -156q-34 -31 -100 -29q-44 1 -45 16q0 6 9 13q118 96 219 207h-616q101 -111 219 -207q23 -18 -10 -26q-44 -11 -95 8q-20 7 -32 18q-87 76 -166.5 156.5t-79.5 101.5q0 19 79 99.5t167 158.5q35 30 100 30
q46 0 46 -17q0 -6 -8 -13q-114 -96 -220 -206h616q-106 110 -220 206q-23 20 12 28q44 9 94 -10q19 -8 31 -18z" />
    <glyph glyph-name="arrowupdn" unicode="&#x2195;" horiz-adv-x="685" 
d="M602 189q19 23 27 -10q10 -44 -10 -95q-8 -20 -18 -32q-79 -89 -159 -168t-99 -79q-20 0 -102 81t-156 166q-31 34 -29 100q1 44 16 45q6 0 13 -9q96 -118 207 -219v617q-112 -104 -207 -219q-18 -23 -26 10q-11 44 8 94q7 20 18 32q74 85 156 166t102 81q19 0 99 -79
t159 -168q30 -33 30 -99q0 -47 -16 -46q-6 0 -13 8q-100 117 -207 220v-617q107 103 207 220z" />
    <glyph glyph-name="uni2196" unicode="&#x2196;" horiz-adv-x="624" 
d="M564 97q14 -13 0 -37.5t-39.5 -38t-39.5 -0.5l-335 346q-6 -145 8 -306q2 -19 -11 -17q-24 3 -55 44q-29 38 -30 70q-8 97 -7 220t15 137q14 13 137 13.5t220 -6.5q44 -3 90 -47q35 -34 22 -46q-5 -4 -15 -3q-151 13 -306 9z" />
    <glyph glyph-name="uni2197" unicode="&#x2197;" horiz-adv-x="623" 
d="M556 520q14 -14 15 -137.5t-6 -219.5q-3 -44 -48 -90q-35 -35 -46 -22q-4 5 -3 15q13 151 9 307l-337 -347q-14 -14 -38.5 0t-38.5 39t0 38l346 337q-151 6 -307 -9q-19 -2 -17 12q4 23 45 55q38 29 70 30q96 7 219 6.5t137 -14.5z" />
    <glyph glyph-name="uni2198" unicode="&#x2198;" horiz-adv-x="623" 
d="M562 392q8 -97 7 -219t-14 -137q-14 -14 -137.5 -15t-219.5 6q-44 3 -90 47q-35 35 -23 47q4 5 15 4q162 -14 308 -10l-347 338q-14 13 0 38t39 38.5t38 -0.5l337 -346q4 171 -10 306q-2 19 12 17q24 -3 55 -44q28 -38 30 -70z" />
    <glyph glyph-name="uni2199" unicode="&#x2199;" horiz-adv-x="623" 
d="M486 534q13 14 38 0t38.5 -39t0.5 -39l-346 -336q152 -6 305 9q19 2 18 -12q-4 -23 -45 -55q-37 -28 -69 -30q-98 -8 -220.5 -7t-136.5 15q-26 27 -8 357q3 44 48 90q34 35 46 22q4 -5 3 -15q-14 -160 -10 -307z" />
    <glyph glyph-name="partialdiff" unicode="&#x2202;" horiz-adv-x="590" 
d="M551 384q0 -161 -84.5 -276t-226.5 -115q-93 0 -147.5 46t-54.5 125q0 116 62 184t169 68q58 0 100.5 -20.5t61.5 -53.5q1 14 1 42q0 80 -43 120t-139 40q-50 0 -108 -20q-25 -9 -29 23q-4 34 15 56q3 3 6 5q43 29 132 29q140 0 212.5 -64t72.5 -189zM256 81
q120 0 157 148q-12 41 -43 67.5t-71 26.5q-67 0 -107 -41.5t-40 -112.5q0 -40 28 -64t76 -24z" />
    <glyph glyph-name="emptyset" unicode="&#x2205;" horiz-adv-x="572" 
d="M414 565q20 26 72 27q41 0 41 -16q0 -5 -5 -11q-42 -51 -61 -76q52 -66 52 -177q0 -120 -62.5 -187.5t-173.5 -67.5q-64 0 -109 22q-12 -20 -18 -29q-15 -26 -65 -28q-41 -1 -44 17q-1 5 3 11q34 54 53 83q-55 66 -55 179q0 121 62 189t173 68q67 0 119 -26zM134 312
q0 -57 20 -95q81 118 184 252q-28 11 -61 11q-68 0 -105.5 -44t-37.5 -124zM277 146q68 0 106 43.5t38 122.5q0 60 -21 99q-103 -138 -181 -255q28 -10 58 -10z" />
    <glyph glyph-name="product" unicode="&#x220f;" horiz-adv-x="631" 
d="M596 630q27 0 17 -36q-10 -38 -40 -58q-13 -9 -25 -9h-50v-614q0 -18 -29 -26t-58 0t-29 26v614h-160v-614q0 -18 -29 -26t-58 0t-29 26v614h-61q-18 0 -26 25.5t0 51.5t26 26h551z" />
    <glyph glyph-name="summation" unicode="&#x2211;" horiz-adv-x="578" 
d="M521 -15q19 0 26.5 -25.5t0 -51.5t-26.5 -26h-473q-25 0 -27.5 44t15.5 58q164 135 279 272q-115 137 -279 272q-18 15 -15.5 58.5t27.5 43.5h495q27 0 17 -36q-11 -38 -42 -58q-13 -9 -25 -9h-295q154 -134 240 -248q19 -23 0 -46q-84 -111 -241 -248h324z" />
    <glyph glyph-name="minus" unicode="&#x2212;" horiz-adv-x="428" 
d="M57 240q-19 0 -26.5 26t0 51.5t26.5 25.5h332q27 0 16 -36q-11 -38 -41 -58q-13 -9 -25 -9h-282z" />
    <glyph glyph-name="radical" unicode="&#x221a;" horiz-adv-x="645" 
d="M500 604q7 27 58 32q49 4 63 -16q5 -7 2 -16q-58 -174 -136.5 -375.5t-95.5 -220.5q-15 -15 -37.5 -15t-38.5 15t-67 126.5t-94 226.5h-105q-19 0 -26.5 25.5t0 51.5t26.5 26h131q24 0 45 -6.5t23 -15.5q48 -171 105 -294q83 210 147 456z" />
    <glyph glyph-name="infinity" unicode="&#x221e;" horiz-adv-x="822" 
d="M28 287q0 82 44.5 138.5t124.5 56.5q112 0 215 -124q100 124 214 124q81 0 125 -56.5t44 -138.5q0 -81 -44.5 -138t-124.5 -57q-114 0 -214 123q-103 -123 -215 -123q-80 0 -124.5 57t-44.5 138zM130 287q0 -39 23 -65.5t65 -26.5q71 0 135 92q-64 93 -135 93
q-42 0 -65 -26.5t-23 -66.5zM469 287q64 -92 135 -92q41 0 64.5 26.5t23.5 65.5t-23.5 66t-64.5 27q-71 0 -135 -93z" />
    <glyph glyph-name="integral" unicode="&#x222b;" horiz-adv-x="394" 
d="M359 650q24 -14 25 -59q1 -36 -17 -36q-4 0 -8 2q-35 20 -55 20q-48 0 -48 -113v-489q0 -91 -35.5 -137.5t-92.5 -46.5q-46 0 -93 30q-24 15 -25 59q-1 36 17 36q4 0 8 -2q34 -20 54 -20q49 0 49 114v488q0 90 35.5 137t91.5 47q47 0 94 -30z" />
    <glyph glyph-name="approxequal" unicode="&#x2248;" horiz-adv-x="501" 
d="M51 340q-19 -15 -24 17q-6 40 14 74q4 7 10 12q46 35 99 35q50 0 101 -30q50 -31 102 -31q50 0 97 36q20 15 25 -17q6 -40 -14 -73q-5 -9 -11 -14q-46 -34 -97 -34q-53 0 -102 29q-52 32 -101 32q-52 0 -99 -36zM51 131q-19 -15 -24 17q-6 41 13 74l11 13q44 35 99 35
q50 0 101 -30q54 -32 102 -32t97 36q20 15 24 -17q6 -40 -14 -73l-10 -12q-45 -36 -97 -36t-102 31t-101 31q-53 0 -99 -37z" />
    <glyph glyph-name="notequal" unicode="&#x2260;" horiz-adv-x="489" 
d="M57 342q-19 0 -26.5 25.5t0 51t26.5 25.5h203l52 99q12 23 64 25q45 2 49 -16l-2 -9l-51 -99h77q27 0 16 -36q-12 -38 -43 -58q-13 -8 -24 -8h-341zM449 243q27 0 16 -36q-11 -38 -42 -58q-13 -9 -25 -9h-153l-54 -107q-13 -23 -66 -25q-46 -1 -49 17q0 4 2 8l55 107h-76
q-19 0 -26.5 26t0 51.5t26.5 25.5h392z" />
    <glyph glyph-name="lessequal" unicode="&#x2264;" horiz-adv-x="455" 
d="M394 592q19 6 26 -25q9 -42 -8 -75q-8 -13 -18 -16q-114 -36 -219 -87q105 -51 219 -87q24 -6 28 -56q3 -48 -16 -58q-5 -3 -12 -1q-105 34 -210.5 81.5t-150.5 82.5q-9 9 -9 38t9 39q46 35 152 82.5t209 81.5zM53 38q-19 0 -26.5 26t0 51.5t26.5 25.5h344q27 0 17 -36
q-11 -38 -42 -58q-13 -9 -25 -9h-294z" />
    <glyph glyph-name="greaterequal" unicode="&#x2265;" horiz-adv-x="458" 
d="M66 592q104 -34 209.5 -81.5t150.5 -82.5q10 -10 10 -39t-10 -38q-44 -35 -149.5 -82.5t-210.5 -81.5q-19 -7 -26 25q-9 42 8 74q8 13 18 16q114 36 219 87q-105 51 -219 87q-25 7 -28 58q-3 46 16 57q5 3 12 1zM64 38q-19 0 -26.5 26t0 51.5t26.5 25.5h352q27 0 16 -36
q-11 -38 -41 -58q-13 -9 -25 -9h-302z" />
    <glyph glyph-name="lozenge" unicode="&#x25ca;" horiz-adv-x="447" 
d="M23 315q0 30 85 170.5t102 147.5q15 5 27 0q18 -6 102.5 -147t84.5 -171q0 -31 -84.5 -171.5t-102.5 -146.5q-12 -7 -27 0q-17 6 -102 147t-85 171zM129 315q0 -10 41 -92t54 -98q13 16 53.5 98t40.5 92q0 9 -41 91t-53 98q-13 -16 -54 -97.5t-41 -91.5z" />
    <glyph glyph-name="Iacute_J.loclNLD" horiz-adv-x="730" 
d="M124 715l64 132q13 25 73 28q54 2 60 -16q2 -6 -3 -12l-103 -132q-15 -22 -59 -22q-36 0 -34 17q1 2 2 5zM585 715l64 132q13 25 73 28q54 2 60 -16q2 -6 -3 -12l-103 -132q-15 -22 -59 -22q-36 0 -34 17q1 2 2 5zM331 29q-25 12 -28 55q-3 36 15 40q6 1 13 -3
q61 -34 111 -34q53 0 82 43t29 122v323q0 28 47 53q46 25 65 11q7 -5 7 -14v-404q0 -113 -54.5 -170.5t-141.5 -57.5q-72 0 -145 36zM93 23v551q0 29 46 54q44 24 65 11q7 -5 7 -15v-601q0 -19 -29.5 -26.5t-59 0t-29.5 26.5z" />
    <glyph glyph-name="i.loclTRK" horiz-adv-x="270" 
d="M124 546q-32 0 -50.5 19.5t-18.5 53.5q0 32 19 51.5t50 19.5q30 0 49 -20t19 -51q0 -33 -19 -53t-49 -20zM206 103q24 10 30 -20q7 -34 -14 -61q-7 -9 -16 -13q-32 -15 -63 -15q-36 0 -57.5 24.5t-21.5 74.5v314q0 29 46 54q44 25 65 11q7 -5 7 -15v-335q0 -21 15 -21
q3 0 9 2z" />
    <glyph glyph-name="j.alt" horiz-adv-x="305" 
d="M181 546q-31 0 -50 20t-19 53q0 32 19 51.5t50 19.5t49.5 -19.5t18.5 -51.5q0 -34 -18.5 -53.5t-49.5 -19.5zM-32 -175q-24 15 -25 59q0 37 17 37q4 0 8 -3q43 -23 79 -23q76 0 76 117v395q0 29 46 54q45 25 64 11q7 -5 7 -15v-477q0 -90 -44.5 -138t-112.5 -48
q-56 0 -115 31z" />
    <glyph glyph-name="jcircumflex.alt" horiz-adv-x="305" 
d="M48 545q18 30 58 86.5t51 67.5q8 7 26.5 7t26.5 -7q11 -11 52 -67.5t57 -86.5q9 -18 -21 -22q-39 -6 -64 13l-9 9q-20 34 -41 61q-21 -27 -41 -61q-15 -23 -59 -24q-37 -1 -38 16q0 4 2 8zM-32 -175q-24 15 -25 59q0 37 17 37q4 0 8 -3q43 -23 79 -23q76 0 76 117v395
q0 29 46 54q45 25 64 11q7 -5 7 -15v-477q0 -90 -44.5 -138t-112.5 -48q-56 0 -115 31z" />
    <glyph glyph-name="v.alt" horiz-adv-x="543" 
d="M36 400q-7 18 25 25q42 9 79 -7q17 -7 20 -18q33 -117 112 -262q78 154 124 303q7 23 61 27q52 3 63 -16q3 -5 1 -11q-42 -123 -112 -266t-100 -169q-15 -12 -38 -12t-38 12q-26 22 -88.5 147.5t-108.5 246.5z" />
    <glyph glyph-name="w.alt" horiz-adv-x="755" 
d="M608 441q5 24 59 27q53 4 65 -16q4 -5 2 -11q-34 -122 -92 -262.5t-87 -172.5q-14 -13 -39 -13t-39 13q-36 41 -105 217q-54 -170 -94 -217q-13 -14 -38 -14t-38 14q-28 30 -84 158t-87 236q-4 16 23 23q42 11 81 -4q19 -7 22 -19q29 -133 82 -262q46 106 80 235
q-11 33 -21 68q-5 17 24 24q41 11 80 -4q19 -9 22 -20q36 -165 92 -303q56 135 92 303z" />
    <glyph glyph-name="wacute.alt" horiz-adv-x="755" 
d="M428 552q-15 -22 -59 -22q-36 0 -34 17q1 2 2 5l64 132q13 25 73 28q54 2 60 -16q2 -6 -3 -12zM608 441q5 24 59 27q53 4 65 -16q4 -5 2 -11q-34 -122 -92 -262.5t-87 -172.5q-14 -13 -39 -13t-39 13q-36 41 -105 217q-54 -170 -94 -217q-13 -14 -38 -14t-38 14
q-28 30 -84 158t-87 236q-4 16 23 23q42 11 81 -4q19 -7 22 -19q29 -133 82 -262q46 106 80 235q-11 33 -21 68q-5 17 24 24q41 11 80 -4q19 -9 22 -20q36 -165 92 -303q56 135 92 303z" />
    <glyph glyph-name="wcircumflex.alt" horiz-adv-x="755" 
d="M328 545q-17 -22 -69 -23q-43 -1 -43 15q0 4 3 8q22 31 71 87.5t62 66.5q9 6 26.5 6.5t26.5 -6.5q13 -10 62.5 -66.5t71.5 -87.5q11 -17 -21 -22q-44 -6 -76 12q-8 5 -12 10q-27 39 -51 64q-24 -25 -51 -64zM608 441q5 24 59 27q53 4 65 -16q4 -5 2 -11
q-34 -122 -92 -262.5t-87 -172.5q-14 -13 -39 -13t-39 13q-36 41 -105 217q-54 -170 -94 -217q-13 -14 -38 -14t-38 14q-28 30 -84 158t-87 236q-4 16 23 23q42 11 81 -4q19 -7 22 -19q29 -133 82 -262q46 106 80 235q-11 33 -21 68q-5 17 24 24q41 11 80 -4q19 -9 22 -20
q36 -165 92 -303q56 135 92 303z" />
    <glyph glyph-name="wdieresis.alt" horiz-adv-x="755" 
d="M260 530q-29 0 -47.5 19t-18.5 50t18.5 50t47.5 19t47 -19t18 -50t-18 -50t-47 -19zM497 530q-30 0 -48 19t-18 50t18 50t48 19q29 0 47 -19t18 -50t-18 -50t-47 -19zM608 441q5 24 59 27q53 4 65 -16q4 -5 2 -11q-34 -122 -92 -262.5t-87 -172.5q-14 -13 -39 -13t-39 13
q-36 41 -105 217q-54 -170 -94 -217q-13 -14 -38 -14t-38 14q-28 30 -84 158t-87 236q-4 16 23 23q42 11 81 -4q19 -7 22 -19q29 -133 82 -262q46 106 80 235q-11 33 -21 68q-5 17 24 24q41 11 80 -4q19 -9 22 -20q36 -165 92 -303q56 135 92 303z" />
    <glyph glyph-name="wgrave.alt" horiz-adv-x="755" 
d="M330 552l-103 132q-15 19 24 26q48 8 87 -10q15 -7 20 -16l63 -132q9 -17 -20 -21q-38 -5 -64 14q-4 3 -7 7zM608 441q5 24 59 27q53 4 65 -16q4 -5 2 -11q-34 -122 -92 -262.5t-87 -172.5q-14 -13 -39 -13t-39 13q-36 41 -105 217q-54 -170 -94 -217q-13 -14 -38 -14
t-38 14q-28 30 -84 158t-87 236q-4 16 23 23q42 11 81 -4q19 -7 22 -19q29 -133 82 -262q46 106 80 235q-11 33 -21 68q-5 17 24 24q41 11 80 -4q19 -9 22 -20q36 -165 92 -303q56 135 92 303z" />
    <glyph glyph-name="x.alt" horiz-adv-x="531" 
d="M507 27q16 -23 -20 -31q-44 -9 -86 12q-15 8 -23 19q-48 70 -112 150q-64 -80 -112 -150q-21 -30 -79 -33q-48 -2 -54 17q-2 7 4 16q87 126 174 229q-73 82 -143 150q-22 22 13 30q44 10 93 -11q20 -8 31 -19q37 -38 72 -75q39 44 101 106q31 31 94 32q50 2 51 -17
q-1 -8 -8 -15q-90 -89 -171 -182q91 -107 175 -228z" />
    <glyph glyph-name="y.alt" horiz-adv-x="571" 
d="M427 438q9 27 61 31q49 4 61 -16q4 -7 1 -15q-91 -260 -253 -536q-62 -106 -148 -106q-38 0 -78 20q-23 13 -22 54q2 36 21 41q7 2 16 -3q22 -13 42 -13q42 0 81 69q4 7 13.5 24t14.5 27q-134 198 -199 379q-8 24 29 31q44 9 77 -11q14 -8 18 -20q43 -133 130 -273
q81 166 135 317z" />
    <glyph glyph-name="yacute.alt" horiz-adv-x="571" 
d="M335 552q-15 -22 -59 -22q-36 0 -34 17q1 2 2 5l64 132q13 25 73 28q54 2 60 -16q2 -6 -3 -12zM427 438q9 27 61 31q49 4 61 -16q4 -7 1 -15q-91 -260 -253 -536q-62 -106 -148 -106q-38 0 -78 20q-23 13 -22 54q2 36 21 41q7 2 16 -3q22 -13 42 -13q42 0 81 69
q4 7 13.5 24t14.5 27q-134 198 -199 379q-8 24 29 31q44 9 77 -11q14 -8 18 -20q43 -133 130 -273q81 166 135 317z" />
    <glyph glyph-name="ycircumflex.alt" horiz-adv-x="571" 
d="M235 545q-17 -22 -69 -23q-43 -1 -43 15q0 4 3 8q22 31 71 87.5t62 66.5q9 6 26.5 6.5t26.5 -6.5q13 -10 62.5 -66.5t71.5 -87.5q11 -17 -21 -22q-44 -6 -76 12q-8 5 -12 10q-27 39 -51 64q-24 -25 -51 -64zM427 438q9 27 61 31q49 4 61 -16q4 -7 1 -15
q-91 -260 -253 -536q-62 -106 -148 -106q-38 0 -78 20q-23 13 -22 54q2 36 21 41q7 2 16 -3q22 -13 42 -13q42 0 81 69q4 7 13.5 24t14.5 27q-134 198 -199 379q-8 24 29 31q44 9 77 -11q14 -8 18 -20q43 -133 130 -273q81 166 135 317z" />
    <glyph glyph-name="ydieresis.alt" horiz-adv-x="571" 
d="M167 530q-29 0 -47.5 19t-18.5 50t18.5 50t47.5 19t47 -19t18 -50t-18 -50t-47 -19zM404 530q-30 0 -48 19t-18 50t18 50t48 19q29 0 47 -19t18 -50t-18 -50t-47 -19zM427 438q9 27 61 31q49 4 61 -16q4 -7 1 -15q-91 -260 -253 -536q-62 -106 -148 -106q-38 0 -78 20
q-23 13 -22 54q2 36 21 41q7 2 16 -3q22 -13 42 -13q42 0 81 69q4 7 13.5 24t14.5 27q-134 198 -199 379q-8 24 29 31q44 9 77 -11q14 -8 18 -20q43 -133 130 -273q81 166 135 317z" />
    <glyph glyph-name="ygrave.alt" horiz-adv-x="571" 
d="M237 552l-103 132q-15 19 24 26q48 8 87 -10q15 -7 20 -16l63 -132q9 -17 -20 -21q-38 -5 -64 14zM427 438q9 27 61 31q49 4 61 -16q4 -7 1 -15q-91 -260 -253 -536q-62 -106 -148 -106q-38 0 -78 20q-23 13 -22 54q2 36 21 41q7 2 16 -3q22 -13 42 -13q42 0 81 69
q4 7 13.5 24t14.5 27q-134 198 -199 379q-8 24 29 31q44 9 77 -11q14 -8 18 -20q43 -133 130 -273q81 166 135 317z" />
    <glyph glyph-name="j.calt" horiz-adv-x="305" 
d="M181 546q-31 0 -50 20t-19 53q0 32 19 51.5t50 19.5t49.5 -19.5t18.5 -51.5q0 -34 -18.5 -53.5t-49.5 -19.5zM34 -171q-25 12 -28 54q-2 38 17 41q5 1 11 -2q25 -11 45 -11q44 0 44 63v433q0 29 46 54q45 25 64 11q7 -5 7 -15v-512q0 -66 -35.5 -100.5t-89.5 -34.5
q-37 0 -81 19z" />
    <glyph glyph-name="jcircumflex.calt" horiz-adv-x="305" 
d="M48 545q18 30 58 86.5t51 67.5q8 7 26.5 7t26.5 -7q11 -11 52 -67.5t57 -86.5q9 -18 -21 -22q-39 -6 -64 13l-9 9q-20 34 -41 61q-21 -27 -41 -61q-15 -23 -59 -24q-37 -1 -38 16q0 4 2 8zM34 -171q-25 12 -28 54q-2 38 17 41q5 1 11 -2q25 -11 45 -11q44 0 44 63v433
q0 29 46 54q45 25 64 11q7 -5 7 -15v-512q0 -66 -35.5 -100.5t-89.5 -34.5q-37 0 -81 19z" />
    <glyph glyph-name="germandbls.calt" horiz-adv-x="582" 
d="M42 23v346q0 78 23.5 133.5t65.5 85t89.5 42t104.5 12.5q91 0 199 -28q30 -8 32.5 -37t-21.5 -58q-70 -84 -115 -157q63 -25 96.5 -77.5t33.5 -114.5q0 -81 -56.5 -141t-154.5 -60q-45 0 -88 11q-26 6 -29 51q-2 41 17 51q6 3 13 1q36 -11 64 -11q53 0 85 30t32 72
q0 40 -29.5 74t-87.5 50q-22 4 -29.5 22.5t2.5 36.5q47 88 118 174q-41 12 -83 12q-72 0 -118.5 -43.5t-46.5 -147.5v-329q0 -19 -29.5 -26.5t-58.5 0t-29 26.5z" />
    <glyph glyph-name="iacute_j.loclNLD" horiz-adv-x="558" 
d="M82 552l64 132q13 25 73 28q54 2 60 -16q2 -6 -3 -12l-103 -132q-15 -22 -59 -22q-36 0 -34 17q1 2 2 5zM395 552l64 132q13 25 73 28q54 2 60 -16q2 -6 -3 -12l-103 -132q-15 -22 -59 -22q-36 0 -34 17q1 2 2 5zM207 103q24 10 30 -20q7 -34 -14 -61q-7 -9 -16 -13
q-31 -15 -63 -15q-36 0 -57.5 24.5t-21.5 74.5v314q0 29 46 54q44 25 65 11q7 -5 7 -15v-335q0 -21 15 -21q3 0 9 2zM221 -159q-24 14 -25 59q0 36 17 36l8 -2q43 -23 79 -23q76 0 76 116v380q0 29 46 54q45 25 64 11q7 -5 7 -15v-462q0 -90 -44.5 -137.5t-112.5 -47.5
q-59 0 -115 31z" />
    <glyph glyph-name="Aogonek_j" horiz-adv-x="825" 
d="M701 546q-31 0 -50 20t-19 53q0 32 19 51.5t50 19.5t50 -19.5t19 -51.5q0 -33 -19 -53t-50 -20zM517 -32q18 8 21 -19q4 -32 -14 -49l-4 -3q-47 -26 -91 -26q-43 0 -69 26t-26 64q0 51 42 88l68 60l-17 58h-228q-30 -94 -45 -144q-8 -26 -63 -30q-53 -4 -68 15
q-5 7 -2 15q58 175 145.5 368t133.5 242q5 5 13.5 5t13.5 -5q42 -44 119.5 -208t117.5 -284q10 -26 -12 -48l-83 -79q-23 -21 -23 -37q0 -21 26 -21q18 0 45 12zM643 407q0 29 46 54q45 25 64 11q7 -5 7 -15v-556q0 -91 -44 -138t-113 -47q-64 0 -114 31q-24 14 -25 58
q-1 37 17 37q4 0 8 -2q45 -23 78 -23q76 0 76 116v474zM233 266h161q-32 92 -80 195q-44 -92 -81 -195z" />
    <glyph glyph-name="Q_j" horiz-adv-x="922" 
d="M798 546q-32 0 -50.5 19.5t-18.5 53.5q0 32 19 51.5t50 19.5q30 0 49 -20t19 -51q0 -33 -19 -53t-49 -20zM585 -68q25 -18 -13 -36q-42 -19 -82 -11q-13 3 -19 8q-43 37 -72 106q-33 -6 -71 -6q-139 0 -217 85.5t-78 236.5q0 152 78 237.5t217 85.5q140 0 218.5 -85.5
t78.5 -237.5q0 -202 -134 -281q28 -53 94 -102zM156 315q0 -104 45 -161.5t127 -57.5t128 57.5t46 161.5t-46 162t-128 58t-127 -58t-45 -162zM739 407q0 29 46 54q44 24 65 11q7 -5 7 -15v-556q0 -92 -44.5 -139t-113.5 -47q-56 0 -114 32q-24 14 -25 58q0 35 16 37
q4 0 9 -3q45 -23 78 -23q76 0 76 117v474z" />
    <glyph glyph-name="T_i" horiz-adv-x="809" 
d="M707 527h-354v-504q0 -19 -31.5 -26.5t-63 0t-31.5 26.5v504h-141q-30 0 -55 42q-24 39 -9 56q5 5 14 5h671q19 0 26.5 -26t0 -51.5t-26.5 -25.5zM744 103q24 10 30 -20q7 -34 -14 -61q-7 -9 -16 -13q-32 -15 -62 -15q-36 0 -58 24.5t-22 74.5v290q0 29 46 54
q44 25 65 11q7 -5 7 -15v-311q0 -21 15 -21q3 0 9 2z" />
    </font>
</defs>
</svg>
